<svg xmlns="http://www.w3.org/2000/svg" width="24" height="20.563" viewBox="0 0 24 20.563">
  <metadata><?xpacket begin="﻿" id="W5M0MpCehiHzreSzNTczkc9d"?>
<x:xmpmeta xmlns:x="adobe:ns:meta/" x:xmptk="Adobe XMP Core 5.6-c138 79.159824, 2016/09/14-01:09:01        ">
   <rdf:RDF xmlns:rdf="http://www.w3.org/1999/02/22-rdf-syntax-ns#">
      <rdf:Description rdf:about=""/>
   </rdf:RDF>
</x:xmpmeta>





















<?xpacket end="w"?></metadata>
<defs>
    <style>
      .cls-comment-icon {
        fill-rule: evenodd;
        fill: #016a9c;
      }
    </style>
  </defs>
  <path id="fa-comment" class="cls-comment-icon" d="M82.027,66.924A15.569,15.569,0,0,0,76,65.779a15.927,15.927,0,0,0-4.661.676,13.037,13.037,0,0,0-3.83,1.828,9.138,9.138,0,0,0-2.558,2.739A6.379,6.379,0,0,0,64,74.35a6.5,6.5,0,0,0,1.212,3.763,9.829,9.829,0,0,0,3.315,2.947,8.544,8.544,0,0,1-.348,1.018q-0.2.482-.362,0.79a5.471,5.471,0,0,1-.435.683q-0.275.375-.415,0.529l-0.462.509q-0.321.355-.415,0.462c-0.018.018-.054,0.058-0.107,0.121s-0.085.1-.094,0.114l-0.08.12a0.252,0.252,0,0,0-.06.127,0.363,0.363,0,0,1-.027.134,0.176,0.176,0,0,0,.007.161v0.013a0.673,0.673,0,0,0,.234.388,0.526,0.526,0,0,0,.408.12,10.115,10.115,0,0,0,1.527-.295,14.641,14.641,0,0,0,6.161-3.241A18.273,18.273,0,0,0,76,82.922a15.569,15.569,0,0,0,6.027-1.145,10.853,10.853,0,0,0,4.366-3.121,6.572,6.572,0,0,0,0-8.612A10.856,10.856,0,0,0,82.027,66.924Z" transform="translate(-64 -65.781)"/>
</svg>
