<?xml version="1.0" encoding="utf-8"?>
<!-- Generator: Adobe Illustrator 19.2.1, SVG Export Plug-In . SVG Version: 6.00 Build 0)  -->
<svg version="1.1" id="Layer_1" xmlns="http://www.w3.org/2000/svg" xmlns:xlink="http://www.w3.org/1999/xlink" x="0px" y="0px"
	 viewBox="0 0 16 16" style="enable-background:new 0 0 16 16;" xml:space="preserve">
<path d="M15,0H1C0.4,0,0,0.4,0,1v2c0,0.3,0.1,0.6,0.4,0.8L6,8.5V15c0,0.4,0.2,0.8,0.6,0.9C6.7,16,6.9,16,7,16c0.3,0,0.5-0.1,0.7-0.3
	l2-2C9.9,13.5,10,13.3,10,13V8.5l5.6-4.7C15.9,3.6,16,3.3,16,3V1C16,0.4,15.6,0,15,0z"/>
</svg>
