<svg xmlns="http://www.w3.org/2000/svg" xmlns:xlink="http://www.w3.org/1999/xlink" version="1.1" x="0px" y="0px" viewBox="17 17 83 83">
    <path d="M78.57,65.438c-0.032,0-0.066-0.002-0.103-0.004c-0.549-0.058-0.948-0.548-0.894-1.098  c0.626-6.141,0.275-12.5-1.066-19.445c-1.852-9.564-8.753-17.421-18.01-20.506c-0.523-0.175-0.807-0.741-0.632-1.265  c0.175-0.523,0.737-0.808,1.265-0.632c9.939,3.312,17.352,11.752,19.34,22.024c1.381,7.14,1.739,13.691,1.094,20.028  C79.514,65.055,79.078,65.438,78.57,65.438z M21.47,63.314c2.806-4.133,2.446-5.996,2.03-8.152  c-1.371-7.085,0.098-14.281,4.135-20.263c4.038-5.982,10.162-10.031,17.244-11.402c2.799-0.548,5.73-0.646,8.633-0.264  c0.551,0.065,1.051-0.314,1.121-0.861c0.072-0.548-0.312-1.05-0.861-1.122c-3.114-0.41-6.268-0.305-9.274,0.284  c-7.605,1.473-14.183,5.822-18.52,12.247c-4.336,6.424-5.914,14.153-4.441,21.762c0.373,1.93,0.619,3.203-1.72,6.648  c-0.311,0.457-0.191,1.08,0.266,1.39c0.172,0.117,0.367,0.173,0.561,0.173C20.962,63.753,21.276,63.6,21.47,63.314z M23.5,67.32  c5.116-6.758,4.538-9.75,3.926-12.92c-0.206-1.06-0.338-2.152-0.394-3.25c-0.027-0.553-0.488-0.977-1.049-0.948  c-0.551,0.028-0.976,0.498-0.948,1.049c0.06,1.19,0.204,2.378,0.427,3.529c0.57,2.952,1.021,5.284-3.557,11.331  c-0.333,0.44-0.247,1.068,0.194,1.4c0.181,0.137,0.393,0.203,0.603,0.203C23.004,67.717,23.303,67.58,23.5,67.32z M74.025,72.459  c1.611-6.064,2.148-12.244,1.646-18.893c-0.042-0.551-0.522-0.961-1.071-0.922c-0.552,0.041-0.965,0.521-0.923,1.071  c0.486,6.423-0.032,12.386-1.584,18.229c-0.142,0.533,0.177,1.082,0.71,1.224c0.086,0.022,0.174,0.033,0.258,0.033  C73.503,73.202,73.907,72.906,74.025,72.459z M74.216,49.355c0.546-0.084,0.921-0.595,0.836-1.141  c-0.149-0.973-0.315-1.952-0.507-2.941C72.273,33.53,61.956,25.007,50.011,25.007c-1.599,0-3.2,0.154-4.755,0.458  c-6.556,1.27-12.226,5.019-15.965,10.557c-1.994,2.953-3.312,6.218-3.918,9.703c-0.095,0.544,0.27,1.062,0.814,1.157  c0.55,0.095,1.062-0.27,1.157-0.814c0.557-3.206,1.77-6.209,3.604-8.927c3.44-5.095,8.656-8.544,14.689-9.713  c1.432-0.279,2.903-0.421,4.374-0.421c10.989,0,20.481,7.842,22.571,18.646c0.186,0.965,0.348,1.919,0.493,2.868  c0.075,0.494,0.502,0.847,0.987,0.847C74.113,49.367,74.164,49.363,74.216,49.355z M63.475,35.213  c0.352-0.426,0.291-1.057-0.137-1.408c-3.752-3.092-8.484-4.795-13.327-4.795c-1.344,0-2.689,0.129-3.996,0.385  c-1.6,0.31-3.168,0.807-4.659,1.479c-0.503,0.227-0.728,0.819-0.501,1.322c0.226,0.503,0.817,0.728,1.322,0.501  c1.35-0.608,2.77-1.058,4.22-1.339c1.182-0.231,2.398-0.348,3.614-0.348c4.379,0,8.661,1.541,12.055,4.338  c0.186,0.154,0.41,0.229,0.635,0.229C62.99,35.577,63.275,35.453,63.475,35.213z M68.152,77.357  c3.908-9.86,4.691-19.813,2.466-31.324c-0.57-2.953-1.744-5.695-3.487-8.151c-0.32-0.45-0.943-0.556-1.395-0.236  c-0.45,0.32-0.557,0.944-0.236,1.395c1.577,2.221,2.639,4.702,3.154,7.373c2.15,11.119,1.4,20.717-2.361,30.208  c-0.203,0.513,0.048,1.095,0.562,1.298c0.121,0.048,0.244,0.07,0.367,0.07C67.62,77.99,67.997,77.751,68.152,77.357z M25.898,70.752  c6.524-8.238,6.354-12.454,5.455-17.109c-0.965-4.986,0.068-10.051,2.909-14.261c1.02-1.51,2.245-2.864,3.643-4.023  c0.425-0.353,0.484-0.983,0.131-1.408c-0.353-0.425-0.983-0.483-1.408-0.131c-1.544,1.28-2.898,2.775-4.024,4.443  c-3.14,4.652-4.281,10.249-3.215,15.758c0.828,4.283,0.95,7.901-5.059,15.488c-0.343,0.434-0.27,1.062,0.164,1.405  c0.184,0.146,0.402,0.216,0.62,0.216C25.409,71.131,25.701,71.001,25.898,70.752z M28.632,73.74  c2.648-3.281,4.489-6.193,5.626-8.899c0.214-0.51-0.025-1.096-0.535-1.31c-0.511-0.213-1.095,0.025-1.309,0.533  c-1.063,2.531-2.81,5.285-5.339,8.42c-0.347,0.43-0.279,1.06,0.15,1.406c0.185,0.148,0.407,0.221,0.627,0.221  C28.145,74.111,28.435,73.984,28.632,73.74z M67.18,65.852c0.986-6.025,0.827-12.26-0.488-19.057  c-1.545-7.985-8.56-13.781-16.679-13.781c-1.087,0-2.176,0.105-3.236,0.312c-4.459,0.862-8.314,3.412-10.856,7.179  c-2.543,3.765-3.467,8.296-2.604,12.759c0.436,2.254,0.553,4.146,0.369,5.956c-0.056,0.55,0.344,1.04,0.893,1.097  c0.558,0.045,1.04-0.344,1.096-0.894c0.206-2.01,0.08-4.088-0.394-6.54c-0.763-3.938,0.053-7.936,2.297-11.259  c2.243-3.323,5.644-5.573,9.58-6.334c0.935-0.183,1.896-0.275,2.854-0.275c7.165,0,13.354,5.114,14.717,12.161  c1.269,6.561,1.424,12.565,0.477,18.354c-0.089,0.545,0.279,1.059,0.826,1.147c0.055,0.01,0.107,0.014,0.162,0.014  C66.675,66.689,67.1,66.342,67.18,65.852z M62.406,80.332c1.496-2.994,2.701-6.081,3.582-9.176c0.15-0.531-0.157-1.084-0.688-1.235  c-0.532-0.153-1.085,0.157-1.235,0.688c-0.846,2.976-2.004,5.945-3.446,8.828c-0.247,0.494-0.048,1.095,0.446,1.342  c0.145,0.07,0.297,0.104,0.447,0.104C61.878,80.885,62.23,80.684,62.406,80.332z M31.685,76.33  c7.183-8.854,9.221-15.416,7.521-24.21c-0.559-2.888,0.039-5.82,1.685-8.256c1.646-2.437,4.14-4.086,7.025-4.646  c0.986-0.193,2.009-0.241,3-0.162c0.545,0.044,1.033-0.366,1.077-0.916c0.045-0.55-0.365-1.033-0.916-1.077  c-1.171-0.095-2.379-0.035-3.543,0.191c-3.409,0.66-6.357,2.61-8.301,5.489c-1.944,2.878-2.651,6.343-1.991,9.755  c1.571,8.127-0.356,14.244-7.11,22.569c-0.348,0.43-0.283,1.06,0.146,1.406c0.185,0.15,0.408,0.225,0.629,0.225  C31.199,76.7,31.487,76.574,31.685,76.33z M56.959,81.943c6.383-10.939,8.229-21.866,5.807-34.388  c-0.711-3.671-2.978-6.865-6.217-8.761c-0.476-0.28-1.089-0.12-1.367,0.357c-0.279,0.477-0.119,1.089,0.357,1.368  c2.743,1.606,4.661,4.309,5.264,7.416c2.323,12.018,0.555,22.504-5.57,33c-0.277,0.478-0.116,1.09,0.359,1.367  c0.158,0.094,0.332,0.137,0.504,0.137C56.438,82.439,56.773,82.264,56.959,81.943z M51.874,82.545  c4.344-6.689,6.837-13.251,7.62-20.061c0.062-0.549-0.33-1.045-0.879-1.107c-0.551-0.062-1.045,0.331-1.107,0.879  c-0.748,6.495-3.14,12.775-7.312,19.199c-0.301,0.464-0.169,1.083,0.294,1.384C50.659,82.948,50.848,83,51.034,83  C51.361,83,51.684,82.84,51.874,82.545z M58.784,58c0.553,0,0.993-0.434,0.985-0.984c-0.043-2.815-0.354-5.723-0.932-8.699  c-0.818-4.228-4.529-7.296-8.828-7.296c-0.575,0-1.153,0.056-1.717,0.165c-2.361,0.458-4.402,1.808-5.748,3.801  c-0.646,0.958-1.097,2.016-1.34,3.145c-0.116,0.54,0.227,1.072,0.767,1.188c0.542,0.113,1.072-0.228,1.188-0.767  c0.189-0.879,0.541-1.704,1.043-2.449c1.046-1.55,2.634-2.602,4.471-2.958c0.439-0.085,0.889-0.132,1.336-0.132  c3.342,0,6.229,2.38,6.865,5.668c0.553,2.862,0.854,5.666,0.895,8.364c0.008,0.547,0.453,0.955,1,0.955  C58.773,58,58.779,58,58.784,58z M35.054,78.521c7.172-8.953,9.613-16.205,8.423-25.029c-0.074-0.549-0.581-0.926-1.125-0.857  c-0.547,0.074-0.931,0.577-0.857,1.125c1.124,8.329-1.12,14.922-8.001,23.512c-0.346,0.432-0.276,1.062,0.155,1.405  c0.184,0.148,0.405,0.22,0.625,0.22C34.566,78.896,34.857,78.77,35.054,78.521z M38.754,80.293c3.001-3.85,5.171-7.421,6.633-10.92  c0.213-0.51-0.028-1.096-0.538-1.309c-0.512-0.215-1.096,0.026-1.308,0.537c-1.392,3.332-3.474,6.754-6.364,10.461  c-0.34,0.436-0.262,1.063,0.174,1.402c0.183,0.143,0.399,0.212,0.614,0.212C38.263,80.678,38.557,80.546,38.754,80.293z   M47.162,82.393c7.812-11.043,10.13-21.007,7.75-33.314c-0.254-1.314-1.005-2.45-2.113-3.199c-1.105-0.747-2.436-1.018-3.745-0.763  c-1.311,0.254-2.445,1.003-3.193,2.111c-0.747,1.107-1.019,2.44-0.765,3.751c0.891,4.609,0.894,8.773,0.01,12.73  c-0.12,0.539,0.219,1.073,0.758,1.193c0.542,0.121,1.074-0.219,1.194-0.758c0.945-4.229,0.946-8.662,0.002-13.547  c-0.152-0.788,0.011-1.588,0.459-2.253c0.448-0.665,1.128-1.114,1.916-1.267c0.787-0.152,1.583,0.01,2.245,0.457  c0.666,0.449,1.116,1.131,1.271,1.921c2.266,11.72,0.047,21.226-7.42,31.78c-0.319,0.451-0.212,1.074,0.239,1.395  c0.176,0.124,0.377,0.184,0.577,0.184C46.658,82.814,46.967,82.668,47.162,82.393z M42.785,81.607  c7.994-10.654,10.445-20.155,8.201-31.77c-0.105-0.542-0.632-0.897-1.172-0.792c-0.542,0.105-0.896,0.629-0.792,1.172  c2.158,11.15-0.114,19.896-7.836,30.189c-0.332,0.442-0.242,1.069,0.2,1.399c0.18,0.135,0.391,0.2,0.599,0.2  C42.289,82.008,42.589,81.87,42.785,81.607z M19.125,58.424c0.537-0.129,0.868-0.669,0.74-1.206c-0.02-0.083-0.04-0.153-0.059-0.218  h0.002l-0.21-1.193c-1.336-6.759-0.285-13.883,2.916-20.061c0.254-0.49,0.114-1.094-0.376-1.348  c-0.491-0.254-0.991-0.062-1.245,0.428C17.501,41.371,16,48.917,18,56.086v0.005c0,0.757-0.056,1.035,0.052,1.349  c0.023,0.068-0.157,0.141-0.132,0.246c0.11,0.457,0.52,0.767,0.972,0.767C18.969,58.451,19.047,58.441,19.125,58.424z M25.194,31.43  c4.613-6.181,11.333-10.394,18.925-11.863C46.042,19.19,48.025,19,50.011,19c4.734,0,9.299,1.061,13.572,3.152  c0.498,0.243,1.097,0.039,1.338-0.458c0.242-0.496,0.037-1.095-0.459-1.338C59.914,18.129,55.053,17,50.011,17  c-2.115,0-4.227,0.203-6.274,0.604c-8.08,1.564-15.234,6.049-20.146,12.63c-0.331,0.443-0.239,1.069,0.203,1.399  c0.18,0.134,0.389,0.199,0.597,0.199C24.697,31.832,24.998,31.693,25.194,31.43z M83,50.074c0-2.099-0.195-4.147-0.598-6.261  L82.245,43h-0.021c-1.801-7.948-6.526-15.13-13.06-19.805c-0.45-0.323-1.073-0.218-1.396,0.231c-0.321,0.449-0.219,1.074,0.23,1.395  c6.344,4.54,10.875,11.602,12.436,19.375l0.041,0.203C80.829,46.314,81,48.172,81,50.074c0,0.552,0.447,1,1,1S83,50.626,83,50.074z"/>
</svg>
