<?xml version="1.0" encoding="utf-8"?>
<!-- Generator: Adobe Illustrator 19.1.0, SVG Export Plug-In . SVG Version: 6.00 Build 0)  -->
<!DOCTYPE svg PUBLIC "-//W3C//DTD SVG 1.1//EN" "http://www.w3.org/Graphics/SVG/1.1/DTD/svg11.dtd">
<svg version="1.1" id="Layer_1" xmlns="http://www.w3.org/2000/svg" xmlns:xlink="http://www.w3.org/1999/xlink" x="0px" y="0px"
	 width="17.9px" height="20px" viewBox="0 0 17.9 20" style="enable-background:new 0 0 17.9 20;" xml:space="preserve">
<path d="M14.7,2.5c-0.1,0-0.2,0-0.2-0.1C12.6,1.4,10.9,1,9,1C7,1,5.1,1.5,3.4,2.4c-0.2,0.1-0.5,0-0.7-0.2C2.6,2,2.7,1.7,2.9,1.5
	C4.8,0.5,6.8,0,9,0c2.1,0,4,0.5,6,1.5c0.2,0.1,0.3,0.4,0.2,0.7C15.1,2.4,14.9,2.5,14.7,2.5z M0.5,7.7c-0.1,0-0.2,0-0.3-0.1
	C0,7.5-0.1,7.2,0.1,6.9c1-1.4,2.2-2.5,3.7-3.3C6.9,2,10.9,2,14.1,3.7c1.5,0.8,2.7,1.9,3.7,3.2c0.2,0.2,0.1,0.5-0.1,0.7
	c-0.2,0.2-0.5,0.1-0.7-0.1c-0.9-1.3-2-2.3-3.4-2.9c-2.9-1.5-6.5-1.5-9.3,0c-1.4,0.7-2.5,1.7-3.4,3C0.8,7.7,0.7,7.7,0.5,7.7z
	 M6.7,19.8c-0.1,0-0.3,0-0.3-0.1c-0.9-0.9-1.3-1.4-2-2.6c-0.7-1.2-1-2.7-1-4.3c0-3,2.5-5.4,5.6-5.4s5.6,2.4,5.6,5.4
	c0,0.3-0.2,0.5-0.5,0.5c-0.3,0-0.5-0.2-0.5-0.5c0-2.4-2.1-4.4-4.6-4.4c-2.6,0-4.6,2-4.6,4.4c0,1.4,0.3,2.8,0.9,3.8
	c0.6,1.1,1.1,1.6,1.8,2.4c0.2,0.2,0.2,0.5,0,0.7C7,19.7,6.8,19.8,6.7,19.8z M13.8,17.9c-1.2,0-2.2-0.3-3.1-0.9
	c-1.5-1-2.4-2.7-2.4-4.4c0-0.3,0.2-0.5,0.5-0.5c0.3,0,0.5,0.2,0.5,0.5c0,1.4,0.7,2.7,1.9,3.6c0.7,0.5,1.5,0.7,2.5,0.7
	c0.2,0,0.6,0,1-0.1c0.3,0,0.5,0.1,0.6,0.4c0,0.3-0.1,0.5-0.4,0.6C14.5,17.9,14,17.9,13.8,17.9z M11.8,20c0,0-0.1,0-0.1,0
	c-1.6-0.4-2.6-1-3.7-2.1c-1.4-1.4-2.2-3.2-2.2-5.2c0-1.6,1.4-2.9,3.1-2.9c1.7,0,3.1,1.3,3.1,2.9c0,1.1,0.9,1.9,2.1,1.9
	c1.1,0,2.1-0.9,2.1-1.9c0-3.8-3.2-6.8-7.2-6.8c-2.8,0-5.4,1.6-6.6,4c-0.4,0.8-0.6,1.8-0.6,2.8c0,0.8,0.1,2,0.7,3.6
	c0.1,0.3,0,0.5-0.3,0.6c-0.3,0.1-0.5,0-0.6-0.3c-0.5-1.3-0.7-2.6-0.7-4c0-1.2,0.2-2.3,0.7-3.2c1.3-2.8,4.3-4.6,7.5-4.6
	c4.5,0,8.2,3.5,8.2,7.8c0,1.6-1.4,2.9-3.1,2.9c-1.7,0-3.1-1.3-3.1-2.9c0-1.1-0.9-1.9-2.1-1.9c-1.1,0-2.1,0.9-2.1,1.9
	c0,1.7,0.7,3.3,1.9,4.5c0.9,0.9,1.8,1.5,3.2,1.8c0.3,0.1,0.4,0.4,0.3,0.6C12.3,19.9,12,20,11.8,20z"/>
</svg>
