<?xml version="1.0" encoding="utf-8"?>
<!-- Generator: Avocode 2.6.0 - http://avocode.com -->
<svg height="16" width="16" xmlns:xlink="http://www.w3.org/1999/xlink" xmlns="http://www.w3.org/2000/svg" viewBox="0 0 16 16">
    <path opacity="0.7" fill-rule="evenodd" d="M 15 16 C 15 16 13 16 13 16 C 12.4 16 12 15.6 12 15 C 12 15 12 6 12 6 C 12 5.4 12.4 5 13 5 C 13 5 15 5 15 5 C 15.6 5 16 5.4 16 6 C 16 6 16 15 16 15 C 16 15.6 15.6 16 15 16 Z M 9 16 C 9 16 7 16 7 16 C 6.4 16 6 15.6 6 15 C 6 15 6 1 6 1 C 6 0.4 6.4 0 7 0 C 7 0 9 0 9 0 C 9.6 0 10 0.4 10 1 C 10 1 10 15 10 15 C 10 15.6 9.6 16 9 16 Z M 3 16 C 3 16 1 16 1 16 C 0.4 16 0 15.6 0 15 C 0 15 0 11 0 11 C 0 10.4 0.4 10 1 10 C 1 10 3 10 3 10 C 3.6 10 4 10.4 4 11 C 4 11 4 15 4 15 C 4 15.6 3.6 16 3 16 Z" />
</svg>
