<svg xmlns="http://www.w3.org/2000/svg" width="100" height="100" viewBox="0 0 100 100">
  <defs>
    <style>
      .cls-1 {
        fill-rule: evenodd;
      }
    </style>
  </defs>
  <path id="fa-envelope-o" class="cls-1" d="M90.557,80.669a1.664,1.664,0,0,1-1.218.514H9.661a1.756,1.756,0,0,1-1.732-1.731V37.9a31.662,31.662,0,0,0,3.735,3.571Q26.169,52.616,34.723,59.757q2.761,2.327,4.493,3.625A24.974,24.974,0,0,0,43.9,66.006a13.572,13.572,0,0,0,5.548,1.326h0.108A13.575,13.575,0,0,0,55.1,66.006a25.03,25.03,0,0,0,4.682-2.624q1.732-1.3,4.493-3.625,8.552-7.142,23.059-18.288A31.8,31.8,0,0,0,91.071,37.9V79.451A1.664,1.664,0,0,1,90.557,80.669Zm-2-50.967a25.413,25.413,0,0,1-5.44,6.249Q72.667,44.176,61.409,53.1q-0.325.272-1.894,1.6t-2.49,2.029q-0.921.7-2.409,1.7a14.409,14.409,0,0,1-2.733,1.488,6.418,6.418,0,0,1-2.328.487H49.446a6.411,6.411,0,0,1-2.328-.487,14.361,14.361,0,0,1-2.733-1.488q-1.489-1-2.409-1.7T39.486,54.7q-1.57-1.325-1.894-1.6Q26.332,44.175,15.886,35.951,7.929,29.675,7.929,20.585a1.756,1.756,0,0,1,1.732-1.731H89.339a1.972,1.972,0,0,1,.758.135,1,1,0,0,1,.487.406q0.162,0.271.3,0.487a1.5,1.5,0,0,1,.162.676q0.027,0.46.027,0.7v1.326A13.507,13.507,0,0,1,88.554,29.7Zm6.9-15.231a8.343,8.343,0,0,0-6.117-2.543H9.661a8.342,8.342,0,0,0-6.117,2.543A8.333,8.333,0,0,0,1,20.585V79.451a8.333,8.333,0,0,0,2.544,6.114,8.342,8.342,0,0,0,6.117,2.543H89.339A8.684,8.684,0,0,0,98,79.451V20.585A8.336,8.336,0,0,0,95.456,14.471Z"/>
</svg>
