<svg xmlns="http://www.w3.org/2000/svg" width="100" height="100" viewBox="0 0 100 100">
  <defs>
    <style>
      .cls-1 {
        fill-rule: evenodd;
      }
    </style>
  </defs>
  <path id="fa-file-text-o" class="cls-1" d="M70.482,7.457a12,12,0,0,0-3.91-2.464,11.908,11.908,0,0,0-4.528-1.027H15.94A4.914,4.914,0,0,0,11,8.894V91.037a4.914,4.914,0,0,0,4.94,4.929H85.095a4.914,4.914,0,0,0,4.94-4.929V31.894a11.836,11.836,0,0,0-1.029-4.518,11.962,11.962,0,0,0-2.47-3.9ZM65.8,12.077L81.9,28.147a5.61,5.61,0,0,1,1.132,2.1H63.69v-19.3a5.63,5.63,0,0,1,2.11,1.13h0ZM17.586,89.394V10.537H57.1V31.894a4.914,4.914,0,0,0,4.94,4.929H83.448V89.394H17.586ZM30.759,48.323a1.584,1.584,0,0,0,1.646,1.643H68.629a1.584,1.584,0,0,0,1.647-1.643V45.037a1.584,1.584,0,0,0-1.647-1.643H32.405a1.584,1.584,0,0,0-1.646,1.643v3.286Zm1.646,8.214a1.584,1.584,0,0,0-1.646,1.643v3.286a1.583,1.583,0,0,0,1.646,1.643H68.629a1.583,1.583,0,0,0,1.647-1.643V58.18a1.584,1.584,0,0,0-1.647-1.643H32.405Zm0,13.143a1.583,1.583,0,0,0-1.646,1.643v3.286a1.584,1.584,0,0,0,1.646,1.643H68.629a1.584,1.584,0,0,0,1.647-1.643V71.323a1.583,1.583,0,0,0-1.647-1.643H32.405Z"/>
</svg>
