<?xml version="1.0" encoding="utf-8"?>
<svg xmlns="http://www.w3.org/2000/svg"
	xmlns:xlink="http://www.w3.org/1999/xlink"
	width="17px" height="17px" viewBox="0 0 17 17">
<path fillRule="evenodd" d="M 9.49 0.42C 5.73 0.42 2.67 3.48 2.67 7.24 2.67 8.88 3.25 10.38 4.21 11.56 4.21 11.56 0.34 15.43 0.34 15.43 0.34 15.43 1.3 16.4 1.3 16.4 1.3 16.4 5.18 12.52 5.18 12.52 6.35 13.49 7.86 14.07 9.49 14.07 13.26 14.07 16.32 11 16.32 7.24 16.32 3.48 13.26 0.42 9.49 0.42ZM 9.49 12.7C 6.48 12.7 4.03 10.25 4.03 7.24 4.03 4.23 6.48 1.78 9.49 1.78 12.5 1.78 14.95 4.23 14.95 7.24 14.95 10.25 12.5 12.7 9.49 12.7Z" fill="rgb(0,62,113)"/></svg>