<?xml version="1.0" encoding="utf-8"?>
<!-- Generator: Adobe Illustrator 19.2.1, SVG Export Plug-In . SVG Version: 6.00 Build 0)  -->
<!DOCTYPE svg PUBLIC "-//W3C//DTD SVG 1.1//EN" "http://www.w3.org/Graphics/SVG/1.1/DTD/svg11.dtd">
<svg version="1.1" id="Layer_1" xmlns="http://www.w3.org/2000/svg" xmlns:xlink="http://www.w3.org/1999/xlink" x="0px" y="0px"
	 width="16px" height="16px" viewBox="0 0 16 16" style="enable-background:new 0 0 16 16;" xml:space="preserve">
<g>
	<path id="XMLID_6875_" class="system-linux-icon" d="M8.9,12c-1.3,0-2.5,0.3-3.3,0.3c-1-0.1-1.7-0.5-2.1-0.7c-0.2-0.1-0.5-0.1-0.6,0.1
		S2.8,12.1,3,12.3c0.5,0.4,1.5,0.6,2.5,0.7c0.2,0,0.4,0,0.6,0c0.9,0,2-0.1,3.2-0.6c0.2-0.1,0.3-0.1,0.2-0.4C9.4,11.8,9.1,11,8.9,12
		L8.9,12z M14,10.8C14,6.9,14.4-0.6,6.9,0c-7.5,0.6-5.5,8.5-5.6,11.1C1.1,12.6,0.7,14.3,0,16h2c0.2-0.7,0.4-1.5,0.4-2.2
		c0.1,0.1,0.3,0.2,0.4,0.2c0.2,0.1,0.4,0.3,0.6,0.5c0.5,0.4,1,0.9,2.1,1c0.1,0,0.1,0,0.2,0c1.1,0,1.8-0.5,2.4-0.9
		c0.3-0.2,0.5-0.3,0.8-0.4c0.7-0.2,1.2-0.5,1.7-1c0.1-0.1,0.1-0.1,0.2-0.2C11,14,11.3,15,11.7,16H16C15,14,14,12.8,14,10.8L14,10.8z
		 M2,8.7L2,8.7c0-1.3,0.5-2.4,1.4-2.4c0.8,0,1.6,1,1.6,2.2v0c0,0.1,0,0.1,0,0.2C4.7,8.8,4.5,8.9,4.3,9c0,0,0,0,0,0l0,0
		C4.2,8.2,3.8,7.7,3.4,7.7C3,7.8,2.7,8.4,2.8,9.1l0,0C2.8,9.5,2.9,9.8,3,10c0,0-0.1,0.1-0.2,0.2c-0.1,0.1-0.1,0.1-0.3,0.2
		C2.2,9.9,2,9.4,2,8.7L2,8.7z M10.4,12c0,1-0.9,1.3-1.7,1.5l0,0c-0.3,0.1-0.6,0.3-1,0.5c-0.5,0.3-1.1,0.7-1.9,0.7
		c-0.1,0-0.1,0-0.2,0c-0.7,0-1.1-0.4-1.5-0.8c-0.2-0.2-0.5-0.4-0.8-0.6l0,0c-0.7-0.4-1.1-0.8-1.1-1.3c0-0.2,0.1-0.4,0.3-0.5
		c0.4-0.3,0.7-0.5,0.9-0.7c0.2-0.2,0.3-0.2,0.3-0.2c0,0,0.1-0.1,0.1-0.1c0.4-0.4,1-1,2-1c0.6,0,1.3,0.2,2,0.7c0.3,0.2,0.6,0.3,1,0.4
		C9,10.8,9.2,10.9,9.6,11l0,0.1C10,11.2,10.4,11,10.4,12L10.4,12z M10.2,10c-0.1,0-0.1,0.1-0.2,0C9.6,9.9,9.4,9.9,9.1,9.8
		c0.1-0.2,0.2-0.5,0.2-0.9l0,0c0-0.8-0.6-1.5-1.1-1.5C7.7,7.5,7,8.1,7,9l0,0C7,9,7,9,7,9c0-0.1-0.7-0.3-1-0.3c0,0,0-0.1,0-0.1v0
		c0-1.5,1.3-2.7,2.4-2.8C9.6,5.8,11,7,11,8.5v0C11,9.2,10.5,10,10.2,10L10.2,10z"/>
</g>
</svg>
