<?xml version="1.0" encoding="utf-8"?>
<!-- Generator: Avocode 2.6.0 - http://avocode.com -->
<svg height="16" width="29" xmlns:xlink="http://www.w3.org/1999/xlink" xmlns="http://www.w3.org/2000/svg" viewBox="0 0 29 16">
    <path opacity="0.7" fill-rule="evenodd" d="M 21 16 C 21 16 21 12 21 12 C 21 12 29 12 29 12 C 29 12 29 16 29 16 C 29 16 21 16 21 16 Z M 21 6 C 21 6 29 6 29 6 C 29 6 29 10 29 10 C 29 10 21 10 21 10 C 21 10 21 6 21 6 Z M 0 0 C 0 0 29 0 29 0 C 29 0 29 4 29 4 C 29 4 0 4 0 4 C 0 4 0 0 0 0 Z M 8 10 C 8 10 0 10 0 10 C 0 10 0 6 0 6 C 0 6 8 6 8 6 C 8 6 8 10 8 10 Z M 8 16 C 8 16 0 16 0 16 C 0 16 0 12 0 12 C 0 12 8 12 8 12 C 8 12 8 16 8 16 Z M 19 10 C 19 10 10 10 10 10 C 10 10 10 6 10 6 C 10 6 19 6 19 6 C 19 6 19 10 19 10 Z M 19 16 C 19 16 10 16 10 16 C 10 16 10 12 10 12 C 10 12 19 12 19 12 C 19 12 19 16 19 16 Z" />
</svg>
