<?xml version="1.0" encoding="utf-8"?>
<!-- Generator: Avocode 2.6.0 - http://avocode.com -->
<svg height="26" width="40" xmlns:xlink="http://www.w3.org/1999/xlink" xmlns="http://www.w3.org/2000/svg" viewBox="0 0 40 26">
    <path fill-rule="evenodd" d="M 38.14 20 C 38.14 20 24.13 20 24.13 20 C 23.47 18.87 22.62 17.85 21.63 17 C 21.63 17 36 17 36 17 C 36 17 36 4 36 4 C 36 4 18.4 4 18.4 4 C 17.53 1.8 15.39 0.25 12.89 0.25 C 12.5 0.25 12.13 0.29 11.77 0.36 C 12.08 0.13 12.45 0 12.86 0 C 12.86 0 38.14 0 38.14 0 C 39.17 0 40 0.83 40 1.86 C 40 1.86 40 18.14 40 18.14 C 40 19.17 39.17 20 38.14 20 Z M 16.75 7.39 C 16.75 10.47 14.25 12.97 11.17 12.97 C 8.08 12.97 5.58 10.47 5.58 7.39 C 5.58 4.3 7.92 2 11 2 C 14.08 2 16.75 4.3 16.75 7.39 Z M 22 26 C 22 26 21 26 21 26 C 21 26 0 26 0 26 C 0 19.83 5 14.83 11.17 14.83 C 17.33 14.83 22 19.83 22 26 Z M 28.57 24 C 28.57 24 36 24 36 24 C 36 24 36 26 36 26 C 36 26 26.55 26 26.55 26 C 26.55 26 24.77 26 24.77 26 C 24.77 24.59 24.5 23.25 24.04 22 C 24.04 22 26.71 22 26.71 22 C 26.71 22 28.57 24 28.57 24 Z" />
</svg>
