<?xml version="1.0" encoding="utf-8"?>
<!-- Generator: Avocode 2.6.0 - http://avocode.com -->
<svg height="32" width="25" xmlns:xlink="http://www.w3.org/1999/xlink" xmlns="http://www.w3.org/2000/svg" viewBox="0 0 25 32">
    <path fill-rule="evenodd" d="M 25 12.38 C 25 9.08 23.7 5.97 21.34 3.63 C 18.98 1.29 15.84 0 12.5 0 C 9.16 0 6.02 1.29 3.66 3.63 C 1.3 5.97 0 9.08 0 12.38 C 0 13.64 0.19 14.88 0.56 16.05 C 0.21 16.82 0 17.62 0 18.53 C 0 21.95 2.8 24.67 6.25 24.67 C 6.25 24.67 8 25 8 25 C 8 25 8 13 8 13 C 8 13 6.25 12.66 6.25 12.66 C 5.12 12.66 4.08 12.84 3.17 13.36 C 3.14 13.08 3.13 12.74 3.13 12.45 C 3.13 9.98 4.1 7.61 5.87 5.85 C 7.64 4.1 10 3.11 12.5 3.11 C 15 3.11 17.36 4.07 19.13 5.82 C 20.9 7.58 21.88 9.91 21.88 12.39 C 21.88 12.67 21.86 13.09 21.83 13.36 C 20.92 12.85 19.88 12.66 18.75 12.66 C 18.75 12.66 17 13 17 13 C 17 13 17 25 17 25 C 17 25 18.75 24.67 18.75 24.67 C 19.03 24.67 19.29 24.67 19.56 24.64 C 19.6 25.74 19.47 27.2 18.72 28.4 C 18.06 29.46 17 30.16 15.55 30.48 C 15.55 30.48 15.89 32 15.89 32 C 17.76 31.59 19.16 30.66 20.05 29.24 C 21.08 27.59 21.19 25.65 21.1 24.3 C 23.39 23.38 25 21.17 25 18.58 C 25 17.67 24.79 16.82 24.44 16.05 C 24.81 14.88 25 13.64 25 12.38 Z" />
</svg>
