<?xml version="1.0" encoding="utf-8"?>
<!-- Generator: Avocode 2.6.0 - http://avocode.com -->
<svg height="33" width="33" xmlns:xlink="http://www.w3.org/1999/xlink" xmlns="http://www.w3.org/2000/svg" viewBox="0 0 33 33">
    <path fill-rule="evenodd" d="M 16.5 32.43 C 7.68 32.43 0.51 25.26 0.51 16.44 C 0.51 7.63 7.68 0.45 16.5 0.45 C 25.32 0.45 32.49 7.63 32.49 16.44 C 32.49 25.26 25.32 32.43 16.5 32.43 Z M 16.5 2.68 C 8.91 2.68 2.73 8.85 2.73 16.44 C 2.73 19.52 3.76 22.35 5.47 24.64 C 5.47 24.64 25.05 5.68 25.05 5.68 C 22.7 3.8 19.73 2.68 16.5 2.68 Z M 27.31 7.94 C 27.31 7.94 7.65 26.97 7.65 26.97 C 10.05 28.99 13.13 30.21 16.5 30.21 C 24.09 30.21 30.26 24.03 30.26 16.44 C 30.26 13.23 29.15 10.29 27.31 7.94 Z M 18.5 17.94 C 22.14 18.84 24.84 21.59 24.84 26.04 C 24.84 26.04 10.4 26.04 10.4 26.04 C 10.4 26.04 18.5 17.94 18.5 17.94 Z M 15.39 7.4 C 17.04 7.4 18.45 8.37 19.13 9.76 C 19.13 9.76 13.57 15.32 13.57 15.32 C 12.18 14.64 11.22 13.23 11.22 11.58 C 11.22 9.27 13.08 7.4 15.39 7.4 Z" />
</svg>
