<?xml version="1.0" encoding="utf-8"?>
<!-- Generator: Avocode 2.6.0 - http://avocode.com -->
<svg height="33" width="24" xmlns:xlink="http://www.w3.org/1999/xlink" xmlns="http://www.w3.org/2000/svg" viewBox="0 0 24 33">
    <path fill-rule="evenodd" d="M 18.18 24.98 C 19.05 22.27 18.69 19.39 17.35 17.02 C 17.35 17.02 20.79 9.64 20.79 9.64 C 20.79 9.64 22.28 10.33 22.28 10.33 C 22.28 10.33 23.8 7.06 23.8 7.06 C 23.8 7.06 10.32 0.8 10.32 0.8 C 10.32 0.8 8.79 4.07 8.79 4.07 C 8.79 4.07 10.28 4.76 10.28 4.76 C 10.28 4.76 6.83 12.14 6.83 12.14 C 4.16 12.64 1.72 14.22 0.19 16.63 C 0.19 16.63 8.24 20.37 8.24 20.37 C 8.24 20.37 3.41 30.72 3.41 30.72 C 3 31.59 3.1 32.5 3.62 32.74 C 4.15 32.99 4.91 32.48 5.31 31.61 C 5.31 31.61 10.14 21.25 10.14 21.25 C 10.14 21.25 18.18 24.98 18.18 24.98 Z" />
</svg>
