<?xml version="1.0" encoding="utf-8"?>
<!-- Generator: Adobe Illustrator 19.1.0, SVG Export Plug-In . SVG Version: 6.00 Build 0)  -->
<!DOCTYPE svg PUBLIC "-//W3C//DTD SVG 1.1//EN" "http://www.w3.org/Graphics/SVG/1.1/DTD/svg11.dtd">
<svg version="1.1" id="Layer_1" xmlns="http://www.w3.org/2000/svg" xmlns:xlink="http://www.w3.org/1999/xlink" x="0px" y="0px"
	 width="24px" height="24px" viewBox="-467 269 24 24" style="enable-background:new -467 269 24 24;" xml:space="preserve">
<path d="M-444,280l-5,0c-0.5,0-1,0.5-1,1v9c0,0.5,0.5,1,1,1h5c0.5,0,1-0.5,1-1v-9C-443,280.5-443.5,280-444,280z M-444,289h-5v-7h5
	V289z M-447,271h-18c-1.1,0-2,0.9-2,2v12c0,1.1,0.9,2,2,2h7v2h-2v2h8v-2h-2v-2h2v-2h-13v-12h18v5h2v-5C-445,271.9-445.9,271-447,271
	z"/>
</svg>
