<?xml version="1.0" encoding="utf-8"?>
<!-- Generator: Avocode 2.6.0 - http://avocode.com -->
<svg height="20" width="16" xmlns:xlink="http://www.w3.org/1999/xlink" xmlns="http://www.w3.org/2000/svg" viewBox="0 0 16 20">
    <path fill-rule="evenodd" d="M 14.93 6 C 12.73 2.19 7.81 0.87 4 3.07 C 4 3.07 2.67 0.76 2.67 0.76 C 2.67 0.76 0.05 6.89 0.05 6.89 C 0.05 6.89 6.67 7.69 6.67 7.69 C 6.67 7.69 5.33 5.38 5.33 5.38 C 7.9 3.9 11.14 4.77 12.62 7.33 C 12.62 7.33 14.93 6 14.93 6 Z M 15.95 13.11 C 15.95 13.11 9.33 12.31 9.33 12.31 C 9.33 12.31 10.67 14.62 10.67 14.62 C 8.1 16.1 4.86 15.23 3.38 12.67 C 3.38 12.67 1.07 14 1.07 14 C 3.27 17.81 8.19 19.13 12 16.93 C 12 16.93 13.33 19.24 13.33 19.24 C 13.33 19.24 15.95 13.11 15.95 13.11 Z" />
</svg>
