<?xml version="1.0" encoding="utf-8"?>
<!-- Generator: Adobe Illustrator 19.1.0, SVG Export Plug-In . SVG Version: 6.00 Build 0)  -->
<!DOCTYPE svg PUBLIC "-//W3C//DTD SVG 1.1//EN" "http://www.w3.org/Graphics/SVG/1.1/DTD/svg11.dtd">
<svg version="1.1" xmlns="http://www.w3.org/2000/svg" xmlns:xlink="http://www.w3.org/1999/xlink" x="0px" y="0px" width="73.4px"
	 height="98.5px" viewBox="0 0 73.4 98.5" style="enable-background:new 0 0 73.4 98.5;" xml:space="preserve">
<!--<style type="text/css">-->
	<!--.st0{display:none;}-->
<!--</style>-->
<!--<g id="Layer_1" class="st0">-->
	<!---->
		<!--<image style="display:inline;overflow:visible;" width="600" height="600" xlink:href="6F5A3B03.jpg"  transform="matrix(1 0 0 1 -378.3164 -297.5535)">-->
	<!--</image>-->
<!--</g>-->
<g id="Layer_2">
	<path d="M56,74.3c-0.7-0.3-1-0.6-1.2-1.5c-0.5-2.9-1.6-5.4-4.2-7c-0.2-0.1-0.4-0.4-0.4-0.6c-0.1-1.1-0.2-2.1-0.3-3.2
		c4.7-1,9.3-2,13.1-5.2c-1.5-1.3-2.2-3.1-2.5-4.9c-0.5-2.9-1-5.8-1.3-8.7c-0.5-4.2-0.7-8.5-1.2-12.7c-0.6-4.8-1.8-9.4-4.1-13.7
		c-3.6-6.6-8.6-10.6-16.6-10.6c-6,0-10.6,2.4-14.2,7c-3.1,4-4.6,8.7-5.7,13.5c-1.5,6.5-1.4,13.2-2.3,19.8c-0.5,3.6-0.8,7.2-3.4,10.2
		c1.4,1.2,3.8,2.5,5.4,3.2l2.2-6.3l-1,6.7l1.3,0.5c1.7,0.5,3.4,0.9,5.2,1.2c-0.1,1.1-0.2,2-0.3,3c0,0.3-0.2,0.6-0.4,0.7
		c-2.7,1.7-3.8,4.3-4.3,7.3c-0.1,0.6-0.4,0.9-0.9,1.1c-4.6,2.1-9.2,4.2-13.8,6.4c8.5,8.1,19.9,13.1,32.6,13.1
		c12.5,0,23.9-4.9,32.3-12.9C65.2,78.7,60.6,76.5,56,74.3z"/>
</g>
</svg>
