<?xml version="1.0" encoding="utf-8"?>
<!-- Generator: Avocode 2.6.0 - http://avocode.com -->
<svg height="33" width="37" xmlns:xlink="http://www.w3.org/1999/xlink" xmlns="http://www.w3.org/2000/svg" viewBox="0 0 37 33">
    <path fill-rule="evenodd" d="M 30 30 C 30 30 30.28 25.17 30.28 25.17 C 30.28 23.39 29.45 21.77 28.34 20.57 C 29.22 20.12 29.72 19.84 30.75 19.84 C 34.19 19.84 36.71 22.72 36.71 26.27 C 36.71 26.27 37 30 37 30 C 37 30 30 30 30 30 Z M 32.04 18.23 C 29.88 18.23 28.14 16.43 28.14 14.22 C 28.14 12 29.88 10.2 32.04 10.2 C 34.19 10.2 35.94 12 35.94 14.22 C 35.94 16.43 34.19 18.23 32.04 18.23 Z M 18.5 16.25 C 14.36 16.25 11 12.79 11 8.53 C 11 4.26 14.36 0.8 18.5 0.8 C 22.64 0.8 26 4.26 26 8.53 C 26 12.79 22.64 16.25 18.5 16.25 Z M 23 19 C 26.01 19 28.14 22.08 28.14 25.17 C 28.14 25.17 28 33 28 33 C 28 33 9 33 9 33 C 9 33 8.86 25.17 8.86 25.17 C 8.86 22.08 11.99 19 15 19 C 15 19 23 19 23 19 Z M 5.75 18.23 C 3.59 18.23 1.85 16.43 1.85 14.22 C 1.85 12 3.59 10.2 5.75 10.2 C 7.9 10.2 9.65 12 9.65 14.22 C 9.65 16.43 7.9 18.23 5.75 18.23 Z M 6.45 19.84 C 7.47 19.84 8.18 20.12 9.05 20.57 C 7.94 21.77 6.72 23.39 6.72 25.17 C 6.72 25.17 7 30 7 30 C 7 30 0 30 0 30 C 0 30 0.29 26.27 0.29 26.27 C 0.29 22.72 3 19.84 6.45 19.84 Z" />
</svg>
