<?xml version="1.0" encoding="utf-8"?>
<svg height="36" width="33" xmlns:xlink="http://www.w3.org/1999/xlink" xmlns="http://www.w3.org/2000/svg" viewBox="0 0 33 36">
    <path fill-rule="evenodd" d="M 31.89 36 C 31.89 36 30.88 36 30.88 36 C 30.88 36 30.88 35 30.88 35 C 30.88 34.68 30.87 34.37 30.85 34.06 C 30.85 34.06 30.88 34.06 30.88 34.06 C 30.88 34.06 30.88 34 30.88 34 C 30.88 34 31.86 34 31.86 34 C 31.86 34 32.87 33.93 32.87 33.93 C 32.89 34.28 32.9 34.64 32.9 35 C 32.9 35.55 32.45 36 31.89 36 Z M 30.13 30.52 C 30.13 30.52 32.04 29.88 32.04 29.88 C 32.27 30.52 32.45 31.19 32.59 31.86 C 32.59 31.86 30.6 32.26 30.6 32.26 C 30.48 31.67 30.32 31.09 30.13 30.52 Z M 28.51 27.32 C 28.51 27.32 30.19 26.2 30.19 26.2 C 30.58 26.76 30.93 27.36 31.24 27.98 C 31.24 27.98 29.42 28.87 29.42 28.87 C 29.15 28.33 28.85 27.81 28.51 27.32 Z M 26.1 24.62 C 26.1 24.62 27.44 23.11 27.44 23.11 C 27.96 23.56 28.45 24.05 28.91 24.57 C 28.91 24.57 27.39 25.89 27.39 25.89 C 26.99 25.44 26.56 25.01 26.1 24.62 Z M 23.07 22.63 C 23.07 22.63 23.97 20.83 23.97 20.83 C 24.59 21.13 25.2 21.48 25.78 21.86 C 25.78 21.86 24.65 23.53 24.65 23.53 C 24.15 23.2 23.62 22.89 23.07 22.63 Z M 23.16 9.79 C 23.31 9.23 23.39 8.98 23.39 7.98 C 23.39 7.98 25.42 7.98 25.42 7.98 C 25.42 8.98 25.31 9.69 25.11 10.42 C 25.11 10.42 23.16 9.79 23.16 9.79 Z M 22.8 5.71 C 22.8 5.71 24.65 4.87 24.65 4.87 C 24.97 5.56 25.19 6.29 25.31 7.04 C 25.31 7.04 23.31 7.35 23.31 7.35 C 23.22 6.78 23.05 6.23 22.8 5.71 Z M 20.62 3.13 C 20.62 3.13 21.78 1.48 21.78 1.48 C 22.41 1.92 22.98 2.43 23.47 3.02 C 23.47 3.02 21.91 4.29 21.91 4.29 C 21.53 3.85 21.1 3.46 20.62 3.13 Z M 18.9 16.53 C 18.9 16.53 18.43 14.58 18.43 14.58 C 19 14.45 19.55 14.24 20.06 13.96 C 20.06 13.96 21.04 15.7 21.04 15.7 C 20.37 16.07 19.65 16.35 18.9 16.53 Z M 17.42 2 C 17.42 2 17.57 0 17.57 0 C 18.34 0.06 19.09 0.22 19.81 0.48 C 19.81 0.48 19.12 2.36 19.12 2.36 C 18.57 2.16 18 2.04 17.42 2 Z M 14.44 16.39 C 14.44 16.39 15.03 14.48 15.03 14.48 C 15.58 14.65 16.16 14.74 16.75 14.75 C 16.75 14.75 16.7 16.75 16.7 16.75 C 15.93 16.73 15.17 16.61 14.44 16.39 Z M 13.18 0.83 C 13.87 0.5 14.6 0.26 15.36 0.12 C 15.36 0.12 15.73 2.09 15.73 2.09 C 15.15 2.19 14.6 2.37 14.07 2.63 C 14.07 2.63 13.18 0.83 13.18 0.83 Z M 11.51 4.85 C 11.51 4.85 9.82 3.75 9.82 3.75 C 10.25 3.11 10.75 2.54 11.33 2.04 C 11.33 2.04 12.67 3.55 12.67 3.55 C 12.22 3.93 11.84 4.37 11.51 4.85 Z M 10.45 8.04 C 10.45 8.04 8.43 7.94 8.43 7.94 C 8.47 7.18 8.61 6.43 8.85 5.71 C 8.85 5.71 10.78 6.34 10.78 6.34 C 10.59 6.89 10.48 7.46 10.45 8.04 Z M 10.75 22.63 C 10.2 22.9 9.68 23.2 9.17 23.53 C 9.17 23.53 8.05 21.87 8.05 21.87 C 8.62 21.49 9.23 21.14 9.85 20.84 C 9.85 20.84 10.75 22.63 10.75 22.63 Z M 4.91 24.58 C 5.37 24.07 5.87 23.58 6.39 23.12 C 6.39 23.12 7.73 24.63 7.73 24.63 C 7.27 25.02 6.83 25.45 6.44 25.9 C 6.44 25.9 4.91 24.58 4.91 24.58 Z M 4.41 28.88 C 4.41 28.88 2.59 27.99 2.59 27.99 C 2.9 27.38 3.25 26.78 3.64 26.21 C 3.64 26.21 5.32 27.33 5.32 27.33 C 4.98 27.82 4.68 28.35 4.41 28.88 Z M 3.23 32.28 C 3.23 32.28 1.24 31.89 1.24 31.89 C 1.38 31.21 1.56 30.54 1.79 29.89 C 1.79 29.89 3.7 30.54 3.7 30.54 C 3.51 31.11 3.35 31.69 3.23 32.28 Z M 2.96 34 C 2.96 34 2.99 34.06 2.99 34.06 C 2.97 34.37 2.96 34.68 2.96 35 C 2.96 35 2.96 36 2.96 36 C 2.96 36 1.94 36 1.94 36 C 1.39 36 0.93 35.55 0.93 35 C 0.93 34.64 0.94 34.28 0.97 33.93 C 0.97 33.93 1.98 34 1.98 34 C 1.98 34 2.96 34 2.96 34 Z M 7.25 36 C 7.25 36 5.11 36 5.11 36 C 5.11 36 5.11 34 5.11 34 C 5.11 34 7.25 34 7.25 34 C 7.25 34 7.25 36 7.25 36 Z M 11.55 36 C 11.55 36 9.4 36 9.4 36 C 9.4 36 9.4 34 9.4 34 C 9.4 34 11.55 34 11.55 34 C 11.55 34 11.55 36 11.55 36 Z M 8.6 10.12 C 8.6 10.12 10.59 9.7 10.59 9.7 C 10.71 10.26 10.91 10.81 11.18 11.32 C 11.18 11.32 9.38 12.25 9.38 12.25 C 9.02 11.58 8.76 10.86 8.6 10.12 Z M 13.49 13.79 C 13.49 13.79 12.42 15.49 12.42 15.49 C 11.77 15.08 11.17 14.6 10.65 14.04 C 10.65 14.04 12.15 12.68 12.15 12.68 C 12.54 13.11 13 13.48 13.49 13.79 Z M 14.19 21.48 C 13.6 21.6 13 21.76 12.43 21.95 C 12.43 21.95 11.78 20.05 11.78 20.05 C 12.44 19.83 13.12 19.65 13.8 19.52 C 13.8 19.52 14.19 21.48 14.19 21.48 Z M 15.84 36 C 15.84 36 13.7 36 13.7 36 C 13.7 36 13.7 34 13.7 34 C 13.7 34 15.84 34 15.84 34 C 15.84 34 15.84 36 15.84 36 Z M 17.82 21.25 C 17.22 21.21 16.6 21.21 16 21.25 C 16 21.25 15.86 19.25 15.86 19.25 C 16.55 19.21 17.26 19.21 17.95 19.25 C 17.95 19.25 17.82 21.25 17.82 21.25 Z M 20.14 36 C 20.14 36 17.99 36 17.99 36 C 17.99 36 17.99 34 17.99 34 C 17.99 34 20.14 34 20.14 34 C 20.14 34 20.14 36 20.14 36 Z M 20.02 19.52 C 20.7 19.65 21.38 19.83 22.04 20.05 C 22.04 20.05 21.39 21.94 21.39 21.94 C 20.81 21.75 20.22 21.6 19.63 21.48 C 19.63 21.48 20.02 19.52 20.02 19.52 Z M 22.5 11.61 C 22.5 11.61 24.24 12.63 24.24 12.63 C 23.85 13.28 23.38 13.88 22.82 14.4 C 22.82 14.4 21.41 12.96 21.41 12.96 C 21.83 12.56 22.2 12.1 22.5 11.61 Z M 24.43 36 C 24.43 36 22.29 36 22.29 36 C 22.29 36 22.29 34 22.29 34 C 22.29 34 24.43 34 24.43 34 C 24.43 34 24.43 36 24.43 36 Z M 28.73 36 C 28.73 36 26.58 36 26.58 36 C 26.58 36 26.58 34 26.58 34 C 26.58 34 28.73 34 28.73 34 C 28.73 34 28.73 36 28.73 36 Z" />
</svg>
