<?xml version="1.0" encoding="utf-8"?>
<!-- Generator: Avocode 2.6.0 - http://avocode.com -->
<svg height="12" width="16" xmlns:xlink="http://www.w3.org/1999/xlink" xmlns="http://www.w3.org/2000/svg" viewBox="0 0 16 12">
    <path fill-rule="evenodd" d="M 15.79 6.5 C 15.59 6.7 12.6 12 7.93 12 C 3.26 12 0.27 6.7 0.07 6.5 C -0.02 6.2 -0.02 5.8 0.07 5.5 C 0.27 5.3 3.16 0 7.93 0 C 12.6 0 15.59 5.3 15.79 5.5 C 15.99 5.8 15.99 6.2 15.79 6.5 Z M 7.93 2 C 5.05 2 2.96 4.8 2.16 6 C 2.96 7.2 5.15 10 7.93 10 C 10.71 10 12.9 7.2 13.7 6 C 12.9 4.8 10.71 2 7.93 2 Z M 7.93 8 C 6.83 8 5.94 7.11 5.94 6 C 5.94 4.89 6.83 4 7.93 4 C 9.03 4 9.92 4.89 9.92 6 C 9.92 7.11 9.03 8 7.93 8 Z" />
</svg>
