<?xml version="1.0" standalone="no"?>
<!DOCTYPE svg PUBLIC "-//W3C//DTD SVG 1.1//EN" "http://www.w3.org/Graphics/SVG/1.1/DTD/svg11.dtd" >
<svg xmlns="http://www.w3.org/2000/svg">
<metadata>Generated by IcoMoon</metadata>
<defs>
<font id="nw-icon-library-all-v8" horiz-adv-x="1024">
<font-face units-per-em="1024" ascent="960" descent="-64" />
<missing-glyph horiz-adv-x="1024" />
<glyph unicode="&#x20;" horiz-adv-x="512" d="" />
<glyph unicode="&#xe900;" glyph-name="account-circle-1-filled" d="M512 960c-282.325 0-512-229.675-512-512 0-135.68 52.565-263.552 148.011-360.021l0.043-0.043c96.981-97.963 226.219-151.936 363.947-151.936 137.984 0 267.435 54.187 364.459 152.448 95.147 96.469 147.541 224.128 147.541 359.552 0 282.325-229.675 512-512 512zM857.387 131.072c-45.013 26.709-220.373 90.283-238.72 97.067v78.848c21.419 13.184 59.051 47.232 63.573 125.227 16.469 9.643 26.88 31.019 26.88 58.453 0 24.661-8.405 44.501-22.187 55.211 10.325 32.299 29.056 91.52 16.427 141.952-14.805 59.179-95.104 80.171-159.36 80.171-57.259 0-127.232-16.683-152.277-62.123-30.037 1.451-46.763-11.648-55.040-22.656-27.093-35.755-9.216-101.035 0.853-136.96-14.037-10.624-22.656-30.635-22.656-55.595 0-27.435 10.411-48.811 26.88-58.453 4.523-77.995 42.197-112.043 63.573-125.227v-78.848c-16.427-6.144-190.464-69.333-238.208-97.621-80.085 86.869-124.459 198.784-124.459 317.483 0 258.773 210.56 469.333 469.333 469.333s469.333-210.56 469.333-469.333c0-118.4-44.16-230.144-123.947-316.928z" />
<glyph unicode="&#xe901;" glyph-name="account-group-5-filled" d="M-213.333 1049.6h1109.333v-1237.333h-1109.333zM384 921.6h853.333v-1113.6h-853.333z" />
<glyph unicode="&#xe902;" glyph-name="add-1-filled" d="M981.333 490.667h-426.667v426.624c0 23.595-18.176 42.709-41.771 42.709v0c-23.595 0-42.667-19.072-42.667-42.624l-0.384-426.709h-427.179c-23.595 0-42.667-19.072-42.667-42.667 0-23.552 19.072-42.667 42.667-42.667h427.093l-0.427-426.624c-0.043-23.552 19.029-42.667 42.581-42.709h0.043c23.552 0 42.667 19.072 42.709 42.624v426.709h426.667c23.552 0 42.667 19.115 42.667 42.667 0 23.595-19.115 42.667-42.667 42.667z" />
<glyph unicode="&#xe903;" glyph-name="add-circle-1-filled" d="M490.667 960c-271.019 0-490.667-219.648-490.667-490.667s219.648-490.667 490.667-490.667c271.019 0 490.667 219.648 490.667 490.667s-219.648 490.667-490.667 490.667zM746.667 448h-234.667v-234.667c0-11.776-9.557-21.333-21.333-21.333s-21.333 9.557-21.333 21.333v234.667h-234.667c-11.776 0-21.333 9.557-21.333 21.333s9.557 21.333 21.333 21.333h234.667v234.667c0 11.776 9.557 21.333 21.333 21.333s21.333-9.557 21.333-21.333v-234.667h234.667c11.776 0 21.333-9.557 21.333-21.333s-9.557-21.333-21.333-21.333z" />
<glyph unicode="&#xe904;" glyph-name="alarm-check-filled" d="M483.2 34.389c-4.053 5.205-10.283 8.277-16.896 8.277h-164.608c-6.613 0-12.843-3.072-16.853-8.277-4.053-5.205-5.419-12.032-3.755-18.389 12.117-47.104 54.443-80 102.912-80 48.427 0 90.752 32.896 102.955 80 1.664 6.357 0.256 13.184-3.755 18.389zM746.667 896c-152.917 0-277.333-124.416-277.333-277.333s124.416-277.333 277.333-277.333c152.917 0 277.333 124.416 277.333 277.333s-124.416 277.333-277.333 277.333zM921.472 686.976l-174.763-185.899c-3.925-4.181-9.344-6.571-15.061-6.741-0.128 0-0.299 0-0.469 0-5.547 0-10.88 2.133-14.848 6.016l-124.8 121.173c-8.448 8.192-8.661 21.717-0.469 30.165s21.717 8.661 30.165 0.427l109.269-106.027 159.915 170.112c8.021 8.619 21.589 9.003 30.123 0.939 8.576-8.107 9.003-21.632 0.939-30.165zM746.667 128c-35.285 0-64 28.715-64 64v113.109c-145.877 29.739-256 159.019-256 313.557 0 45.611 9.771 89.003 27.051 128.341-20.096 13.141-43.947 20.992-69.717 20.992-65.792 0-120.107-49.877-127.232-113.749-104.576-49.195-171.435-153.813-171.435-270.251v-192c0-35.285-28.715-64-64-64-11.776 0-21.333-9.557-21.333-21.333s9.557-21.333 21.333-21.333h725.333c11.776 0 21.333 9.557 21.333 21.333s-9.557 21.333-21.333 21.333z" />
<glyph unicode="&#xe905;" glyph-name="alarm-close-filled" d="M483.2 34.389c-4.053 5.205-10.283 8.277-16.896 8.277h-164.608c-6.613 0-12.843-3.072-16.853-8.277-4.053-5.205-5.419-12.032-3.755-18.389 12.117-47.104 54.443-80 102.912-80 48.427 0 90.752 32.896 102.955 80 1.664 6.357 0.256 13.184-3.755 18.389zM746.667 128c-35.285 0-64 28.715-64 64v113.109c-145.877 29.739-256 159.019-256 313.557 0 45.611 9.771 89.003 27.051 128.341-20.096 13.141-43.947 20.992-69.717 20.992-65.792 0-120.107-49.877-127.232-113.749-104.576-49.195-171.435-153.813-171.435-270.251v-192c0-35.285-28.715-64-64-64-11.776 0-21.333-9.557-21.333-21.333s9.557-21.333 21.333-21.333h725.333c11.776 0 21.333 9.557 21.333 21.333s-9.557 21.333-21.333 21.333zM746.667 896c-152.917 0-277.333-124.416-277.333-277.333s124.416-277.333 277.333-277.333c152.917 0 277.333 124.416 277.333 277.333s-124.416 277.333-277.333 277.333zM876.971 488.363c-8.32-8.32-21.845-8.32-30.165 0l-100.139 100.139-100.139-100.139c-8.32-8.277-21.845-8.32-30.165 0s-8.32 21.845 0 30.165l100.096 100.139-100.096 100.096c-8.32 8.32-8.32 21.845 0 30.165s21.845 8.32 30.165 0l100.139-100.096 100.096 100.139c8.32 8.32 21.845 8.32 30.208 0 8.32-8.32 8.32-21.845 0-30.165l-100.139-100.139 100.139-100.139c8.277-8.32 8.32-21.803 0-30.165z" />
<glyph unicode="&#xe906;" glyph-name="alarm-filled" d="M1002.667 192c-58.795 0-106.667 47.829-106.667 106.667v192c0 155.349-95.573 296.576-239.061 355.2-16 66.859-75.093 114.133-144.939 114.133-68.779 0-129.024-48.256-145.067-114.133-143.403-58.624-238.933-199.808-238.933-355.2v-192c0-58.837-47.872-106.667-106.667-106.667-11.776 0-21.333-9.557-21.333-21.333s9.557-21.333 21.333-21.333h981.333c11.776 0 21.333 9.557 21.333 21.333s-9.557 21.333-21.333 21.333zM640 106.667h-256c-11.776 0-21.333-9.557-21.333-21.333 0-82.347 66.987-149.333 149.333-149.333s149.333 66.987 149.333 149.333c0 11.776-9.557 21.333-21.333 21.333z" />
<glyph unicode="&#xe907;" glyph-name="alarm-sound-filled" d="M874.667 149.333c-35.285 0-64 28.715-64 64v149.333c0 116.309-66.859 221.013-171.435 270.208-7.125 63.915-61.44 113.792-127.232 113.792s-120.107-49.877-127.232-113.749c-104.576-49.195-171.435-153.813-171.435-270.251v-149.333c0-35.285-28.715-64-64-64-11.776 0-21.333-9.557-21.333-21.333s9.557-21.333 21.333-21.333h725.333c11.776 0 21.333 9.557 21.333 21.333s-9.557 21.333-21.333 21.333zM597.333 64h-170.667c-11.776 0-21.333-9.557-21.333-21.333 0-58.837 47.872-106.667 106.667-106.667s106.667 47.829 106.667 106.667c0 11.776-9.557 21.333-21.333 21.333zM384 832c-141.184 0-256-114.816-256-256 0-11.776 9.557-21.333 21.333-21.333s21.333 9.557 21.333 21.333c0 117.632 95.701 213.333 213.333 213.333 11.776 0 21.333 9.557 21.333 21.333s-9.557 21.333-21.333 21.333zM384 917.333c11.776 0 21.333 9.557 21.333 21.333s-9.557 21.333-21.333 21.333c-211.755 0-384-172.245-384-384 0-11.776 9.557-21.333 21.333-21.333s21.333 9.557 21.333 21.333c0 188.203 153.131 341.333 341.333 341.333zM640 832c-11.776 0-21.333-9.557-21.333-21.333s9.557-21.333 21.333-21.333c117.632 0 213.333-95.701 213.333-213.333 0-11.776 9.557-21.333 21.333-21.333s21.333 9.557 21.333 21.333c0 141.184-114.859 256-256 256zM640 960c-11.776 0-21.333-9.557-21.333-21.333s9.557-21.333 21.333-21.333c188.203 0 341.333-153.131 341.333-341.333 0-11.776 9.557-21.333 21.333-21.333s21.333 9.557 21.333 21.333c0 211.755-172.288 384-384 384z" />
<glyph unicode="&#xe908;" glyph-name="arrow-circle-down-1-filled" d="M512.427 960c-282.325 0-512-229.717-512-512 0-282.325 229.675-512 512-512 282.283 0 512 229.675 512 512 0 282.283-229.717 512-512 512zM847.232 411.563l-319.701-319.701c-4.011-4.011-9.429-6.229-15.104-6.229s-11.093 2.261-15.104 6.229l-319.701 319.701c-6.101 6.101-7.936 15.232-4.608 23.253 3.285 8.021 10.368 13.184 18.987 13.184h192l0.469 319.701c0 5.632 2.261 11.093 6.229 15.104 4.011 3.968 9.429 6.229 15.104 6.229h213.035c11.776 0 21.461-9.387 21.461-21.163l0.128-319.701 191.701-0.171c8.619 0 16.427-5.163 19.712-13.184 3.285-7.979 1.451-17.152-4.608-23.253z" />
<glyph unicode="&#xe909;" glyph-name="arrow-circle-down-2-filled" d="M512 959.829c-282.325 0-512-229.675-512-512s229.675-512 512-512c282.325 0 512 229.675 512 512s-229.717 512-512 512zM846.507 432.768l-319.445-319.445c-4.011-4.011-9.429-6.229-15.061-6.229s-11.093 2.261-15.104 6.229l-319.445 319.445c-4.011 4.011-6.272 9.429-6.272 15.104s2.261 11.093 6.272 15.061l85.205 85.163c8.32 8.32 21.845 8.32 30.165 0l133.973-133.973v353.877c0 11.776 9.557 21.333 21.333 21.333h127.872c11.776 0 21.333-9.557 21.333-21.333v-353.835l133.803 133.931c7.979 8.021 22.144 8.021 30.165 0l85.205-85.163c4.011-4.011 6.229-9.429 6.229-15.061 0-5.717-2.219-11.136-6.229-15.104z" />
<glyph unicode="&#xe90a;" glyph-name="arrow-circle-down-6-filled" d="M512 959.829c-282.325 0-512-229.675-512-512s229.675-512 512-512c282.325 0 512 229.675 512 512s-229.675 512-512 512zM806.272 582.4l-277.333-361.6c-4.053-5.205-10.325-8.32-16.939-8.32s-12.885 3.072-16.939 8.32l-277.333 361.6c-7.168 9.387-5.376 22.784 3.968 29.952 9.387 7.211 22.784 5.376 29.909-3.925l260.395-339.541 260.395 339.541c7.168 9.301 20.565 11.136 29.909 3.925 9.344-7.168 11.136-20.565 3.968-29.952z" />
<glyph unicode="&#xe90b;" glyph-name="arrow-circle-left-1-filled" d="M512.427 960c-282.325 0-512-229.717-512-512 0-282.325 229.675-512 512-512s512 229.675 512 512c0 282.283-229.675 512-512 512zM853.461 341.333c0-5.632-2.261-11.093-6.229-15.104-4.011-3.968-9.429-6.229-15.104-6.229h-319.701v-191.744c0-8.576-5.163-16.427-13.184-19.669-2.603-1.109-5.419-1.664-8.149-1.664-5.504 0-11.008 2.176-15.019 6.229l-319.701 319.744c-8.32 8.32-8.32 21.845 0 30.165l319.701 319.701c6.059 6.101 15.232 7.893 23.211 4.608 8.021-3.328 13.184-11.093 13.184-19.712v-191.829l319.701-0.128c11.776 0 21.333-9.557 21.333-21.333v-213.035z" />
<glyph unicode="&#xe90c;" glyph-name="arrow-circle-left-2-filled" d="M512.427 960.768c-282.325 0-512-229.675-512-511.957s229.675-511.957 512-511.957c282.283 0 512 229.675 512 511.957s-229.717 511.957-512 511.957zM854.571 383.915c0-11.776-9.557-21.333-21.333-21.333h-353.536l132.949-132.949c4.011-4.011 6.272-9.429 6.272-15.104s-2.261-11.093-6.272-15.061l-85.163-85.205c-4.181-4.139-9.643-6.229-15.104-6.229s-10.923 2.133-15.104 6.229l-319.445 319.445c-4.011 4.011-6.272 9.429-6.272 15.104s2.261 11.093 6.272 15.061l319.445 319.445c8.32 8.32 21.845 8.32 30.165 0l85.163-85.205c8.277-8.277 8.32-21.76 0.085-30.080l-133.461-135.040h353.963c11.776 0 21.333-9.557 21.333-21.333v-127.744z" />
<glyph unicode="&#xe90d;" glyph-name="arrow-circle-left-6-filled" d="M512 959.829c-282.325 0-512-229.675-512-512s229.675-512 512-512c282.325 0 512 229.675 512 512s-229.675 512-512 512zM678.315 157.696c-4.224-5.504-10.581-8.363-16.981-8.363-4.523 0-9.045 1.408-12.928 4.395l-362.667 277.163c-5.291 4.011-8.405 10.283-8.405 16.939 0 6.613 3.072 12.928 8.363 16.981l362.667 277.504c9.344 7.125 22.784 5.333 29.909-4.011 7.168-9.344 5.376-22.741-3.968-29.909l-340.523-260.523 340.523-260.224c9.344-7.211 11.136-20.565 4.011-29.952z" />
<glyph unicode="&#xe90e;" glyph-name="arrow-circle-right-1-filled" d="M512.427 960c-282.325 0-512-229.717-512-512 0-282.325 229.675-512 512-512s512 229.675 512 512c0 282.283-229.675 512-512 512zM868.48 432.896l-319.659-319.744c-4.139-4.096-9.6-6.229-15.104-6.229-2.731 0-5.547 0.555-8.149 1.664-8.021 3.243-13.184 11.093-13.184 19.669v191.744h-319.659c-5.632 0-11.093 2.261-15.104 6.229-4.011 4.011-6.229 9.472-6.229 15.104v213.077c0 11.819 9.515 21.589 21.333 21.589h319.701v191.701c0 8.619 5.163 16.384 13.184 19.712 8.021 3.243 17.109 1.493 23.253-4.608l319.659-319.701c8.32-8.363 8.32-21.845-0.043-30.208z" />
<glyph unicode="&#xe90f;" glyph-name="arrow-circle-right-2-filled" d="M512 959.787c-282.325 0-512-229.675-512-511.957 0-282.325 229.675-512 512-512s512 229.675 512 512c0 282.283-229.675 511.957-512 511.957zM846.507 432.768l-319.403-319.445c-4.011-4.011-9.429-6.229-15.104-6.229s-11.093 2.261-15.104 6.229l-85.163 85.163c-8.32 8.32-8.32 21.845 0 30.165l133.931 133.931h-353.664c-5.675 0-11.136 2.261-15.104 6.315-4.011 3.968-6.229 9.429-6.229 15.147l0.683 127.744c0.043 11.691 9.6 21.205 21.333 21.205h353.024l-133.973 134.016c-8.32 8.32-8.32 21.845 0 30.165l85.163 85.163c8.021 8.021 22.187 8.021 30.165 0l319.403-319.403c8.363-8.363 8.363-21.845 0.043-30.165z" />
<glyph unicode="&#xe910;" glyph-name="arrow-circle-right-6-filled" d="M512 959.829c-282.325 0-512-229.675-512-512s229.675-512 512-512c282.325 0 512 229.675 512 512s-229.675 512-512 512zM738.859 430.891l-363.264-277.163c-3.84-2.987-8.405-4.395-12.928-4.395-6.443 0-12.8 2.859-16.981 8.363-7.125 9.387-5.333 22.784 4.011 29.909l341.035 260.224-341.035 260.523c-9.344 7.211-11.136 20.565-4.011 29.952 7.168 9.344 20.565 11.136 29.909 4.011l363.264-277.504c5.291-4.053 8.363-10.325 8.363-16.981 0.043-6.656-3.072-12.928-8.363-16.939z" />
<glyph unicode="&#xe911;" glyph-name="arrow-circle-up-1-filled" d="M512.427 960c-282.325 0-512-229.717-512-512 0-282.325 229.675-512 512-512 282.283 0 512 229.675 512 512 0 282.283-229.717 512-512 512zM851.84 461.141c-3.285-7.936-11.093-13.184-19.712-13.184h-191.829l0.043-319.701c0-5.675-2.261-11.093-6.229-15.104-3.968-3.968-9.387-6.485-15.061-6.485h-213.077c-11.733 0-21.333 9.813-21.333 21.589l-0.128 319.701h-191.787c-8.619 0-16.427 5.205-19.712 13.184-3.328 7.936-1.493 17.152 4.608 23.253l319.701 319.701c8.021 8.021 22.187 8.021 30.165 0l319.701-319.701c6.101-6.101 7.936-15.317 4.651-23.253z" />
<glyph unicode="&#xe912;" glyph-name="arrow-circle-up-2-filled" d="M512 959.829c-282.325 0-512-229.675-512-512s229.675-512 512-512c282.325 0 512 229.675 512 512s-229.717 512-512 512zM846.507 432.768l-85.205-85.205c-4.011-4.011-9.429-6.272-15.104-6.272s-11.093 2.261-15.104 6.272l-133.76 133.888v-353.451c0-11.776-9.557-21.333-21.333-21.333h-127.915c-11.776 0-21.333 9.557-21.333 21.333v353.493l-133.973-133.973c-4.011-4.011-9.429-6.272-15.061-6.272-5.675 0-11.093 2.261-15.104 6.272l-85.205 85.205c-8.32 8.32-8.32 21.845 0 30.165l319.445 319.403c8.32 8.32 21.845 8.32 30.165 0l319.445-319.403c8.363-8.32 8.363-21.803 0.043-30.123z" />
<glyph unicode="&#xe913;" glyph-name="arrow-circle-up-6-filled" d="M512 959.829c-282.325 0-512-229.675-512-512s229.675-512 512-512c282.325 0 512 229.675 512 512s-229.675 512-512 512zM802.304 281.685c-3.883-2.944-8.448-4.352-12.971-4.352-6.443 0-12.757 2.859-16.981 8.363l-260.352 340.949-260.352-340.907c-7.168-9.429-20.523-11.179-29.909-4.011-9.344 7.168-11.136 20.523-4.011 29.909l277.333 363.093c8.064 10.581 25.856 10.581 33.92 0l277.333-363.093c7.125-9.387 5.333-22.741-4.011-29.952z" />
<glyph unicode="&#xe914;" glyph-name="arrow-down-1-filled" d="M683.605 938.24v-533.333h255.061c8.619 0 16.427-5.205 19.712-13.141 3.285-7.979 1.451-17.109-4.565-23.253l-425.6-427.051c-4.011-4.011-9.472-6.272-15.104-6.272-5.675 0-11.093 2.261-15.104 6.229l-426.837 427.051c-4.096 4.096-6.229 9.557-6.229 15.104 0 2.731 0.555 5.504 1.621 8.149 3.285 7.979 11.093 13.184 19.712 13.184h256v533.333c0 11.776 9.557 21.333 21.333 21.333h298.667c11.776 0 21.333-9.557 21.333-21.333z" />
<glyph unicode="&#xe915;" glyph-name="arrow-down-7-filled" d="M1009.92 544c-17.707 15.616-44.672 13.824-60.203-3.84l-394.624-448.427v825.6c0 23.552-19.115 42.667-42.667 42.667-23.595 0-42.667-19.115-42.667-42.667v-825.6l-394.667 448.427c-15.531 17.664-42.496 19.456-60.203 3.84-17.664-15.531-19.413-42.496-3.84-60.203l469.333-533.333c0.299-0.299 0.64-0.512 0.939-0.811 1.195-1.323 2.56-2.517 3.925-3.627 0.896-0.725 1.707-1.493 2.645-2.176 1.493-1.024 3.157-1.92 4.779-2.816 0.896-0.512 1.749-1.024 2.645-1.451 1.963-0.853 4.053-1.451 6.187-2.048 0.725-0.171 1.365-0.512 2.091-0.64 2.816-0.555 5.803-0.896 8.832-0.896s6.016 0.341 8.832 0.939c0.768 0.128 1.408 0.469 2.133 0.64 2.091 0.597 4.224 1.152 6.187 2.048 0.939 0.427 1.749 0.939 2.645 1.451 1.664 0.896 3.328 1.749 4.821 2.816 0.896 0.683 1.749 1.451 2.603 2.176 1.365 1.109 2.731 2.304 3.925 3.627 0.299 0.299 0.64 0.512 0.896 0.811l469.333 533.333c15.531 17.664 13.824 44.629-3.883 60.16z" />
<glyph unicode="&#xe916;" glyph-name="arrow-down-8-filled" d="M1016.533 689.792l-110.165 94.421c-4.309 3.669-9.856 5.205-15.573 5.035-5.632-0.427-10.88-3.115-14.549-7.467l-364.373-428.843-364.117 428.843c-3.712 4.352-8.96 7.040-14.592 7.467-5.461 0.128-11.264-1.365-15.573-5.035l-110.165-94.421c-4.309-3.712-6.955-8.96-7.381-14.635s1.408-11.264 5.163-15.531l490.581-566.912c4.053-4.651 9.941-7.381 16.128-7.381s12.075 2.688 16.128 7.381l490.752 566.912c3.712 4.309 5.547 9.856 5.163 15.531-0.427 5.675-3.115 10.923-7.424 14.635z" />
<glyph unicode="&#xe917;" glyph-name="arrow-down-12-filled" d="M512 128c-12.544 0-24.448 5.547-32.555 15.104l-469.333 554.667c-15.232 17.963-12.971 44.885 4.992 60.16 18.005 15.147 44.928 13.013 60.117-5.035l436.779-516.181 436.779 516.181c15.232 18.048 42.112 20.224 60.117 5.035 17.963-15.232 20.224-42.155 4.992-60.117l-469.333-554.667c-8.064-9.6-20.011-15.147-32.555-15.147z" />
<glyph unicode="&#xe918;" glyph-name="arrow-left-1-filled" d="M1002.667 618.496h-533.333v255.104c0 8.619-5.205 16.427-13.141 19.712-7.979 3.285-17.109 1.451-23.253-4.565l-427.051-425.643c-4.011-3.968-6.272-9.429-6.272-15.104s2.261-11.093 6.272-15.104l427.051-426.837c4.096-4.096 9.557-6.229 15.104-6.229 2.731 0 5.504 0.555 8.149 1.621 7.936 3.285 13.141 11.093 13.141 19.712v256h533.333c11.776 0 21.333 9.557 21.333 21.333v298.667c0 11.819-9.557 21.333-21.333 21.333z" />
<glyph unicode="&#xe919;" glyph-name="arrow-left-5-filled" d="M85.333 533.163c-47.872 0-85.333-37.504-85.333-85.333s37.461-85.333 85.333-85.333c47.872 0 85.333 37.504 85.333 85.333s-37.461 85.333-85.333 85.333zM256 319.829c-47.872 0-85.333-37.504-85.333-85.333s37.461-85.333 85.333-85.333c47.872 0 85.333 37.504 85.333 85.333s-37.461 85.333-85.333 85.333zM426.667 149.163c-47.872 0-85.333-37.504-85.333-85.333s37.461-85.333 85.333-85.333c47.872 0 85.333 37.504 85.333 85.333s-37.461 85.333-85.333 85.333zM256 575.829c47.872 0 85.333 37.504 85.333 85.333s-37.461 85.333-85.333 85.333c-47.872 0-85.333-37.504-85.333-85.333s37.461-85.333 85.333-85.333zM426.667 746.496c47.872 0 85.333 37.504 85.333 85.333s-37.461 85.333-85.333 85.333c-47.872 0-85.333-37.504-85.333-85.333s37.461-85.333 85.333-85.333zM938.667 533.163c-47.872 0-85.333-37.504-85.333-85.333s37.461-85.333 85.333-85.333c47.872 0 85.333 37.504 85.333 85.333s-37.461 85.333-85.333 85.333zM725.333 533.163c-47.872 0-85.333-37.504-85.333-85.333s37.461-85.333 85.333-85.333c47.872 0 85.333 37.504 85.333 85.333s-37.461 85.333-85.333 85.333zM512 533.163c-47.872 0-85.333-37.504-85.333-85.333s37.461-85.333 85.333-85.333c47.872 0 85.333 37.504 85.333 85.333s-37.461 85.333-85.333 85.333zM298.667 533.163c-47.872 0-85.333-37.504-85.333-85.333s37.461-85.333 85.333-85.333c47.872 0 85.333 37.504 85.333 85.333s-37.461 85.333-85.333 85.333z" />
<glyph unicode="&#xe91a;" glyph-name="arrow-left-7-filled" d="M981.76 490.667h-828.971l431.104 395.221c17.365 15.915 18.56 42.923 2.603 60.288-15.915 17.323-42.923 18.56-60.288 2.645l-512-469.333c-0.256-0.213-0.384-0.512-0.64-0.725-1.237-1.152-2.304-2.517-3.371-3.84-0.683-0.896-1.493-1.664-2.091-2.603-1.067-1.621-2.005-3.371-2.859-5.077-0.427-0.811-0.939-1.493-1.237-2.347-0.981-2.176-1.621-4.395-2.219-6.741-0.085-0.512-0.341-0.981-0.427-1.408-0.597-2.816-0.939-5.76-0.939-8.747s0.341-5.931 0.939-8.747c0.085-0.512 0.299-0.896 0.427-1.365 0.597-2.347 1.237-4.651 2.219-6.827 0.341-0.811 0.853-1.493 1.237-2.304 0.853-1.749 1.792-3.456 2.859-5.077 0.64-0.896 1.408-1.707 2.133-2.603 1.109-1.323 2.176-2.645 3.413-3.84 0.256-0.256 0.384-0.512 0.64-0.725l512-469.333c8.107-7.467 18.475-11.179 28.8-11.179 11.477 0 23.040 4.651 31.445 13.824 15.915 17.365 14.763 44.331-2.603 60.288l-431.147 395.221h828.971c23.552 0 42.667 19.072 42.667 42.667 0 23.552-19.115 42.667-42.667 42.667z" />
<glyph unicode="&#xe91b;" glyph-name="arrow-left-8-filled" d="M438.315 447.915l428.843 364.16c4.309 3.669 6.997 8.917 7.467 14.592 0.427 5.632-1.365 11.264-5.077 15.531l-94.421 110.165c-3.712 4.352-8.96 6.955-14.635 7.424-5.504 0.384-11.221-1.451-15.531-5.163l-566.912-490.581c-4.693-4.053-7.381-9.899-7.381-16.128s2.688-12.075 7.381-16.128l566.912-490.752c3.883-3.371 8.875-5.205 13.952-5.205 0.512 0 1.067 0 1.579 0.043 5.675 0.469 10.923 3.072 14.635 7.424l94.421 110.165c3.669 4.309 5.504 9.941 5.077 15.531-0.469 5.675-3.115 10.923-7.467 14.592l-428.843 364.331z" />
<glyph unicode="&#xe91c;" glyph-name="arrow-left-9-filled" d="M981.333-64c-10.624 0-21.248 3.925-29.483 11.819l-490.667 469.333c-8.448 8.064-13.184 19.2-13.184 30.848s4.736 22.784 13.184 30.848l490.667 469.333c17.024 16.299 44.075 15.659 60.331-1.323 16.299-17.024 15.701-44.032-1.323-60.331l-458.453-438.528 458.453-438.485c17.024-16.299 17.621-43.307 1.323-60.331-8.405-8.747-19.627-13.184-30.848-13.184zM533.333-64c-10.581 0-21.248 3.925-29.483 11.819l-490.667 469.333c-8.448 8.064-13.184 19.2-13.184 30.848s4.736 22.784 13.184 30.848l490.667 469.333c17.024 16.299 44.032 15.659 60.331-1.323 16.299-17.024 15.701-44.032-1.323-60.331l-458.453-438.528 458.453-438.485c17.024-16.299 17.621-43.307 1.323-60.331-8.405-8.747-19.627-13.184-30.848-13.184z" />
<glyph unicode="&#xe91d;" glyph-name="arrow-left-12-filled" d="M789.333-64c-9.728 0-19.541 3.328-27.563 10.069l-554.667 469.333c-9.6 8.149-15.104 20.053-15.104 32.597s5.504 24.448 15.104 32.597l554.667 469.333c18.005 15.147 44.928 13.013 60.117-5.035 15.232-17.963 12.971-44.885-4.992-60.117l-516.181-436.779 516.181-436.736c17.963-15.232 20.224-42.155 4.992-60.117-8.448-10.027-20.437-15.147-32.555-15.147z" />
<glyph unicode="&#xe91e;" glyph-name="arrow-next-filled" d="M840.789 435.499l-255.957 256c-16.683 16.683-43.648 16.683-60.331 0s-16.683-43.648 0-60.331l183.168-183.168h-665.003c-23.595 0-42.667-19.115-42.667-42.667 0-23.595 19.072-42.667 42.667-42.667h665.003l-183.168-183.168c-16.683-16.683-16.683-43.648 0-60.331s43.648-16.683 60.331 0l255.957 255.957c16.683 16.725 16.512 43.861 0 60.373zM981.333 704c-23.595 0-42.667-19.115-42.667-42.667v-512c0-23.595 19.072-42.667 42.667-42.667 23.552 0 42.667 19.072 42.667 42.667v512c0 23.552-19.115 42.667-42.667 42.667z" />
<glyph unicode="&#xe91f;" glyph-name="arrow-previous-filled" d="M981.333 448h-665.003l183.168 183.168c16.683 16.683 16.683 43.648 0 60.331s-43.648 16.683-60.331 0l-256-256c-16.512-16.469-16.683-43.691 0-60.373l256-255.957c16.683-16.683 43.648-16.683 60.331 0s16.683 43.648 0 60.331l-183.168 183.168h665.003c23.552 0 42.667 19.072 42.667 42.667 0 23.552-19.115 42.667-42.667 42.667zM42.667 704c-23.595 0-42.667-19.115-42.667-42.667v-512c0-23.595 19.072-42.667 42.667-42.667 23.552 0 42.667 19.072 42.667 42.667v512c0 23.552-19.115 42.667-42.667 42.667z" />
<glyph unicode="&#xe920;" glyph-name="arrow-right-1-filled" d="M21.333 618.496h533.333v255.104c0 8.619 5.205 16.427 13.141 19.712 7.979 3.285 17.109 1.451 23.253-4.565l427.051-425.6c4.011-4.011 6.272-9.472 6.272-15.104s-2.261-11.093-6.229-15.104l-427.051-426.837c-4.096-4.096-9.557-6.229-15.104-6.229-2.731 0-5.504 0.555-8.149 1.621-7.979 3.243-13.184 11.051-13.184 19.669v256h-533.333c-11.776 0-21.333 9.557-21.333 21.333v298.667c0 11.819 9.557 21.333 21.333 21.333z" />
<glyph unicode="&#xe921;" glyph-name="arrow-right-5-filled" d="M938.667 533.163c-47.872 0-85.333-37.504-85.333-85.333s37.461-85.333 85.333-85.333c47.872 0 85.333 37.504 85.333 85.333s-37.461 85.333-85.333 85.333zM768 319.829c-47.872 0-85.333-37.504-85.333-85.333s37.461-85.333 85.333-85.333c47.872 0 85.333 37.504 85.333 85.333s-37.461 85.333-85.333 85.333zM597.333 149.163c-47.872 0-85.333-37.504-85.333-85.333s37.461-85.333 85.333-85.333c47.872 0 85.333 37.504 85.333 85.333s-37.461 85.333-85.333 85.333zM768 575.829c47.872 0 85.333 37.504 85.333 85.333s-37.461 85.333-85.333 85.333c-47.872 0-85.333-37.504-85.333-85.333s37.461-85.333 85.333-85.333zM597.333 746.496c47.872 0 85.333 37.504 85.333 85.333s-37.461 85.333-85.333 85.333c-47.872 0-85.333-37.504-85.333-85.333s37.461-85.333 85.333-85.333zM85.333 533.163c-47.872 0-85.333-37.504-85.333-85.333s37.461-85.333 85.333-85.333c47.872 0 85.333 37.504 85.333 85.333s-37.461 85.333-85.333 85.333zM298.667 533.163c-47.872 0-85.333-37.504-85.333-85.333s37.461-85.333 85.333-85.333c47.872 0 85.333 37.504 85.333 85.333s-37.461 85.333-85.333 85.333zM597.333 447.829c0 47.829-37.461 85.333-85.333 85.333s-85.333-37.504-85.333-85.333c0-47.829 37.461-85.333 85.333-85.333s85.333 37.504 85.333 85.333zM640 447.829c0-47.829 37.461-85.333 85.333-85.333s85.333 37.504 85.333 85.333c0 47.829-37.461 85.333-85.333 85.333s-85.333-37.504-85.333-85.333z" />
<glyph unicode="&#xe922;" glyph-name="arrow-right-7-filled" d="M1023.488 456.747c-0.085 0.469-0.341 0.896-0.427 1.408-0.597 2.347-1.237 4.565-2.219 6.741-0.341 0.853-0.811 1.536-1.237 2.347-0.853 1.707-1.792 3.456-2.859 5.077-0.683 0.896-1.451 1.707-2.176 2.603-1.067 1.323-2.176 2.645-3.371 3.84-0.256 0.213-0.427 0.512-0.64 0.725l-512 469.333c-17.365 15.915-44.373 14.72-60.288-2.645s-14.763-44.373 2.603-60.288l431.147-395.221h-828.928c-23.595 0-42.667-19.115-42.667-42.667 0-23.595 19.072-42.667 42.667-42.667h828.971l-431.104-395.221c-17.365-15.957-18.56-42.923-2.603-60.288 8.363-9.216 19.84-13.824 31.403-13.824 10.325 0 20.608 3.712 28.843 11.221l512 469.333c0.213 0.213 0.384 0.469 0.64 0.725 1.237 1.152 2.304 2.517 3.413 3.84 0.725 0.896 1.451 1.664 2.133 2.603 1.067 1.621 2.005 3.328 2.859 5.077 0.427 0.811 0.939 1.493 1.237 2.304 0.981 2.176 1.621 4.523 2.219 6.827 0.085 0.469 0.341 0.896 0.427 1.365 0.555 2.773 0.896 5.717 0.896 8.704s-0.341 5.931-0.939 8.747z" />
<glyph unicode="&#xe923;" glyph-name="arrow-right-8-filled" d="M845.952 464.043l-566.912 490.581c-4.309 3.712-9.899 5.547-15.531 5.163-5.675-0.469-10.923-3.072-14.635-7.424l-94.421-110.165c-3.669-4.267-5.504-9.899-5.077-15.531 0.469-5.675 3.157-10.923 7.467-14.592l428.843-364.16-428.843-364.331c-4.352-3.669-6.997-8.917-7.467-14.592-0.427-5.632 1.365-11.264 5.077-15.531l94.421-110.165c3.712-4.352 8.96-6.955 14.635-7.424 0.512-0.043 1.067-0.043 1.579-0.043 5.12 0 10.069 1.835 13.952 5.205l566.912 490.752c4.693 4.053 7.381 9.899 7.381 16.128s-2.688 12.075-7.381 16.128z" />
<glyph unicode="&#xe924;" glyph-name="arrow-right-9-filled" d="M42.667-64c10.581 0 21.248 3.925 29.483 11.819l490.667 469.333c8.448 8.064 13.184 19.2 13.184 30.848s-4.736 22.784-13.184 30.848l-490.667 469.333c-16.981 16.299-44.032 15.659-60.331-1.365s-15.659-44.032 1.365-60.331l458.411-438.485-458.411-438.485c-17.024-16.299-17.621-43.307-1.323-60.331 8.363-8.747 19.584-13.184 30.805-13.184zM490.667-64c10.581 0 21.248 3.925 29.483 11.819l490.667 469.333c8.448 8.064 13.184 19.2 13.184 30.848s-4.736 22.784-13.184 30.848l-490.667 469.333c-17.024 16.299-44.032 15.659-60.331-1.323-16.299-17.024-15.701-44.032 1.323-60.331l458.453-438.528-458.411-438.485c-17.024-16.299-17.621-43.307-1.323-60.331 8.363-8.747 19.584-13.184 30.805-13.184z" />
<glyph unicode="&#xe925;" glyph-name="arrow-right-12-filled" d="M234.709-64c-12.117 0-24.149 5.12-32.597 15.104-15.232 17.963-12.971 44.885 4.992 60.117l516.181 436.779-516.181 436.736c-17.963 15.275-20.224 42.197-4.992 60.16 15.189 18.048 42.112 20.224 60.117 5.035l554.667-469.333c9.6-8.107 15.104-20.053 15.104-32.597s-5.504-24.448-15.104-32.597l-554.667-469.333c-8.021-6.741-17.835-10.069-27.52-10.069z" />
<glyph unicode="&#xe926;" glyph-name="arrow-up-1-filled" d="M341.333-43.477v533.333h-255.061c-8.619 0-16.427 5.205-19.712 13.141-3.285 7.979-1.451 17.109 4.565 23.253l425.6 427.051c4.011 4.011 9.472 6.272 15.147 6.272s11.093-2.261 15.061-6.272l426.837-427.051c4.096-4.096 6.229-9.557 6.229-15.104 0-2.731-0.555-5.504-1.621-8.149-3.285-7.979-11.093-13.184-19.712-13.184h-256v-533.333c0-11.776-9.557-21.333-21.333-21.333h-298.667c-11.776 0.043-21.333 9.6-21.333 21.376z" />
<glyph unicode="&#xe927;" glyph-name="arrow-up-5-filled" d="M512 959.829c-47.872 0-85.333-37.504-85.333-85.333s37.461-85.333 85.333-85.333c47.872 0 85.333 37.504 85.333 85.333s-37.504 85.333-85.333 85.333zM298.624 789.163c-47.872 0-85.333-37.504-85.333-85.333s37.461-85.333 85.333-85.333c47.872 0 85.333 37.504 85.333 85.333s-37.461 85.333-85.333 85.333zM128 618.496c-47.872 0-85.333-37.504-85.333-85.333s37.461-85.333 85.333-85.333c47.872 0 85.333 37.504 85.333 85.333s-37.504 85.333-85.333 85.333zM725.333 789.163c-47.872 0-85.333-37.504-85.333-85.333s37.461-85.333 85.333-85.333c47.872 0 85.333 37.504 85.333 85.333s-37.504 85.333-85.333 85.333zM896 618.496c-47.872 0-85.333-37.504-85.333-85.333s37.461-85.333 85.333-85.333c47.872 0 85.333 37.504 85.333 85.333s-37.504 85.333-85.333 85.333zM512 106.496c-47.872 0-85.333-37.504-85.333-85.333s37.461-85.333 85.333-85.333c47.872 0 85.333 37.504 85.333 85.333s-37.504 85.333-85.333 85.333zM512 319.829c-47.872 0-85.333-37.504-85.333-85.333s37.461-85.333 85.333-85.333c47.872 0 85.333 37.504 85.333 85.333s-37.504 85.333-85.333 85.333zM512 533.163c-47.872 0-85.333-37.504-85.333-85.333s37.461-85.333 85.333-85.333c47.872 0 85.333 37.504 85.333 85.333s-37.504 85.333-85.333 85.333zM512 746.496c-47.872 0-85.333-37.504-85.333-85.333s37.461-85.333 85.333-85.333c47.872 0 85.333 37.504 85.333 85.333s-37.504 85.333-85.333 85.333z" />
<glyph unicode="&#xe928;" glyph-name="arrow-up-7-filled" d="M1013.76 412.16l-469.333 533.333c-0.256 0.299-0.555 0.512-0.811 0.768-1.621 1.792-3.456 3.371-5.376 4.864-0.256 0.128-0.469 0.341-0.64 0.512-7.083 5.205-15.744 8.363-25.173 8.363s-18.091-3.157-25.173-8.363c-0.213-0.171-0.427-0.384-0.64-0.512-1.92-1.493-3.755-3.072-5.376-4.864-0.299-0.256-0.64-0.469-0.896-0.768l-469.333-533.333c-15.573-17.664-13.824-44.629 3.84-60.203 17.707-15.573 44.672-13.824 60.203 3.84l394.709 448.469v-825.6c0-23.595 19.072-42.667 42.667-42.667 23.552 0 42.667 19.072 42.667 42.667v825.6l394.624-448.469c8.405-9.6 20.224-14.464 32.043-14.464 9.984 0 20.096 3.499 28.16 10.624 17.707 15.573 19.413 42.539 3.84 60.203z" />
<glyph unicode="&#xe929;" glyph-name="arrow-up-8-filled" d="M1018.795 215.040l-490.752 566.912c-8.107 9.344-24.149 9.344-32.256 0l-490.581-566.912c-3.712-4.309-5.547-9.856-5.163-15.531 0.427-5.675 3.072-10.923 7.381-14.635l110.165-94.421c3.883-3.328 8.789-5.12 13.867-5.12 0.555 0 1.109 0.043 1.707 0.085 5.632 0.427 10.88 3.115 14.592 7.467l364.16 428.843 364.373-428.843c3.669-4.352 8.917-7.040 14.549-7.467 5.717-0.299 11.264 1.323 15.573 5.035l110.165 94.421c4.309 3.712 6.997 8.96 7.381 14.635 0.427 5.675-1.408 11.264-5.163 15.531z" />
<glyph unicode="&#xe92a;" glyph-name="arrow-up-12-filled" d="M64 128c-9.429 0-18.901 3.072-26.795 9.472-18.347 14.848-21.205 41.643-6.357 59.989l448 554.667c7.979 9.899 19.968 15.701 32.683 15.872 11.52-1.024 24.832-5.376 33.024-15.104l469.333-554.667c15.232-17.963 12.971-44.885-4.992-60.117-18.005-15.147-44.928-13.013-60.117 5.035l-435.968 515.243-415.616-514.517c-8.405-10.453-20.779-15.872-33.195-15.872z" />
<glyph unicode="&#xe92b;" glyph-name="bin-1-filled" d="M981.333 832h-298.667v106.667c0 11.733-9.557 21.333-21.333 21.333h-341.333c-11.776 0-21.333-9.6-21.333-21.333v-106.667h-256c-11.776 0-21.333-9.6-21.333-21.333 0-11.776 9.557-21.333 21.333-21.333h85.333v-832c0-11.819 9.557-21.333 21.333-21.333h682.667c11.776 0 21.333 9.557 21.333 21.333v832h128c11.776 0 21.333 9.557 21.333 21.333 0 11.733-9.557 21.333-21.333 21.333zM341.333 170.667c0-11.819-9.557-21.333-21.333-21.333s-21.333 9.515-21.333 21.333v469.333c0 11.733 9.557 21.333 21.333 21.333s21.333-9.6 21.333-21.376v-469.291zM341.333 917.333h298.667v-85.333h-298.667v85.333zM512 170.667c0-11.776-9.557-21.333-21.333-21.333s-21.333 9.515-21.333 21.333v469.333c0 11.733 9.557 21.333 21.333 21.333s21.333-9.6 21.333-21.333v-469.333zM682.667 170.667c0-11.776-9.557-21.333-21.333-21.333s-21.333 9.515-21.333 21.333v469.333c0 11.733 9.557 21.333 21.333 21.333s21.333-9.6 21.333-21.333v-469.333z" />
<glyph unicode="&#xe92c;" glyph-name="binoculars-filled" d="M704 531.84c0-11.691-9.6-21.333-21.333-21.333-11.776 0-21.333 9.643-21.333 21.333 0 24.96-43.477 52.309-106.667 61.099v-381.099c0-129.323 105.259-234.667 234.667-234.667 129.365 0 234.667 105.344 234.667 234.667 0 51.371-16.768 98.731-44.843 137.387l-127.573 297.728c-1.067 2.517-2.603 4.779-4.48 6.699l-60.8 60.715-62.379 163.755c-1.067 2.816-2.773 5.376-4.821 7.509-40.661 40.661-117.547 40.661-158.165 0-4.011-4.011-6.272-9.429-6.272-15.061v-234.539c87.509-10.197 149.333-51.541 149.333-104.192zM789.333 19.84c-105.856 0-192 86.144-192 192 0 105.941 86.144 192 192 192 105.813 0 192-86.059 192-192 0-105.856-86.187-192-192-192zM0 211.84c0-129.323 105.259-234.667 234.667-234.667 129.365 0 234.667 105.344 234.667 234.667v381.056c-63.189-8.789-106.667-36.096-106.667-61.056 0-11.691-9.6-21.333-21.333-21.333-11.776 0-21.333 9.643-21.333 21.333 0 52.651 61.781 93.995 149.333 104.192v237.141c0 5.675-2.261 11.136-6.229 15.147-40.661 40.661-117.547 40.661-158.165 0-2.176-2.133-3.84-4.693-4.907-7.595l-62.421-166.357-60.672-60.715c-1.92-1.92-3.541-4.181-4.565-6.699l-127.573-297.728c-28.032-38.656-44.8-86.016-44.8-137.387zM234.667 19.84c-105.856 0-192 86.144-192 192 0 105.941 86.144 192 192 192s192-86.059 192-192c0-105.856-86.144-192-192-192zM234.667 318.507c11.733 0 21.333 9.643 21.333 21.333 0 11.819-9.6 21.333-21.333 21.333-82.389 0-149.333-66.901-149.333-149.333 0-11.691 9.557-21.333 21.333-21.333 11.733 0 21.333 9.643 21.333 21.333 0 58.88 47.829 106.667 106.667 106.667zM789.333 318.507c11.733 0 21.333 9.643 21.333 21.333 0 11.819-9.6 21.333-21.333 21.333-82.389 0-149.333-66.901-149.333-149.333 0-11.691 9.557-21.333 21.333-21.333 11.733 0 21.333 9.643 21.333 21.333 0 58.88 47.829 106.667 106.667 106.667z" />
<glyph unicode="&#xe92d;" glyph-name="bookmark-1-filled" d="M1017.771 335.061l-619.008 618.112c-4.011 4.011-9.429 6.229-15.104 6.229l-362.325 0.597c-11.776 0-21.333-9.557-21.333-21.333l0.341-362.667c0-5.632 2.261-11.051 6.272-15.061l618.283-618.709c8.32-8.32 21.845-8.32 30.165 0l362.709 362.667c8.32 8.363 8.32 21.845 0 30.165zM234.667 618.368c-58.837 0-106.667 47.872-106.667 106.667 0 58.837 47.829 106.667 106.667 106.667 58.795 0 106.667-47.829 106.667-106.667 0-58.795-47.872-106.667-106.667-106.667z" />
<glyph unicode="&#xe92e;" glyph-name="bow-arrow-1-filled" d="M802.133 742.4h-226.133l-34.133 34.133v38.4h12.8c17.067 0 29.867 8.533 38.4 21.333s4.267 29.867-4.267 42.667l-51.2 64c-17.067 21.333-46.933 21.333-64 0l-46.933-64c-8.533-12.8-8.533-29.867-4.267-42.667 8.533-12.8 21.333-21.333 38.4-21.333h12.8v-34.133l-34.133-34.133h-217.6c-123.733 0-221.867-93.867-221.867-213.333 0-21.333 12.8-34.133 34.133-34.133 17.067 0 34.133 12.8 34.133 29.867l405.333-388.267v-12.8c-12.8-4.267-21.333-8.533-29.867-17.067-21.333-21.333-25.6-55.467-17.067-102.4 4.267-21.333 12.8-42.667 17.067-46.933 4.267-8.533 12.8-17.067 29.867-17.067 8.533 0 21.333 4.267 25.6 17.067l8.533 17.067 12.8-21.333c12.8-17.067 42.667-17.067 55.467 4.267 25.6 59.733 29.867 106.667 8.533 136.533-8.533 12.8-21.333 25.6-38.4 29.867v12.8l409.6 396.8c0 0 0-4.267 0-4.267 0-21.333 12.8-34.133 34.133-34.133s34.133 12.8 34.133 34.133c-4.267 115.2-102.4 209.067-221.867 209.067zM563.2 674.133h238.933c51.2 0 98.133-25.6 128-68.267l-384-375.467v452.267c4.267-4.267 8.533-8.533 17.067-8.533zM221.867 674.133h230.4c8.533 0 17.067 4.267 21.333 8.533v-448l-384 366.933c25.6 46.933 76.8 72.533 132.267 72.533zM0 960h1024v-1024h-1024z" />
<glyph unicode="&#xe92f;" glyph-name="bubble-chat-3-filled" d="M682.667 874.667h-341.333c-188.203 0-341.333-153.131-341.333-341.333s153.131-341.333 341.333-341.333h42.667v-149.333c0-18.944 23.040-28.501 36.437-15.104l164.395 164.437h97.835c188.203 0 341.333 153.131 341.333 341.333s-153.131 341.333-341.333 341.333z" />
<glyph unicode="&#xe930;" glyph-name="button-power-1-filled" d="M469.333 426.667h0.085c23.552 0 42.667 19.029 42.667 42.581l0.597 277.333c0 23.595-19.029 42.709-42.624 42.752-23.296-0.811-42.709-18.987-42.709-42.581l-0.597-277.333c0-23.552 19.029-42.709 42.581-42.752zM469.333 85.333c-176.469 0-320 143.531-320 320 0 112.811 57.643 215.125 154.197 273.707 20.181 12.203 46.379 5.845 58.581-14.336 12.245-20.139 5.845-46.379-14.336-58.581-70.827-43.008-113.109-118.101-113.109-200.789 0-129.365 105.301-234.667 234.667-234.667s234.667 105.301 234.667 234.667c0 82.688-42.283 157.781-113.109 200.789-20.181 12.203-26.581 38.443-14.336 58.581 12.203 20.181 38.4 26.539 58.581 14.336 96.555-58.581 154.197-160.896 154.197-273.707 0-176.469-143.531-320-320-320z" />
<glyph unicode="&#xe931;" glyph-name="calendar-2-filled" d="M512 277.333h170.667v-128h-170.667zM298.667 277.333h170.667v-128h-170.667zM512 448h170.667v-128h-170.667zM298.667 448h170.667v-128h-170.667zM0-42.667c0-11.776 9.557-21.333 21.333-21.333h981.333c11.776 0 21.333 9.557 21.333 21.333v661.333h-1024v-661.333zM106.667 277.333c-11.776 0-21.333 9.557-21.333 21.333s9.557 21.333 21.333 21.333h149.333v128h-149.333c-11.776 0-21.333 9.557-21.333 21.333s9.557 21.333 21.333 21.333h149.333v64c0 11.776 9.557 21.333 21.333 21.333s21.333-9.557 21.333-21.333v-64h170.667v64c0 11.776 9.557 21.333 21.333 21.333s21.333-9.557 21.333-21.333v-64h170.667v64c0 11.776 9.557 21.333 21.333 21.333s21.333-9.557 21.333-21.333v-64h192c11.776 0 21.333-9.557 21.333-21.333s-9.557-21.333-21.333-21.333h-192v-128h192c11.776 0 21.333-9.557 21.333-21.333s-9.557-21.333-21.333-21.333h-192v-128h192c11.776 0 21.333-9.557 21.333-21.333s-9.557-21.333-21.333-21.333h-192v-64c0-11.776-9.557-21.333-21.333-21.333s-21.333 9.557-21.333 21.333v64h-170.667v-64c0-11.776-9.557-21.333-21.333-21.333s-21.333 9.557-21.333 21.333v64h-170.667v-64c0-11.776-9.557-21.333-21.333-21.333s-21.333 9.557-21.333 21.333v64h-149.333c-11.776 0-21.333 9.557-21.333 21.333s9.557 21.333 21.333 21.333h149.333v128h-149.333zM1002.667 874.667h-149.333v64c0 11.776-9.557 21.333-21.333 21.333h-128c-11.776 0-21.333-9.557-21.333-21.333v-64h-341.333v64c0 11.776-9.557 21.333-21.333 21.333h-128c-11.776 0-21.333-9.557-21.333-21.333v-64h-149.333c-11.776 0-21.333-9.557-21.333-21.333v-192h1024v192c0 11.776-9.557 21.333-21.333 21.333zM298.667 789.333h-85.333v128h85.333v-128zM810.667 789.333h-85.333v128h85.333v-128z" />
<glyph unicode="&#xe932;" glyph-name="chat-double-bubble-3-filled" d="M896 448h-68.565c-38.912-75.861-117.803-128-208.768-128h-149.333v-85.333c0-70.571 57.429-128 128-128h97.835l121.771-121.771c13.312-13.312 36.395-3.883 36.395 15.104v106.667h42.667c70.571 0 128 57.429 128 128v85.333c0 70.571-57.429 128-128 128zM810.667 554.667v170.667c0 105.856-86.144 192-192 192h-426.667c-105.856 0-192-86.144-192-192v-170.667c0-105.856 86.144-192 192-192h21.333v-149.333c0-18.944 23.040-28.501 36.395-15.104l164.437 164.437h204.501c105.856 0 192 86.144 192 192z" />
<glyph unicode="&#xe933;" glyph-name="check-1-filled" d="M1005.909 952.192c-19.285 13.568-45.867 8.96-59.435-10.325l-632.149-897.152-241.493 241.451c-16.64 16.683-43.691 16.683-60.331 0-16.683-16.725-16.683-43.733 0-60.288l277.333-277.333c8.021-8.107 18.901-12.544 30.165-12.544 13.568 0 26.752 6.528 34.859 18.091l661.333 938.667c13.568 19.328 8.96 45.909-10.283 59.435z" />
<glyph unicode="&#xe934;" glyph-name="check-2-filled" d="M1017.771 655.104l-149.333 149.333c-8.32 8.32-21.845 8.32-30.165 0l-518.272-518.229-134.272 134.229c-8.32 8.32-21.845 8.32-30.165 0l-149.333-149.333c-8.32-8.32-8.32-21.845 0-30.165l298.667-298.667c8.32-8.363 21.845-8.363 30.165 0l682.667 682.667c8.363 8.32 8.363 21.845 0.043 30.165z" />
<glyph unicode="&#xe935;" glyph-name="check-box-1-filled" d="M965.461 886.485c-18.347 14.933-45.227 11.989-59.989-6.357l-503.552-624.384-179.755 179.755c-16.64 16.683-43.691 16.683-60.331 0-16.683-16.725-16.683-43.733 0-60.288l213.333-213.333c8.021-8.064 18.901-12.544 30.165-12.544 12.459 0 24.875 5.547 33.195 15.872l533.333 661.333c14.805 18.347 11.947 45.227-6.4 59.947zM810.667 490.667c-23.552 0-42.667-19.072-42.667-42.667v-426.667h-682.667v682.752h512c23.552-0.085 42.667 19.029 42.667 42.581 0 23.595-19.115 42.667-42.667 42.667h-554.667c-23.552 0-42.667-19.072-42.667-42.667v-768c0-23.552 19.115-42.667 42.667-42.624h768c23.552-0.043 42.667 19.072 42.667 42.624v469.333c0 23.595-19.115 42.667-42.667 42.667z" />
<glyph unicode="&#xe936;" glyph-name="check-circle-1-filled" d="M1007.915 950.741c-18.475 14.677-45.269 11.563-59.947-6.869l-546.261-687.872-179.499 179.499c-16.683 16.683-43.691 16.683-60.331 0-16.683-16.725-16.683-43.733 0-60.288l213.333-213.333c8.619-8.619 20.352-13.141 32.512-12.459 12.117 0.683 23.552 6.613 31.061 16.085l576 725.333c14.635 18.389 11.605 45.227-6.869 59.904zM791.509 489.856c-22.955-5.248-37.333-28.117-32.085-51.072 5.717-24.96 8.619-50.603 8.619-76.075 0-188.203-153.131-341.333-341.333-341.333s-341.333 153.131-341.333 341.333c0 188.203 153.131 341.333 341.333 341.333 53.205 0 104.277-11.989 151.68-35.499 21.077-10.539 46.72-1.877 57.216 19.243 10.496 21.077 1.877 46.72-19.243 57.173-59.307 29.44-123.093 44.373-189.611 44.373-235.264 0-426.667-191.403-426.667-426.667s191.403-426.667 426.667-426.667c235.264 0 426.667 191.403 426.667 426.667 0 31.915-3.627 63.915-10.752 95.104-5.291 22.955-28.117 37.419-51.157 32.085z" />
<glyph unicode="&#xe937;" glyph-name="check-circle-2-filled" d="M512.085 960c-282.325 0-512-229.76-512-512 0-282.283 229.675-512 512-512 282.283 0 512 229.717 512 512-0.043 282.24-229.717 512-512 512zM739.925 581.717l-320.085-298.709c-8.405-7.765-21.461-7.765-29.653 0.555l-106.581 106.667c-8.32 8.32-8.32 21.845 0 30.165 8.32 8.363 21.845 8.363 30.165 0l92.075-92.075 304.939 284.587c8.576 8.021 22.101 7.595 30.123-1.024 8.107-8.576 7.637-22.101-0.981-30.165z" />
<glyph unicode="&#xe938;" glyph-name="clock-2-filled" d="M512 960c-282.325 0-512-229.675-512-512s229.675-512 512-512c282.325 0 512 229.675 512 512s-229.675 512-512 512zM762.411 198.912c-8.064-8.789-21.632-9.173-30.165-1.323l-256 234.667c-4.395 4.053-6.912 9.728-6.912 15.744v234.667c0 11.776 9.557 21.333 21.333 21.333s21.333-9.557 21.333-21.333v-225.28l249.088-228.309c8.704-7.979 9.259-21.504 1.323-30.165z" />
<glyph unicode="&#xe939;" glyph-name="close-filled" d="M1011.499 8.832l-439.168 439.168 439.125 439.168c16.683 16.64 16.683 43.648 0 60.331s-43.648 16.683-60.331 0l-439.125-439.168-439.211 439.211c-16.683 16.64-43.648 16.64-60.331 0-16.683-16.683-16.683-43.648 0-60.331l439.211-439.211-439.211-439.211c-16.64-16.64-16.683-43.691 0-60.331 16.683-16.683 43.691-16.64 60.331 0l439.211 439.211 439.168-439.125c16.64-16.683 43.648-16.683 60.331 0 16.683 16.64 16.64 43.648 0 60.288z" />
<glyph unicode="&#xe93a;" glyph-name="cloud-download-filled" d="M761.685 689.835c-52.949 99.755-157.867 163.499-271.019 163.499-154.368 0-283.648-114.901-303.915-265.685-100.907 7.68-186.795-73.557-186.752-173.909 0-139.648 120.533-178.176 184.576-179.072h242.091v226.347c0 35.285 28.672 64 64 64 35.243 0 64-28.715 64-64v-226.347h224.896c2.048 0.341 201.771 33.92 201.771 230.101 0 122.325-98.048 222.208-219.648 225.067zM633.771 164.267c-0.043 0.085-0.085 0.085-0.085 0.085-8.192 8.021-21.845 8.021-29.995 0 0 0-0.085 0-0.085-0.085l-91.605-91.605v375.168c0 11.776-9.6 21.333-21.333 21.333-11.776 0-21.333-9.557-21.333-21.333v-375.168l-91.563 91.605c-8.107 8.107-21.589 8.576-30.165 0-8.405-8.405-8.235-21.931 0-30.165l127.915-127.915c8.149-8.149 21.973-8.32 30.208-0.085l128.043 128c8.32 8.32 8.32 21.803 0 30.165z" />
<glyph unicode="&#xe93b;" glyph-name="cloud-filled" d="M933.973 495.104c26.112 108.032-57.515 210.176-165.376 210.176-0.299 0-0.555 0-0.853-0.043-111.787 268.203-511.019 203.691-532.309-86.144-131.584-10.496-235.435-121.259-235.435-255.787 0-141.525 114.816-256.64 256-256.64h554.667c117.632 0 213.333 96 213.333 213.973 0 69.205-34.133 134.613-90.027 174.464z" />
<glyph unicode="&#xe93c;" glyph-name="cloud-sync-1-filled" d="M533.333 490.667c-129.408 0-234.667-105.301-234.667-234.667 0-129.408 105.259-234.667 234.667-234.667 129.365 0 234.667 105.259 234.667 234.667 0 129.365-105.301 234.667-234.667 234.667zM533.333 81.323c-86.997 0-157.739 70.741-157.739 157.739 0 81.579 62.464 148.139 141.952 156.16l-16.341 16.341c-8.32 8.32-8.32 21.845 0 30.165s21.845 8.32 30.165 0l51.157-51.157c8.32-8.32 8.32-21.845 0-30.165l-51.157-51.157c-8.32-8.32-21.845-8.32-30.165 0s-8.32 21.845 0 30.165l12.8 12.8c-54.229-9.259-95.744-56.277-95.744-113.109 0-63.445 51.627-115.072 115.072-115.072 88.491 0 143.787 96.213 99.712 172.672-5.931 10.155-2.432 23.211 7.808 29.141 9.984 5.931 23.168 2.475 29.141-7.808 60.373-104.107-14.891-236.715-136.661-236.715zM804.352 689.835c-52.949 99.755-157.867 163.499-271.019 163.499-154.368 0-283.648-114.901-303.915-265.685-100.907 7.68-186.795-73.557-186.752-173.909 0-101.803 64.981-179.072 214.4-179.072-12.544 164.181 117.76 298.667 276.267 298.667 158.592 0 288.811-134.571 276.267-298.667 50.176 0 214.4 55.68 214.4 230.101 0 122.325-98.048 222.208-219.648 225.067z" />
<glyph unicode="&#xe93d;" glyph-name="cloud-upload-filled" d="M761.685 689.835c-52.949 99.755-157.867 163.499-271.019 163.499-154.368 0-283.648-114.901-303.915-265.685-100.907 7.68-186.795-73.557-186.752-173.909 0-139.648 120.533-178.176 184.576-179.072h242.091v101.632c0 0-18.603-18.688-18.731-18.859-25.003-25.003-65.579-25.003-90.581 0-24.96 24.96-24.96 65.493 0.043 90.496l128.043 128.128c23.893 23.893 66.731 23.851 90.624-0.171 0 0 127.787-127.957 127.829-127.957 25.003-25.003 25.003-65.536 0.043-90.496-25.003-25.003-65.579-25.003-90.581 0-0.085 0.128-18.688 18.859-18.688 18.859v-101.632h224.896c2.048 0.341 201.771 33.92 201.771 230.101 0 122.325-98.048 222.208-219.648 225.067zM347.563 347.691c0.043-0.085 0.085-0.085 0.085-0.085 8.192-8.064 21.845-8.064 29.995 0 0 0 0.085 0 0.085 0.085l91.605 91.605v-417.963c0-11.776 9.6-21.333 21.333-21.333 11.776 0 21.333 9.557 21.333 21.333v417.963l91.563-91.605c8.107-8.107 21.589-8.576 30.165 0 8.405 8.405 8.235 21.931 0 30.165l-127.915 127.915c-8.149 8.149-21.973 8.32-30.208 0.085l-128.043-128c-8.32-8.32-8.32-21.803 0-30.165z" />
<glyph unicode="&#xe93e;" glyph-name="cog-filled" d="M1002.667 533.333h-121.813c-8.533 33.707-19.371 71.125-33.195 99.499l86.699 86.699c8.32 8.32 8.32 21.845 0 30.165l-120.704 120.619c-8.32 8.363-21.845 8.363-30.165 0l-86.741-86.656c-28.373 13.824-65.749 24.661-99.413 33.152v121.856c0 11.776-9.557 21.333-21.333 21.333h-128c-11.776 0-21.333-9.557-21.333-21.333v-121.856c-33.707-8.491-71.125-19.328-99.456-33.152l-86.741 86.656c-8.32 8.363-21.845 8.363-30.165 0l-120.704-120.619c-8.32-8.32-8.32-21.845 0-30.165l86.741-86.741c-13.781-28.288-24.661-65.707-33.195-99.456h-121.813c-11.776 0-21.333-9.557-21.333-21.333v-128c0-11.776 9.557-21.333 21.333-21.333h121.813c8.576-33.749 19.456-71.168 33.237-99.456l-86.784-86.784c-8.32-8.32-8.32-21.803 0-30.165l120.704-120.661c8.021-8.021 22.187-8.021 30.165 0l86.741 86.741c28.288-13.781 65.707-24.661 99.499-33.237v-121.771c0-11.776 9.557-21.333 21.333-21.333h128c11.776 0 21.333 9.557 21.333 21.333v121.771c33.707 8.576 71.168 19.456 99.456 33.195l86.784-86.699c8.32-8.32 21.845-8.32 30.165 0l120.661 120.661c8.32 8.32 8.32 21.845 0 30.165l-86.699 86.741c13.781 28.288 24.661 65.707 33.195 99.456h121.728c11.776 0 21.333 9.557 21.333 21.333v128c0 11.819-9.557 21.376-21.333 21.376zM512 277.333c-94.123 0-170.667 76.587-170.667 170.667s76.544 170.667 170.667 170.667c94.123 0 170.667-76.587 170.667-170.667s-76.544-170.667-170.667-170.667z" />
<glyph unicode="&#xe93f;" glyph-name="computer-imac-2-filled" d="M0 277.333v-81.536c0-49.152 38.229-89.131 85.333-89.131h405.333v-42.667h-277.333c-11.776 0-21.333-9.557-21.333-21.333s9.557-21.333 21.333-21.333h597.333c11.776 0 21.333 9.557 21.333 21.333s-9.557 21.333-21.333 21.333h-277.333v42.667h405.333c47.061 0 85.333 39.979 85.333 89.131v81.536h-1024zM512 256c23.509 0 42.667-19.115 42.667-42.667s-19.157-42.667-42.667-42.667c-23.552 0-42.667 19.115-42.667 42.667s19.115 42.667 42.667 42.667zM938.667 917.333h-853.333c-47.104 0-85.333-39.936-85.333-89.131v-508.203h1024v508.203c0 49.195-38.272 89.131-85.333 89.131z" />
<glyph unicode="&#xe940;" glyph-name="computer-notebook-2-filled" d="M64 234.667h896c11.733 0 21.333 9.557 21.333 21.333v490.667c0 47.019-38.272 85.333-85.333 85.333h-768c-47.104 0-85.333-38.315-85.333-85.333v-490.667c0-11.776 9.557-21.333 21.333-21.333zM128 746.667h768v-426.667h-768v426.667zM1002.667 192h-384c-11.776 0-21.333-9.557-21.333-21.333v-21.333h-170.667v21.333c0 11.776-9.6 21.333-21.333 21.333h-384c-11.776 0-21.333-9.557-21.333-21.333v-42.667c0-35.285 28.715-64 64-64h896c35.243 0 64 28.715 64 64v42.667c0 11.776-9.6 21.333-21.333 21.333z" />
<glyph unicode="&#xe941;" glyph-name="computer-pc-3-filled" d="M597.333 106.667h-42.667v85.333h85.333v85.333h-533.333c-11.776 0-21.333 9.557-21.333 21.333v426.667c0 11.776 9.557 21.333 21.333 21.333h682.667c11.776 0 21.333-9.557 21.333-21.333v-21.333h85.333v64c0 35.285-28.715 64-64 64h-768c-35.285 0-64-28.715-64-64v-512c0-35.285 28.715-64 64-64h277.333v-85.333h-42.667c-11.776 0-21.333-9.557-21.333-21.333s9.557-21.333 21.333-21.333c128.213 0 170.624 0 298.667 0 11.776 0 21.333 9.557 21.333 21.333s-9.557 21.333-21.333 21.333zM682.667 362.667h341.333v-85.333h-341.333zM682.667 448h341.333v-42.667h-341.333zM1024 490.667v149.333c0 11.776-9.557 21.333-21.333 21.333h-298.667c-11.776 0-21.333-9.557-21.333-21.333v-149.333h341.333zM832 576h106.667c11.776 0 21.333-9.557 21.333-21.333s-9.557-21.333-21.333-21.333h-106.667c-11.776 0-21.333 9.557-21.333 21.333s9.557 21.333 21.333 21.333zM682.667 234.667v-149.333c0-11.776 9.557-21.333 21.333-21.333h298.667c11.776 0 21.333 9.557 21.333 21.333v149.333h-341.333zM960 106.667h-85.333v85.333h85.333v-85.333z" />
<glyph unicode="&#xe942;" glyph-name="copy-1-filled" d="M234.667 21.333c-11.776 0-21.333 9.557-21.333 21.333v789.333h-64c-11.776 0-21.333-9.557-21.333-21.333v-853.333c0-11.776 9.557-21.333 21.333-21.333h597.333c11.776 0 21.333 9.557 21.333 21.333v64h-533.333zM896 682.667c0 5.675-2.261 11.093-6.229 15.061l-256 256c-4.011 4.011-9.472 6.272-15.104 6.272h-341.333c-11.776 0-21.333-9.557-21.333-21.333v-853.333c0-11.776 9.557-21.333 21.333-21.333h597.333c11.776 0 21.333 9.557 21.333 21.333v597.333zM597.333 661.333v256l256-256h-256z" />
<glyph unicode="&#xe943;" glyph-name="delete-1-filled" d="M512 960c-282.325 0-512-229.632-512-512 0-282.283 229.675-512 512-512s512 229.717 512 512c0 282.368-229.675 512-512 512zM525.696 85.888c-90.795 0-151.296 29.952-217.131 74.795l490.795 490.795c29.013-42.667 74.752-108.16 74.752-217.131 0-192.128-156.288-348.459-348.416-348.459zM497.792 810.667c90.581 0 151.253-29.824 217.131-74.752l-490.837-490.795c-29.099 42.667-74.752 108.203-74.752 217.131 0 192.128 156.331 348.416 348.459 348.416z" />
<glyph unicode="&#xe944;" glyph-name="delete-2-filled" d="M512 478.165l285.739 285.739c-75.733 68.565-175.787 110.763-285.739 110.763s-210.005-42.197-285.739-110.763l285.739-285.739zM512 417.835l-285.739-285.781c75.733-68.565 175.787-110.72 285.739-110.72s210.005 42.155 285.739 110.763l-285.739 285.739zM481.835 448l-285.739 285.739c-68.608-75.733-110.763-175.744-110.763-285.739s42.155-210.005 110.763-285.739l285.739 285.739zM512 960c-282.752 0-512-229.248-512-512s229.248-512 512-512c282.752 0 512 229.248 512 512s-229.248 512-512 512zM512-21.333c-258.773 0-469.333 210.517-469.333 469.333 0 258.773 210.56 469.333 469.333 469.333s469.333-210.56 469.333-469.333c0-258.816-210.56-469.333-469.333-469.333zM827.904 733.739l-285.739-285.739 285.739-285.739c68.608 75.733 110.763 175.744 110.763 285.739s-42.155 210.005-110.763 285.739z" />
<glyph unicode="&#xe945;" glyph-name="download-2-filled" d="M981.333 246.699c-23.595 0-42.667-19.115-42.667-42.667v-81.621c0-44.544-37.589-101.077-79.787-101.077h-693.803c-42.197 0-79.744 56.533-79.744 101.077v81.621c0 23.552-19.115 42.667-42.667 42.667-23.595 0-42.667-19.115-42.667-42.667v-81.621c0-87.979 70.571-186.411 165.077-186.411h693.803c94.507 0 165.12 98.432 165.12 186.411v81.621c0 23.552-19.115 42.667-42.667 42.667zM481.792 178.56c15.573-15.915 43.008-17.408 60.373 0l298.667 298.624c16.683 16.683 16.683 43.648 0 60.331s-43.691 16.683-60.331 0l-225.835-225.835v605.653c0 23.552-19.115 42.667-42.667 42.667-23.595 0-42.667-19.115-42.667-42.667v-605.653l-225.835 225.835c-16.683 16.683-43.691 16.683-60.331 0-16.683-16.683-16.683-43.691 0-60.331l298.624-298.624z" />
<glyph unicode="&#xe946;" glyph-name="expand-5-filled" d="M981.333 960h-217.6c-25.6 0-42.667-17.067-42.667-42.667s17.067-42.667 42.667-42.667h110.933l-388.267-388.267c-17.067-17.067-17.067-42.667 0-59.733 8.533-8.533 21.333-12.8 29.867-12.8s21.333 4.267 29.867 12.8l392.533 388.267v-110.933c0-25.6 17.067-42.667 42.667-42.667s42.667 17.067 42.667 42.667v213.333c0 25.6-17.067 42.667-42.667 42.667zM853.333 64h-682.667c-25.6 0-42.667 17.067-42.667 42.667v682.667c0 25.6 17.067 42.667 42.667 42.667h384c25.6 0 42.667-17.067 42.667-42.667s-17.067-42.667-42.667-42.667h-341.333v-597.333h597.333v341.333c0 25.6 17.067 42.667 42.667 42.667s42.667-17.067 42.667-42.667v-384c0-25.6-17.067-42.667-42.667-42.667z" />
<glyph unicode="&#xe947;" glyph-name="expand-6-filled" d="M832 810.667h-200.533c-25.6 0-42.667-17.067-42.667-42.667s17.067-42.667 42.667-42.667h98.133l-234.667-234.667c-17.067-17.067-17.067-42.667 0-59.733 8.533-8.533 21.333-12.8 29.867-12.8s21.333 4.267 29.867 12.8l234.667 234.667v-98.133c0-25.6 17.067-42.667 42.667-42.667s42.667 17.067 42.667 42.667v200.533c0 25.6-17.067 42.667-42.667 42.667zM832 409.6c-25.6 0-42.667-17.067-42.667-42.667v-196.267h-554.667v554.667h192c25.6 0 42.667 17.067 42.667 42.667s-17.067 42.667-42.667 42.667h-234.667c-25.6 0-42.667-17.067-42.667-42.667v-640c0-25.6 17.067-42.667 42.667-42.667h640c25.6 0 42.667 17.067 42.667 42.667v238.933c0 25.6-17.067 42.667-42.667 42.667z" />
<glyph unicode="&#xe948;" glyph-name="expand-all-1-filled" d="M768 234.667v426.667c0 23.552-19.072 42.667-42.667 42.667h-426.667c-23.595 0-42.667-19.115-42.667-42.667v-426.667c0-23.595 19.072-42.667 42.667-42.667h426.667c23.595 0 42.667 19.072 42.667 42.667zM682.667 277.333h-341.333v341.333h341.333v-341.333zM256 960h-213.333c-23.595 0-42.667-19.072-42.667-42.667v-213.333c0-23.595 19.072-42.667 42.667-42.667s42.667 19.072 42.667 42.667v110.336l97.835-97.835c16.683-16.683 43.648-16.683 60.331 0s16.683 43.648 0 60.331l-97.835 97.835h110.336c23.595 0 42.667 19.072 42.667 42.667s-19.072 42.667-42.667 42.667zM1024 704v213.333c0 23.595-19.072 42.667-42.667 42.667h-213.333c-23.595 0-42.667-19.072-42.667-42.667s19.072-42.667 42.667-42.667h110.336l-97.835-97.835c-16.683-16.683-16.683-43.648 0-60.331s43.648-16.683 60.331 0l97.835 97.835v-110.336c0-23.595 19.072-42.667 42.667-42.667s42.667 19.072 42.667 42.667zM768-64h213.333c23.595 0 42.667 19.072 42.667 42.667v213.333c0 23.595-19.072 42.667-42.667 42.667s-42.667-19.072-42.667-42.667v-110.336l-97.835 97.835c-16.683 16.683-43.648 16.683-60.331 0s-16.683-43.648 0-60.331l97.835-97.835h-110.336c-23.595 0-42.667-19.072-42.667-42.667s19.072-42.667 42.667-42.667zM0 192v-213.333c0-23.595 19.072-42.667 42.667-42.667h213.333c23.595 0 42.667 19.072 42.667 42.667s-19.072 42.667-42.667 42.667h-110.336l97.835 97.835c16.683 16.683 16.683 43.648 0 60.331s-43.648 16.683-60.331 0l-97.835-97.835v110.336c0 23.595-19.072 42.667-42.667 42.667s-42.667-19.072-42.667-42.667z" />
<glyph unicode="&#xe949;" glyph-name="expand-diagonal-4-filled" d="M416.683 414.677l-331.349-332.757v174.080c0 23.552-19.072 42.667-42.667 42.667s-42.667-19.115-42.667-42.667v-277.419c0-23.595 19.371-42.581 42.667-42.581h277.333c23.595 0 42.667 19.072 42.667 42.667 0 23.552-19.072 42.667-42.667 42.667h-174.635l331.733 333.141c16.64 16.725 16.597 43.691-0.128 60.373-16.64 16.555-43.691 16.512-60.288-0.171zM607.317 481.323l331.349 332.757v-174.080c0-23.552 19.072-42.667 42.667-42.667s42.667 19.115 42.667 42.667v277.419c0 23.595-19.371 42.581-42.667 42.581h-277.333c-23.595 0-42.667-19.072-42.667-42.667 0-23.552 19.072-42.667 42.667-42.667h174.635l-331.733-333.141c-16.64-16.725-16.597-43.691 0.128-60.373 16.64-16.555 43.691-16.512 60.288 0.171z" />
<glyph unicode="&#xe94a;" glyph-name="expand-horizontal-4-filled" d="M823.211 349.995c-16.683-16.683-16.683-43.691 0-60.331 16.683-16.683 43.691-16.683 60.288 0l128.043 128.341c17.664 18.048 15.531 44.843 0 60.373l-128.043 127.957c-16.64 16.683-43.605 16.683-60.288 0-16.683-16.64-16.683-43.648 0-60.331l55.125-55.168h-323.627v426.496c0 23.595-19.115 42.667-42.667 42.667-23.595 0-42.667-19.072-42.325-42.667v-426.496h-324.011l55.125 55.168c16.683 16.683 16.683 43.691 0 60.331-16.64 16.683-43.605 16.683-60.288 0l-128-127.957c-16.085-15.744-17.237-43.136 0-60.373l128-128c16.683-16.683 43.648-16.683 60.288 0 16.683 16.683 16.683 43.691 0 60.331l-55.125 55.168h324.011v-426.837c-0.341-23.552 18.731-42.667 42.325-42.667 23.552 0 42.667 19.115 42.667 42.667v426.837h323.627l-55.125-55.509z" />
<glyph unicode="&#xe94b;" glyph-name="expand-horizontal-6-filled" d="M883.499 606.165c-16.683 16.683-43.648 16.683-60.331 0s-16.683-43.648 0-60.331l55.168-55.168h-238.336v426.667c0 23.552-19.072 42.667-42.667 42.667s-42.667-19.115-42.667-42.667v-938.667c0-23.595 19.072-42.667 42.667-42.667s42.667 19.072 42.667 42.667v426.667h238.336l-55.168-55.168c-16.683-16.683-16.683-43.648 0-60.331s43.648-16.683 60.331 0l128 128c16.683 16.683 16.683 43.648 0 60.331l-128 128zM140.501 606.165c16.683 16.683 43.648 16.683 60.331 0s16.683-43.648 0-60.331l-55.168-55.168h238.336v426.667c0 23.552 19.072 42.667 42.667 42.667s42.667-19.115 42.667-42.667v-938.667c0-23.595-19.072-42.667-42.667-42.667s-42.667 19.072-42.667 42.667v426.667h-238.336l55.168-55.168c16.683-16.683 16.683-43.648 0-60.331s-43.648-16.683-60.331 0l-128 128c-16.683 16.683-16.683 43.648 0 60.331l128 128z" />
<glyph unicode="&#xe94c;" glyph-name="expand-vertical-2-filled" d="M695.168 222.165l-140.501-140.501v732.672l140.501-140.501c16.683-16.683 43.648-16.683 60.331 0s16.683 43.648 0 60.331l-213.333 213.333c-16.683 16.683-43.648 16.683-60.331 0l-213.333-213.333c-16.683-16.683-16.683-43.648 0-60.331s43.648-16.683 60.331 0l140.501 140.501v-732.672l-140.501 140.501c-16.683 16.683-43.648 16.683-60.331 0s-16.683-43.648 0-60.331l213.333-213.333c16.683-16.683 43.648-16.683 60.331 0l213.333 213.333c16.683 16.683 16.683 43.648 0 60.331s-43.648 16.683-60.331 0z" />
<glyph unicode="&#xe94d;" glyph-name="expand-vertical-4-filled" d="M610.176 758.827c16.683-16.683 43.691-16.683 60.331 0 16.683 16.683 16.683 43.648 0 60.288l-128.341 128.043c-18.048 17.664-44.843 15.531-60.373 0l-127.957-128.043c-16.683-16.64-16.683-43.605 0-60.288 16.64-16.683 43.648-16.683 60.331 0l55.168 55.125v-323.627h-426.496c-23.595 0-42.667-19.115-42.667-42.667 0-23.595 19.072-42.667 42.667-42.325h426.496v-324.011l-55.168 55.125c-16.683 16.683-43.691 16.683-60.331 0-16.683-16.64-16.683-43.605 0-60.288l127.957-128c15.744-16.085 43.136-17.237 60.373 0l128 128c16.683 16.683 16.683 43.648 0 60.288-16.683 16.683-43.691 16.683-60.331 0l-55.168-55.125v324.011h426.837c23.552-0.341 42.667 18.731 42.667 42.325 0 23.552-19.115 42.667-42.667 42.667h-426.837v323.627l55.509-55.125z" />
<glyph unicode="&#xe94e;" glyph-name="expand-vertical-6-filled" d="M670.165 76.501c16.683 16.683 16.683 43.648 0 60.331s-43.648 16.683-60.331 0l-55.168-55.168v238.336h426.667c23.552 0 42.667 19.072 42.667 42.667s-19.115 42.667-42.667 42.667h-938.667c-23.595 0-42.667-19.072-42.667-42.667s19.072-42.667 42.667-42.667h426.667v-238.336l-55.168 55.168c-16.683 16.683-43.648 16.683-60.331 0s-16.683-43.648 0-60.331l128-128c16.683-16.683 43.648-16.683 60.331 0l128 128zM670.165 819.499c16.683-16.683 16.683-43.648 0-60.331s-43.648-16.683-60.331 0l-55.168 55.168v-238.336h426.667c23.552 0 42.667-19.072 42.667-42.667s-19.115-42.667-42.667-42.667h-938.667c-23.595 0-42.667 19.072-42.667 42.667s19.072 42.667 42.667 42.667h426.667v238.336l-55.168-55.168c-16.683-16.683-43.648-16.683-60.331 0s-16.683 43.648 0 60.331l128 128c16.683 16.683 43.648 16.683 60.331 0l128-128z" />
<glyph unicode="&#xe94f;" glyph-name="file-checklist-filled" d="M889.771 697.728l-256 256c-4.011 4.011-9.429 6.272-15.104 6.272h-469.333c-11.776 0-21.333-9.515-21.333-21.333v-981.333c0-11.733 9.557-21.333 21.333-21.333h725.333c11.776 0 21.333 9.6 21.333 21.333v725.333c0 5.675-2.261 11.093-6.229 15.061zM463.104 219.563l-106.667-106.667c-8.32-8.32-21.845-8.32-30.165 0l-64 64c-8.32 8.32-8.32 21.845 0 30.165s21.845 8.32 30.165 0l48.896-48.896 91.563 91.563c8.32 8.32 21.845 8.32 30.165 0 8.363-8.32 8.363-21.803 0.043-30.165zM463.104 411.563l-106.667-106.667c-8.32-8.32-21.845-8.32-30.165 0l-64 64c-8.32 8.32-8.32 21.845 0 30.165s21.845 8.32 30.165 0l48.896-48.896 91.563 91.605c8.32 8.32 21.845 8.32 30.165 0s8.363-21.845 0.043-30.208zM463.104 603.563l-106.667-106.667c-8.32-8.32-21.845-8.32-30.165 0l-64 64c-8.32 8.32-8.32 21.845 0 30.165s21.845 8.32 30.165 0l48.896-48.896 91.563 91.605c8.32 8.32 21.845 8.32 30.165 0s8.363-21.845 0.043-30.208zM704 149.333h-170.667c-11.776 0-21.333 9.6-21.333 21.333 0 11.819 9.557 21.333 21.333 21.333h170.667c11.776 0 21.333-9.515 21.333-21.333 0-11.733-9.557-21.333-21.333-21.333zM704 320h-170.667c-11.776 0-21.333 9.6-21.333 21.333 0 11.819 9.557 21.333 21.333 21.333h170.667c11.776 0 21.333-9.515 21.333-21.333 0-11.733-9.557-21.333-21.333-21.333zM704 490.667h-170.667c-11.776 0-21.333 9.6-21.333 21.333 0 11.819 9.557 21.333 21.333 21.333h170.667c11.776 0 21.333-9.515 21.333-21.333 0-11.733-9.557-21.333-21.333-21.333zM597.333 661.333v256l256-256h-256z" />
<glyph unicode="&#xe950;" glyph-name="file-new-1-filled" d="M889.771 697.728l-256 256c-4.011 4.011-9.472 6.272-15.104 6.272h-469.333c-11.776 0-21.333-9.557-21.333-21.333v-981.333c0-11.776 9.557-21.333 21.333-21.333h725.333c11.776 0 21.333 9.557 21.333 21.333v725.333c0 5.675-2.261 11.093-6.229 15.061zM597.333 661.333v256l256-256h-256z" />
<glyph unicode="&#xe951;" glyph-name="filter-2-filled" d="M1002.667 960h-981.333c-18.048 0-27.947-21.035-16.469-34.944l421.803-509.952v-457.771c0-19.072 23.083-28.416 36.437-15.104l128 128c3.968 3.968 6.229 9.429 6.229 15.104v329.771l421.76 509.952c11.392 13.739 1.664 34.944-16.427 34.944z" />
<glyph unicode="&#xe952;" glyph-name="flag-square-2-filled" d="M874.667 789.333h-362.667v106.667c0 11.776-9.6 21.333-21.333 21.333h-298.667c-11.776 0-21.333-9.557-21.333-21.333v-512c0-11.776 9.557-21.333 21.333-21.333h106.667v-106.667c0-11.776 9.557-21.333 21.333-21.333h554.667c11.733 0 21.333 9.557 21.333 21.333v512c0 11.776-9.6 21.333-21.333 21.333zM341.333 308.907v53.76h101.419c-43.989-19.243-77.483-37.12-101.419-53.76zM85.333 960c-23.595 0-42.667-19.115-42.667-42.667v-938.667c0-23.552 19.072-42.667 42.667-42.667s42.667 19.115 42.667 42.667v938.667c0 23.552-19.072 42.667-42.667 42.667z" />
<glyph unicode="&#xe953;" glyph-name="flag-square-3-filled" d="M917.333 917.333h-725.333c-11.776 0-21.333-9.557-21.333-21.333v-512c0-11.776 9.557-21.333 21.333-21.333h725.333c11.733 0 21.333 9.557 21.333 21.333v512c0 11.776-9.6 21.333-21.333 21.333zM85.333 960c-23.595 0-42.667-19.115-42.667-42.667v-938.667c0-23.552 19.072-42.667 42.667-42.667s42.667 19.115 42.667 42.667v938.667c0 23.552-19.072 42.667-42.667 42.667z" />
<glyph unicode="&#xe954;" glyph-name="flow-chart-1-filled" d="M1002.667 277.333c11.776 0 21.333 9.557 21.333 21.333v128c0 11.776-9.557 21.333-21.333 21.333h-234.667v42.667c0 47.019-38.272 85.333-85.333 85.333h-298.667c-23.552 0-42.667 19.115-42.667 42.667v170.667h234.667c11.776 0 21.333 9.557 21.333 21.333v128c0 11.776-9.557 21.333-21.333 21.333h-554.667c-11.776 0-21.333-9.557-21.333-21.333v-128c0-11.776 9.557-21.333 21.333-21.333h277.333v-170.667c0-47.061 38.272-85.333 85.333-85.333h298.667c23.509 0 42.667-19.115 42.667-42.667v-42.667h-277.333c-11.776 0-21.333-9.557-21.333-21.333v-128c0-11.776 9.557-21.333 21.333-21.333h277.333v-170.667h-277.333c-11.776 0-21.333-9.557-21.333-21.333v-128c0-11.776 9.557-21.333 21.333-21.333h554.667c11.776 0 21.333 9.557 21.333 21.333v128c0 11.776-9.557 21.333-21.333 21.333h-234.667v170.667h234.667z" />
<glyph unicode="&#xe955;" glyph-name="flow-chart-3-filled" d="M774.869 311.296l-150.656 301.227c48.213 34.901 79.787 91.52 79.787 155.435 0 105.899-86.144 192.043-192 192.043s-192-86.144-192-192.043c0-63.915 31.531-120.491 79.744-155.435l-150.571-301.227c-123.52 38.699-249.173-54.357-249.173-183.296 0-105.856 86.144-192 192-192 98.645 0 180.096 74.795 190.72 170.667h258.56c10.667-95.872 92.075-170.667 190.763-170.667 105.856 0 192 86.144 192 192-0.043 129.28-126.123 221.952-249.173 183.296zM641.237 149.333h-258.517c-6.869 61.781-43.221 114.688-94.549 144.597l148.651 297.429c48.597-20.736 103.168-20.181 150.272 0l148.693-297.387c-51.328-29.952-87.68-82.859-94.549-144.64z" />
<glyph unicode="&#xe956;" glyph-name="flowchart-filled" d="M896 960v-256h-213.333v64c0 11.776-9.557 21.333-21.333 21.333h-554.667c-11.776 0-21.333-9.557-21.333-21.333v-170.667c0-11.776 9.557-21.333 21.333-21.333h554.667c11.776 0 21.333 9.557 21.333 21.333v64h213.333v-256h-213.333v64c0 11.776-9.557 21.333-21.333 21.333h-554.667c-11.776 0-21.333-9.557-21.333-21.333v-170.667c0-11.776 9.557-21.333 21.333-21.333h554.667c11.776 0 21.333 9.557 21.333 21.333v64h213.333v-256h-213.333v64c0 11.776-9.557 21.333-21.333 21.333h-554.667c-11.776 0-21.333-9.557-21.333-21.333v-170.667c0-11.776 9.557-21.333 21.333-21.333h554.667c11.776 0 21.333 9.557 21.333 21.333v64h234.667c11.776 0 21.333 9.557 21.333 21.333v874.667h-42.667z" />
<glyph unicode="&#xe957;" glyph-name="folder-1-filled" d="M1002.667 704h-106.667v64c0 11.776-9.557 21.333-21.333 21.333h-533.333v64c0 11.776-9.557 21.333-21.333 21.333h-298.667c-11.776 0-21.333-9.557-21.333-21.333v-704c0-70.571 57.429-128 128-128h746.667c82.347 0 149.333 66.987 149.333 149.333v512c0 11.776-9.557 21.333-21.333 21.333zM853.333 704h-618.667c-11.776 0-21.333-9.557-21.333-21.333v-533.333c0-47.061-38.272-85.333-85.333-85.333-47.019 0-85.333 38.272-85.333 85.333v682.667h256v-64c0-11.776 9.557-21.333 21.333-21.333h533.333v-42.667z" />
<glyph unicode="&#xe958;" glyph-name="folder-2-filled" d="M1002.667 789.333h-588.501l-79.104 79.061c-3.968 4.011-9.387 6.272-15.061 6.272h-298.667c-11.776 0-21.333-9.557-21.333-21.333v-810.667c0-11.776 9.557-21.333 21.333-21.333h981.333c11.776 0 21.333 9.557 21.333 21.333v725.333c0 11.776-9.557 21.333-21.333 21.333z" />
<glyph unicode="&#xe959;" glyph-name="graph-bar-1-filled" d="M1002.667-21.333h-960v85.333h789.333c11.776 0 21.333 9.557 21.333 21.333v170.667c0 11.776-9.557 21.333-21.333 21.333h-789.333v85.333h533.333c11.776 0 21.333 9.557 21.333 21.333v170.667c0 11.776-9.557 21.333-21.333 21.333h-533.333v85.333h533.333c11.776 0 21.333 9.557 21.333 21.333v170.667c0 11.776-9.557 21.333-21.333 21.333h-533.333v64c0 11.776-9.557 21.333-21.333 21.333s-21.333-9.557-21.333-21.333v-981.333c0-11.776 9.557-21.333 21.333-21.333h981.333c11.776 0 21.333 9.557 21.333 21.333s-9.557 21.333-21.333 21.333z" />
<glyph unicode="&#xe95a;" glyph-name="graph-bar-line-filled" d="M1002.667-21.333h-21.333v618.667c0 11.776-9.6 21.333-21.333 21.333h-128c-11.776 0-21.333-9.557-21.333-21.333v-618.667h-85.333v320c0 11.776-9.6 21.333-21.333 21.333h-128c-11.776 0-21.333-9.557-21.333-21.333v-320h-85.333v405.333c0 11.776-9.6 21.333-21.333 21.333h-128c-11.776 0-21.333-9.557-21.333-21.333v-405.333h-85.333v192c0 11.776-9.6 21.333-21.333 21.333h-128c-11.776 0-21.333-9.557-21.333-21.333v-192h-21.333c-11.776 0-21.333-9.557-21.333-21.333 0-11.733 9.557-21.333 21.333-21.333h981.333c11.733 0 21.333 9.6 21.333 21.333 0 11.776-9.6 21.333-21.333 21.333zM128 405.333c43.136 0 75.776 42.88 59.819 86.101l163.669 136.405c29.269-17.323 63.36-9.045 82.688 15.616l141.952-47.275c0.64-34.731 28.971-62.848 63.872-62.848 47.659 0 80.597 51.627 55.253 95.744l177.792 207.403c42.837-16.683 86.955 15.659 86.955 59.52 0 35.328-28.757 64-64 64-47.872 0-80.469-51.797-55.296-95.701l-177.749-207.403c-27.904 10.624-56.192 1.237-73.173-20.352l-141.909 47.275c-0.683 34.731-29.013 62.848-63.872 62.848-43.648 0-75.733-43.605-59.819-86.101l-163.712-136.405c-43.477 25.813-96.469-6.187-96.469-54.827 0-35.285 28.715-64 64-64z" />
<glyph unicode="&#xe95b;" glyph-name="graph-filled" d="M939.349 952.405c-66.517 23.979-139.819-10.496-163.755-77.099-21.504-59.605 4.181-124.373 57.685-154.496l-106.709-296.448c-37.845 6.784-75.648-4.011-104.107-27.648l-107.776 92.416c35.072 58.368 18.603 134.443-38.699 172.373-59.008 38.997-138.453 22.784-177.451-36.181-36.608-55.339-24.064-128.384 26.368-169.472l-153.6-271.829c-57.728 20.907-123.605-1.92-154.752-57.131-34.816-61.525-13.099-139.563 48.512-174.336 61.525-34.816 139.648-13.099 174.421 48.469 31.147 55.253 16.683 123.435-30.976 162.005l153.429 271.531c42.709-15.36 90.155-6.656 124.843 22.187l107.563-92.203c-41.984-70.229-8.747-159.232 66.347-186.283 66.517-23.979 139.819 10.496 163.755 77.056 21.504 59.648-4.224 124.459-57.728 154.581l106.709 296.448c60.373-10.923 121.515 22.613 143.019 82.304 23.936 66.517-10.581 139.819-77.099 163.755z" />
<glyph unicode="&#xe95c;" glyph-name="graph-line-1-filled" d="M1002.667-21.333h-981.333c-11.776 0-21.333 9.557-21.333 21.333v853.333c0 11.776 9.557 21.333 21.333 21.333s21.333-9.557 21.333-21.333v-832h960c11.776 0 21.333-9.557 21.333-21.333s-9.557-21.333-21.333-21.333zM682.667 106.667c-72.107 0-133.845 51.499-146.731 122.453l-7.851 43.392c-2.091 11.605 5.589 22.656 17.195 24.832 10.965 2.091 22.656-5.547 24.789-17.195l7.851-43.392c9.216-50.688 53.248-87.424 104.747-87.424 11.776 0 21.333-9.557 21.333-21.333s-9.557-21.333-21.333-21.333zM128 106.667c-11.776 0-21.333 9.557-21.333 21.333s9.557 21.333 21.333 21.333c51.499 0 95.531 36.736 104.747 87.424l50.987 280.363c10.667 58.88 61.867 101.547 121.6 101.547 26.965 0 52.651-8.576 74.283-24.875 9.429-7.040 11.307-20.437 4.224-29.867s-20.395-11.264-29.867-4.224c-14.165 10.667-30.976 16.299-48.64 16.299-39.125 0-72.576-27.947-79.573-66.475l-51.029-280.405c-12.885-70.955-74.624-122.453-146.731-122.453zM896 106.667c-72.107 0-133.845 51.499-146.773 122.453l-50.987 280.405c-6.997 38.528-40.448 66.475-79.573 66.475s-72.576-27.947-79.573-66.475l-50.987-280.405c-12.928-70.955-74.667-122.453-146.773-122.453-11.776 0-21.333 9.557-21.333 21.333s9.557 21.333 21.333 21.333c51.499 0 95.531 36.736 104.747 87.424l50.987 280.363c10.667 58.88 61.867 101.547 121.6 101.547s110.933-42.667 121.6-101.504l50.987-280.363c9.216-50.731 53.248-87.467 104.747-87.467 11.776 0 21.333-9.557 21.333-21.333s-9.557-21.333-21.333-21.333z" />
<glyph unicode="&#xe95d;" glyph-name="graph-line-2-filled" d="M938.667 341.333c47.061 0 85.333 38.315 85.333 85.333 0 47.061-38.272 85.333-85.333 85.333-54.443 0-97.792-51.712-81.792-108.373l-150.741-87.893c-46.677 47.403-126.421 25.685-143.104-38.4h-151.381c-9.557 36.693-42.667 64-82.304 64-54.571 0-98.603-52.181-81.323-109.781l-205.355-134.955v340.693l260.523 158.037c38.613-37.717 101.845-30.891 131.328 15.403l168.277-54.315c0-52.181 40.661-87.083 85.163-87.083 70.229 0 111.019 80.725 67.243 137.216l145.067 184.277c58.283-29.611 123.733 13.867 123.733 75.819 0 47.061-38.272 85.333-85.333 85.333s-85.333-38.272-85.333-85.333c0-17.707 5.461-34.219 14.763-47.872l-146.347-185.813c-10.325 4.48-21.76 7.040-33.749 7.040-31.403 0-58.581-17.237-73.429-42.581l-167.083 53.931c2.645 52.821-38.741 90.325-84.821 90.325-55.168 0-98.517-52.864-81.365-109.696l-238.635-144.725v430.080c0 11.776-9.557 21.333-21.333 21.333s-21.333-9.557-21.333-21.333v-960c0-11.776 9.557-21.333 21.333-21.333h960c11.776 0 21.333 9.557 21.333 21.333s-9.557 21.333-21.333 21.333h-938.667v66.859l227.285 149.376c46.891-45.696 125.184-23.68 141.653 39.765h151.424c9.557-36.693 42.667-64 82.304-64 54.656 0 97.664 51.925 81.877 107.989l150.912 87.979c15.445-15.616 36.864-25.301 60.544-25.301z" />
<glyph unicode="&#xe95e;" glyph-name="graph-line-3-filled" d="M298.667 362.667h170.667v97.707l-170.667 81.749zM298.667 320h170.667v-128h-170.667zM256 362.667v157.909l-142.72-157.909zM682.667 533.333v66.603l-83.328-66.603zM512 463.531v-100.864h170.667v128h-136.747zM512 320h170.667v-128h-170.667zM832 917.333h-682.667c-58.837 0-106.667-47.872-106.667-106.667v-725.333c0-58.795 47.829-106.667 106.667-106.667h682.667c58.837 0 106.667 47.872 106.667 106.667v725.333c0 58.795-47.829 106.667-106.667 106.667zM896 490.667h-170.667v-128h170.667v-42.667h-170.667v-128h170.667v-42.667h-170.667v-128h-42.667v128h-170.667v-128h-42.667v128h-170.667v-128h-42.667v128h-170.667v42.667h170.667v128h-170.667v490.667c0 35.285 28.715 64 64 64h682.667c35.285 0 64-28.715 64-64v-134.784l-170.667-47.744v-94.805h170.667v-42.667z" />
<glyph unicode="&#xe95f;" glyph-name="graph-pie-2-filled" d="M576 490.667h426.667c11.733 0 21.333 9.6 21.333 21.333 0 247.040-201.003 448-448 448-11.776 0-21.333-9.557-21.333-21.333v-426.667c0-11.733 9.557-21.333 21.333-21.333zM1002.667 448h-426.667c-18.859 0-28.587-22.912-15.104-36.437l301.696-301.696c8.192-8.192 21.632-8.448 30.165 0 84.608 84.608 131.243 197.12 131.243 316.8 0 11.776-9.6 21.333-21.333 21.333zM469.333 392.875v417.792c0 11.776-9.6 21.333-21.333 21.333-247.040 0-448-200.96-448-448s200.96-448 448-448c119.68 0 232.149 46.592 316.8 131.243 8.32 8.363 8.32 21.845 0 30.165l-295.467 295.467z" />
<glyph unicode="&#xe960;" glyph-name="headphone-filled" d="M938.667 531.157v23.509c0 58.837-47.872 106.667-106.667 106.667h-1.067c-11.051 166.485-149.675 298.667-318.933 298.667s-307.883-132.181-318.933-298.667h-1.067c-58.795 0-106.667-47.829-106.667-106.667v-23.509c-48.64-9.899-85.333-52.949-85.333-104.491s36.693-94.592 85.333-104.491v-23.509c0-58.837 47.872-106.667 106.667-106.667h85.333c11.776 0 21.333 9.557 21.333 21.333v426.667c0 11.776-9.557 21.333-21.333 21.333h-41.6c10.965 142.976 130.56 256 276.267 256s265.301-113.024 276.267-256h-41.6c-11.776 0-21.333-9.557-21.333-21.333v-426.667c0-11.776 9.557-21.333 21.333-21.333h85.333c0-70.571-57.429-128-128-128h-44.8c-9.899 48.725-52.907 85.333-104.533 85.333-58.923 0-106.667-47.744-106.667-106.667s47.744-106.667 106.667-106.667c51.627 0 94.635 36.608 104.533 85.333h44.8c87.211 0 170.667 66.56 170.667 179.712 37.589 16.512 64 54.016 64 97.621v23.509c48.64 9.899 85.333 52.949 85.333 104.491s-36.693 94.592-85.333 104.491z" />
<glyph unicode="&#xe961;" glyph-name="help-circle-filled" d="M490.667 917.333c-271.019 0-490.667-219.648-490.667-490.667s219.648-490.667 490.667-490.667c271.019 0 490.667 219.648 490.667 490.667s-219.648 490.667-490.667 490.667zM490.667 149.333c-23.595 0-42.667 19.072-42.667 42.667 0 23.552 19.072 42.667 42.667 42.667 23.509 0 42.667-19.115 42.667-42.667 0-23.595-19.157-42.667-42.667-42.667zM512 406.827v-108.16c0-11.776-9.6-21.333-21.333-21.333-11.776 0-21.333 9.557-21.333 21.333v128c0 11.776 9.557 21.333 21.333 21.333 58.795 0 106.667 47.829 106.667 106.667s-47.872 106.667-106.667 106.667c-58.837 0-106.667-47.829-106.667-106.667 0-11.776-9.6-21.333-21.333-21.333-11.776 0-21.333 9.557-21.333 21.333 0 82.347 66.944 149.333 149.333 149.333 82.347 0 149.333-66.987 149.333-149.333 0-75.093-55.765-137.429-128-147.84z" />
<glyph unicode="&#xe962;" glyph-name="hide-filled" d="M1020.288 439.979c-1.323 2.901-33.323 72.491-121.131 143.659-18.304 14.848-45.141 12.032-60.032-6.315-14.848-18.219-11.989-45.141 6.272-59.947 43.861-35.584 70.571-70.059 84.523-91.264-51.157-61.995-214.656-238.336-417.92-238.336-18.816 0-38.144 1.536-57.515 4.523-23.253 3.669-45.099-12.331-48.725-35.627-3.584-23.211 12.331-45.141 35.584-48.725 23.68-3.669 47.403-5.547 70.656-5.547 289.579 0 495.403 283.093 503.979 295.168 8.875 12.416 10.496 28.587 4.309 42.411zM122.624 263.125c18.133-14.891 44.971-12.288 60.032 6.059 14.891 18.261 12.16 45.184-6.144 60.032-42.837 34.987-68.821 68.693-82.56 89.557 51.157 61.909 214.741 238.336 418.048 238.336 13.099 0 26.496-0.725 39.936-2.176 23.467-2.645 44.501 14.336 47.061 37.803 2.603 23.381-14.336 44.416-37.76 47.019-16.469 1.749-33.067 2.688-49.237 2.688-289.621 0-495.403-283.093-504.064-295.211-8.747-12.288-10.411-28.288-4.267-42.155 1.28-2.859 32.341-71.381 118.955-141.952zM536.875 267.819c94.080 0 170.667 76.544 170.667 170.667 0 17.792-2.773 34.901-7.851 51.072l-213.888-213.931c16.128-5.077 33.323-7.808 51.072-7.808zM366.208 438.485c0-12.715 1.493-25.045 4.139-36.992l203.52 203.477c-11.904 2.603-24.235 4.139-36.949 4.139-94.165 0.043-170.709-76.544-170.709-170.624zM983.509 893.952c-15.616 15.915-42.539 17.152-59.563 0.683-0.256-0.213-0.555-0.384-0.811-0.683l-832-832c-15.061-11.904-18.304-42.197 0-60.331 0.043-0.043 0.128-0.085 0.171-0.171 16.085-15.872 43.904-15.872 59.947 0 0.043 0.043 0.128 0.085 0.213 0.171l832 832c16.768 16.896 16.512 43.861 0.043 60.331z" />
<glyph unicode="&#xe963;" glyph-name="home-1-filled" d="M859.563 646.229c4.096-4.053 9.557-6.229 15.104-6.229 11.733 0 21.333 9.557 21.333 21.333v192c0 11.819-9.557 21.333-21.333 21.333h-192c-8.619 0-16.427-5.205-19.712-13.184-3.328-7.979-1.493-17.109 4.608-23.253l192-192zM128 421.504v-485.504h298.667v298.667h170.667v-298.667h298.667v485.504l-384 384zM1018.155 419.755c-0.171 0.128-0.256 0.427-0.427 0.64l-490.667 490.667c-8.149 8.192-22.016 8.192-30.165 0l-490.667-490.667c-7.723-7.723-8.832-20.48-0.469-29.483 9.685-9.643 22.699-8.235 30.336-0.768 0.085 0 0.213 0.043 0.299 0.085l475.605 475.605 475.563-475.648c0.085-0.043 0.171-0.085 0.256-0.085 8.149-7.936 21.547-7.936 29.611 0 0.085 0 0.213 0.043 0.299 0.085 7.765 7.808 8.832 20.736 0.427 29.568z" />
<glyph unicode="&#xe964;" glyph-name="hourglass-1-filled" d="M874.667-21.333h-64v192c0 125.397-77.739 232.747-187.435 276.949 98.475 39.765 187.435 143.019 187.435 277.717v192h64c11.776 0 21.333 9.557 21.333 21.333s-9.557 21.333-21.333 21.333h-725.333c-11.776 0-21.333-9.557-21.333-21.333s9.557-21.333 21.333-21.333h64v-192c0-135.381 89.856-238.208 187.435-277.717-109.696-44.203-187.435-151.552-187.435-276.949v-192h-64c-11.776 0-21.333-9.557-21.333-21.333s9.557-21.333 21.333-21.333h725.333c11.776 0 21.333 9.557 21.333 21.333s-9.557 21.333-21.333 21.333zM304.512 576c-30.421 42.069-48.512 93.568-48.512 149.333v192h512v-192c0-55.765-18.091-107.264-48.469-149.333h-415.019zM768 149.333h-119.168l-121.728 121.771c-8.32 8.32-21.845 8.32-30.165 0l-121.771-121.771h-119.168v21.333c0 141.184 114.859 256 256 256s256-114.816 256-256v-21.333z" />
<glyph unicode="&#xe965;" glyph-name="information-circle-filled" d="M490.667 917.163c-270.592 0-490.667-220.075-490.667-490.667s220.075-490.667 490.667-490.667c270.549 0 490.667 220.075 490.667 490.667s-220.117 490.667-490.667 490.667zM469.333 703.829c23.509 0 42.667-19.115 42.667-42.667 0-23.595-19.157-42.667-42.667-42.667-23.595 0-42.667 19.072-42.667 42.667 0 23.552 19.072 42.667 42.667 42.667zM618.667 106.496h-256c-11.776 0-21.333 9.557-21.333 21.333s9.557 21.333 21.333 21.333h106.624v341.333h-63.957c-11.776 0-21.333 9.557-21.333 21.333s9.557 21.333 21.333 21.333h85.333c11.733 0 21.333-9.557 21.291-21.333v-362.667h106.709c11.733 0 21.333-9.557 21.333-21.333s-9.6-21.333-21.333-21.333z" />
<glyph unicode="&#xe966;" glyph-name="layout-1-filled" d="M0 896v-938.667c0-11.776 9.557-21.333 21.333-21.333h277.333v981.333h-277.333c-11.776 0-21.333-9.557-21.333-21.333zM960 917.333h-618.667v-981.333h618.667c11.733 0 21.333 9.557 21.333 21.333v938.667c0 11.776-9.6 21.333-21.333 21.333z" />
<glyph unicode="&#xe967;" glyph-name="layout-2-filled" d="M0 896v-938.667c0-11.776 9.557-21.333 21.333-21.333h618.667v981.333h-618.667c-11.776 0-21.333-9.557-21.333-21.333zM960 917.333h-277.333v-981.333h277.333c11.733 0 21.333 9.557 21.333 21.333v938.667c0 11.776-9.6 21.333-21.333 21.333z" />
<glyph unicode="&#xe968;" glyph-name="layout-3-filled" d="M0 896v-938.667c0-11.776 9.557-21.333 21.333-21.333h234.667v981.333h-234.667c-11.776 0-21.333-9.557-21.333-21.333zM298.667-64h661.333c11.733 0 21.333 9.557 21.333 21.333v448h-682.667v-469.333zM960 917.333h-661.333v-469.333h682.667v448c0 11.776-9.6 21.333-21.333 21.333z" />
<glyph unicode="&#xe969;" glyph-name="layout-4-filled" d="M0 896v-938.667c0-11.776 9.557-21.333 21.333-21.333h448v981.333h-448c-11.776 0-21.333-9.557-21.333-21.333zM960 917.333h-448v-981.333h448c11.776 0 21.333 9.557 21.333 21.333v938.667c0 11.776-9.557 21.333-21.333 21.333z" />
<glyph unicode="&#xe96a;" glyph-name="layout-5-filled" d="M960 917.333h-277.333v-981.333h277.333c11.776 0 21.333 9.557 21.333 21.333v938.667c0 11.776-9.557 21.333-21.333 21.333zM0 896v-938.667c0-11.776 9.557-21.333 21.333-21.333h277.333v981.333h-277.333c-11.776 0-21.333-9.557-21.333-21.333zM341.333 917.333h298.667v-981.333h-298.667z" />
<glyph unicode="&#xe96b;" glyph-name="layout-6-filled" d="M0-42.667c0-11.776 9.557-21.333 21.333-21.333h938.667c11.776 0 21.333 9.557 21.333 21.333v661.333h-981.333v-661.333zM960 917.333h-938.667c-11.776 0-21.333-9.557-21.333-21.333v-234.667h981.333v234.667c0 11.776-9.557 21.333-21.333 21.333z" />
<glyph unicode="&#xe96c;" glyph-name="layout-7-filled" d="M960 917.333h-938.667c-11.776 0-21.333-9.557-21.333-21.333v-234.667h981.333v234.667c0 11.776-9.557 21.333-21.333 21.333zM341.333-64h618.667c11.776 0 21.333 9.557 21.333 21.333v661.333h-640v-682.667zM0-42.667c0-11.776 9.557-21.333 21.333-21.333h277.333v682.667h-298.667v-661.333z" />
<glyph unicode="&#xe96d;" glyph-name="layout-8-filled" d="M0 618.667h469.333v-298.667h-469.333zM960 917.333h-938.667c-11.776 0-21.333-9.557-21.333-21.333v-234.667h981.333v234.667c0 11.776-9.557 21.333-21.333 21.333zM512-64h448c11.776 0 21.333 9.557 21.333 21.333v320h-469.333v-341.333zM512 618.667h469.333v-298.667h-469.333zM0-42.667c0-11.776 9.557-21.333 21.333-21.333h448v341.333h-469.333v-320z" />
<glyph unicode="&#xe96e;" glyph-name="layout-9-filled" d="M960 917.333h-938.667c-11.776 0-21.333-9.557-21.333-21.333v-234.667h981.333v234.667c0 11.776-9.6 21.333-21.333 21.333zM341.333 618.667h298.667v-682.667h-298.667zM682.667-64h277.333c11.733 0 21.333 9.557 21.333 21.333v661.333h-298.667v-682.667zM0-42.667c0-11.776 9.557-21.333 21.333-21.333h277.333v682.667h-298.667v-661.333z" />
<glyph unicode="&#xe96f;" glyph-name="layout-10-filled" d="M960 917.333h-938.667c-11.776 0-21.333-9.557-21.333-21.333v-234.667h981.333v234.667c0 11.776-9.6 21.333-21.333 21.333zM0-42.667c0-11.776 9.557-21.333 21.333-21.333h448v682.667h-469.333v-661.333zM512-64h448c11.733 0 21.333 9.557 21.333 21.333v661.333h-469.333v-682.667z" />
<glyph unicode="&#xe970;" glyph-name="layout-11-filled" d="M0-42.667c0-11.776 9.557-21.333 21.333-21.333h277.333v682.667h-298.667v-661.333zM341.333-64h618.667c11.733 0 21.333 9.557 21.333 21.333v320h-640v-341.333zM341.333 618.667h640v-298.667h-640zM960 917.333h-938.667c-11.776 0-21.333-9.557-21.333-21.333v-234.667h981.333v234.667c0 11.776-9.6 21.333-21.333 21.333z" />
<glyph unicode="&#xe971;" glyph-name="layout-12-filled" d="M960 917.333h-938.667c-11.776 0-21.333-9.557-21.333-21.333v-234.667h981.333v234.667c0 11.776-9.6 21.333-21.333 21.333zM0-42.667c0-11.776 9.557-21.333 21.333-21.333h618.667v682.667h-640v-661.333zM682.667-64h277.333c11.733 0 21.333 9.557 21.333 21.333v661.333h-298.667v-682.667z" />
<glyph unicode="&#xe972;" glyph-name="layout-none-filled" d="M960 917.333h-938.667c-11.776 0-21.333-9.557-21.333-21.333v-938.667c0-11.776 9.557-21.333 21.333-21.333h938.667c11.733 0 21.333 9.557 21.333 21.333v938.667c0 11.776-9.6 21.333-21.333 21.333z" />
<glyph unicode="&#xe973;" glyph-name="link-3-filled" d="M617.557 523.435l-30.123 30.123c-66.56 66.56-174.848 66.645-241.408 0.043l-196.139-196.139c-66.56-66.56-66.56-174.805 0-241.365l30.165-30.123c32.256-32.299 75.093-50.048 120.704-50.048 45.568 0 88.405 17.792 120.619 50.005l92.715 92.629c16.683 16.683 16.683 43.691 0 60.331-16.683 16.725-43.648 16.725-60.331 0l-92.715-92.587c-32.213-32.256-88.363-32.299-120.661 0l-30.165 30.123c-33.237 33.323-33.237 87.424 0 120.704l196.139 196.096c32.256 32.256 88.448 32.256 120.661 0l30.165-30.165c16.683-16.683 43.648-16.683 60.331 0s16.683 43.691 0.043 60.373zM874.069 779.904l-30.165 30.123c-32.256 32.299-75.093 50.048-120.704 50.048-45.568 0-88.405-17.835-120.619-50.005l-84.821-84.736c-16.683-16.683-16.683-43.691 0-60.331 16.683-16.725 43.648-16.725 60.331 0l84.821 84.651c32.213 32.256 88.363 32.299 120.661 0l30.165-30.123c33.237-33.28 33.237-87.424 0-120.704l-196.139-196.096c-32.256-32.256-88.448-32.256-120.661 0-16.683 16.683-43.691 16.683-60.331 0-16.683-16.683-16.725-43.648-0.043-60.331 66.56-66.645 174.848-66.645 241.365-0.043l196.139 196.139c66.56 66.56 66.56 174.848 0 241.408z" />
<glyph unicode="&#xe974;" glyph-name="link-broken-1-filled" d="M252.501 722.133c-10.923 0-21.845 4.139-30.165 12.501l-85.333 85.333c-16.683 16.683-16.683 43.648 0 60.331 16.683 16.64 43.648 16.64 60.331 0l85.333-85.333c16.683-16.683 16.683-43.648 0-60.331-8.32-8.32-19.243-12.501-30.165-12.501zM383.445 768.085c-23.552 0-42.667 19.072-42.112 42.667v106.667c-0.555 23.509 18.56 42.667 42.112 42.667s42.667-19.157 43.221-42.667v-106.667c-0.555-23.552-19.669-42.667-43.221-42.667zM208.768 576h-106.667c-23.552 0.128-42.667 19.2-42.667 42.795 0 23.509 19.115 42.667 42.667 42.539h106.667c23.552 0.128 42.667-19.029 42.667-42.539 0-23.595-19.115-42.709-42.667-42.795zM236.501-64c-49.152 0-98.347 18.731-135.765 56.107l-45.269 45.269c-74.837 74.837-74.837 196.693 0 271.488l145.195 145.195c16.683 16.597 43.648 16.597 60.331 0 16.683-16.64 16.683-43.648 0-60.331l-145.195-145.152c-41.6-41.643-41.6-109.269 0-150.869l45.227-45.227c41.643-41.643 109.312-41.643 150.869 0l145.195 145.152c16.683 16.64 43.648 16.64 60.331 0 16.683-16.683 16.683-43.648 0-60.331l-145.195-145.237c-37.376-37.376-86.528-56.064-135.723-56.064zM826.368 192.085h-190.933c-23.552 0-42.667 19.072-42.667 42.667 0 23.509 19.115 42.667 42.667 42.539h190.933c61.227 0.128 112.981 47.403 112.981 103.509v85.333c0 57.557-53.333 109.952-111.915 109.952h-192c-23.552 0-42.667 19.072-42.667 42.667 0 23.509 19.115 42.667 42.667 42.539h192c106.923 0.128 197.248-89.301 197.248-195.157v-85.333c0-104.064-88.96-188.715-198.315-188.715z" />
<glyph unicode="&#xe975;" glyph-name="list-bullets-1-filled" d="M191.265 840.31c41.656-41.656 41.656-109.193 0-150.849s-109.193-41.656-150.849 0c-41.656 41.656-41.656 109.193 0 150.849s109.193 41.656 150.849 0zM374.784 704h606.549c23.552 0 42.667 19.072 42.667 42.667 0 23.552-19.115 42.667-42.667 42.667h-606.549c-23.552 0-42.667-19.115-42.667-42.667 0-23.595 19.115-42.667 42.667-42.667zM191.265 498.977c41.656-41.656 41.656-109.193 0-150.849s-109.193-41.656-150.849 0c-41.656 41.656-41.656 109.193 0 150.849s109.193 41.656 150.849 0zM981.333 448h-606.549c-23.552 0-42.667-19.115-42.667-42.667 0-23.595 19.115-42.667 42.667-42.667h606.549c23.552 0 42.667 19.072 42.667 42.667 0 23.552-19.115 42.667-42.667 42.667zM191.265 157.644c41.656-41.656 41.656-109.193 0-150.849s-109.193-41.656-150.849 0c-41.656 41.656-41.656 109.193 0 150.849s109.193 41.656 150.849 0zM981.333 106.667h-606.549c-23.552 0-42.667-19.115-42.667-42.667 0-23.595 19.115-42.667 42.667-42.667h606.549c23.552 0 42.667 19.072 42.667 42.667 0 23.552-19.115 42.667-42.667 42.667z" />
<glyph unicode="&#xe976;" glyph-name="location-map-filled" d="M290.517 490.667h-191.829l-26.923-256h202.197zM882.645 490.667h-184.363l16.171-256h195.115zM690.56-64l-16.171 256h-360.448l-16.512-256zM543.616 300.544c-12.16-14.549-30.165-22.955-49.109-22.955-18.987 0-36.949 8.405-49.109 22.955-17.451 20.907-66.176 80.768-114.56 152.619l-14.080-218.496h354.944l-13.781 218.24c-48.256-71.723-96.896-131.499-114.304-152.363zM271.189 192h-203.947l-24.448-232.448c-0.683-5.973 1.28-11.904 5.333-16.469 4.053-4.523 9.813-7.083 15.872-7.083h190.677l16.512 256zM775.595 721.579c0-53.035-29.397-121.6-67.499-188.245h170.027l-24.917 236.885c-1.109 10.837-10.283 19.115-21.205 19.115h-65.024c5.419-21.76 8.619-44.373 8.619-67.755zM717.141 192l16.171-256h184.021c6.059 0 11.819 2.56 15.872 7.083 4.011 4.565 5.973 10.496 5.376 16.469l-24.491 232.448h-196.949zM280.875 533.333c-38.144 66.645-67.541 135.168-67.541 188.245 0 23.381 3.157 45.995 8.619 67.755h-72.619c-10.923 0-20.096-8.277-21.205-19.115l-24.96-236.885h177.707zM494.507 960c-131.499 0-238.507-106.923-238.507-238.421 0-126.208 213.077-382.805 222.123-393.643 4.053-4.864 10.027-7.637 16.384-7.637s12.331 2.816 16.384 7.637c9.045 10.837 222.037 267.477 222.037 393.643 0 131.499-106.965 238.421-238.421 238.421zM494.507 618.752c-56.661 0-102.741 46.165-102.741 102.784s46.080 102.784 102.741 102.784c56.661 0 102.741-46.165 102.741-102.784s-46.080-102.784-102.741-102.784z" />
<glyph unicode="&#xe977;" glyph-name="lock-close-1-filled" d="M874.667 576h-106.667v128c0 141.184-114.859 256-256 256-141.184 0-256-114.816-256-256v-128h-106.624c-11.776 0-21.333-9.557-21.333-21.333v-597.333c0-11.776 9.557-21.333 21.333-21.333h725.291c11.776 0 21.333 9.557 21.333 21.333v597.333c0 11.776-9.557 21.333-21.333 21.333zM298.667 704c0 117.632 95.659 213.333 213.333 213.333 117.632 0 213.333-95.701 213.333-213.333v-128h-426.667v128zM533.333 283.307v-112.64c0-11.733-9.6-21.333-21.333-21.333-11.776 0-21.333 9.6-21.333 21.333v112.64c-12.715 7.339-21.333 20.992-21.333 36.693 0 23.552 19.115 42.667 42.667 42.667 23.509 0 42.667-19.115 42.667-42.667 0-15.701-8.661-29.355-21.333-36.693z" />
<glyph unicode="&#xe978;" glyph-name="lock-open-1-filled" d="M874.624 576h-106.624v128c0 141.184-114.859 256-256 256-141.184 0-256-114.816-256-256 0-11.776 9.557-21.333 21.333-21.333s21.333 9.557 21.333 21.333c0 117.632 95.659 213.333 213.333 213.333 117.632 0 213.333-95.701 213.333-213.333v-128h-576c-11.776 0-21.333-9.557-21.333-21.333v-597.333c0-11.776 9.557-21.333 21.333-21.333h725.291c11.776 0 21.333 9.557 21.333 21.333v597.333c0 11.776-9.557 21.333-21.333 21.333zM533.291 283.307v-112.64c0-11.733-9.6-21.333-21.333-21.333-11.776 0-21.333 9.6-21.333 21.333v112.64c-12.715 7.381-21.333 20.992-21.333 36.693 0 23.552 19.115 42.667 42.667 42.667 23.509 0 42.667-19.115 42.667-42.667 0-15.701-8.661-29.355-21.333-36.693z" />
<glyph unicode="&#xe979;" glyph-name="map-target-1-filled" d="M632.68 568.423c66.65-66.65 66.65-174.71 0-241.359s-174.71-66.65-241.359 0c-66.65 66.65-66.65 174.71 0 241.359s174.71 66.65 241.359 0zM980.608 489.685l-87.125 0.512c-19.627 177.749-161.067 319.275-338.816 338.987v85.419c0 23.509-19.115 42.667-42.667 42.667s-42.667-19.157-42.667-42.667v-85.419c-177.749-19.712-319.189-161.237-338.859-338.987l-87.168-0.512c-23.552-0.085-42.539-19.328-42.411-42.923 0.128-23.509 19.2-42.411 42.667-42.411 0.085 0 0.128 0 0.213 0.981l86.784 0.469c19.84-178.517 161.152-319.829 338.773-339.541v-87.211c0-23.595 19.115-42.667 42.667-42.667s42.667 19.072 42.667 42.667v87.211c177.579 19.712 318.933 161.024 338.773 339.541l86.741-0.469c0.085-0.981 0.171-0.981 0.256-0.981 23.467 0 42.539 18.901 42.667 42.411 0.085 23.637-18.901 42.837-42.496 42.923zM512 149.077c-164.693 0-298.667 133.973-298.667 298.667s133.973 298.667 298.667 298.667c164.693 0 298.667-133.973 298.667-298.667 0-164.736-133.973-298.667-298.667-298.667z" />
<glyph unicode="&#xe97a;" glyph-name="map-target-2-filled" d="M979.541 490.411h-86.827c-19.456 178.005-161.024 319.744-338.901 339.456v85.419c0 23.595-19.115 42.667-42.667 42.667-23.595 0-42.667-19.072-41.771-42.667v-85.419c-178.816-19.755-320.384-161.195-339.84-339.2h-86.869c-23.552 0-42.667-19.115-42.667-42.667s19.115-42.667 42.667-42.667h87.083c20.053-177.365 161.237-318.677 339.584-338.389v-87.211c-0.896-23.509 18.219-42.667 41.771-42.667s42.667 19.157 42.667 42.667v87.211c177.451 19.712 318.677 160.768 338.688 338.389h87.040c23.552-0.256 42.667 18.816 42.667 42.411 0.043 23.509-19.072 42.667-42.624 42.667zM511.104 149.717c-164.693 0-298.667 134.229-298.667 298.923 0 164.736 133.973 298.411 298.667 298.411s298.667-133.973 298.667-298.667c0-164.693-133.973-298.667-298.667-298.667z" />
<glyph unicode="&#xe97b;" glyph-name="map-target-none-filled" d="M370.475 710.827c42.368 23.125 89.984 36.267 141.525 36.267 164.651 0 299.563-133.675 299.563-298.411 0-51.541-13.141-100.352-36.224-142.72l61.952-61.995c30.123 47.701 50.304 102.613 56.96 161.365h87.083c23.552 0 42.667 19.115 42.667 42.667s-19.115 42.667-42.667 42.667h-86.827c-19.456 178.005-161.963 319.445-339.84 339.2v85.419c0 23.595-19.115 42.667-42.667 42.667-23.595 0-42.667-19.072-42.667-42.667v-85.419c-59.051-6.528-112.981-26.752-160.853-57.045l61.995-61.995zM654.464 185.515c-42.112-22.827-91.264-35.797-142.464-35.797-164.693 0-297.728 134.229-297.728 298.923 0 51.157 12.971 99.115 35.755 141.269l-62.080 62.123c-30.123-47.872-50.219-102.485-56.619-161.365h-86.869c-23.595 0-42.667-19.115-42.667-42.667s19.072-42.667 42.667-42.667h87.083c20.053-177.365 160.341-318.677 337.792-338.389v-87.211c0-23.509 19.072-42.667 42.667-42.667 23.552 0 42.667 19.157 42.667 42.667v87.211c58.667 6.528 114.176 26.539 161.877 56.533l-62.080 62.037zM938.24-20.267c-10.923 0-21.845 4.139-30.165 12.459l-852.011 852.053c-16.683 16.64-16.683 43.648 0 60.331s43.648 16.683 60.331 0l852.011-852.011c16.683-16.683 16.683-43.648 0-60.373-8.32-8.32-19.243-12.459-30.165-12.459z" />
<glyph unicode="&#xe97c;" glyph-name="mobile-phone-portrait-filled" d="M213.376 746.667h597.333v-597.333h-597.333zM213.376 106.667v-64c-0.043-58.837 47.829-106.667 106.624-106.667h384c58.795 0 106.667 47.829 106.667 106.667v64h-597.291zM512 0c-23.509 0-42.667 19.115-42.667 42.667s19.157 42.667 42.667 42.667c23.509 0 42.667-19.115 42.667-42.667s-19.157-42.667-42.667-42.667zM810.667 789.333v64c0 58.837-47.872 106.667-106.667 106.667h-384c-58.795 0-106.667-47.829-106.624-106.667v-64h597.291zM405.333 874.667h213.333c11.776 0 21.333-9.557 21.333-21.333s-9.557-21.333-21.333-21.333h-213.333c-11.776 0-21.333 9.557-21.333 21.333s9.557 21.333 21.333 21.333z" />
<glyph unicode="&#xe97d;" glyph-name="move-down-1-filled" d="M524.459 204.501c15.744-16.085 43.136-17.237 60.373 0l170.667 170.667c16.683 16.683 16.683 43.648 0 60.288-16.683 16.725-43.691 16.725-60.331 0l-97.835-97.792v579.669c0 23.552-19.115 42.667-42.667 42.667-23.595 0-42.667-19.115-42.667-42.667v-579.669l-97.835 97.792c-16.683 16.725-43.691 16.725-60.331 0-16.683-16.64-16.683-43.648 0-60.288l170.624-170.667zM981.333 21.333h-938.667c-23.595 0-42.667-19.115-42.667-42.667 0-23.595 19.072-42.667 42.667-42.667h938.667c23.552 0 42.667 19.072 42.667 42.667 0 23.552-19.115 42.667-42.667 42.667z" />
<glyph unicode="&#xe97e;" glyph-name="move-down-filled" d="M64-21.333h-21.333v21.333c0 11.776-9.557 21.333-21.333 21.333s-21.333-9.557-21.333-21.333v-42.667c0-11.776 9.557-21.333 21.333-21.333h42.667c11.776 0 21.333 9.557 21.333 21.333s-9.557 21.333-21.333 21.333zM448 21.333c-11.776 0-21.333-9.557-21.333-21.333v-21.333h-21.333c-11.776 0-21.333-9.557-21.333-21.333s9.557-21.333 21.333-21.333h42.667c11.776 0 21.333 9.557 21.333 21.333v42.667c0 11.776-9.557 21.333-21.333 21.333zM21.333 64c11.776 0 21.333 9.557 21.333 21.333v42.667c0 11.776-9.557 21.333-21.333 21.333s-21.333-9.557-21.333-21.333v-42.667c0-11.776 9.557-21.333 21.333-21.333zM192-21.333h-42.667c-11.776 0-21.333-9.557-21.333-21.333s9.557-21.333 21.333-21.333h42.667c11.776 0 21.333 9.557 21.333 21.333s-9.557 21.333-21.333 21.333zM192 405.333h-42.667c-11.776 0-21.333-9.557-21.333-21.333s9.557-21.333 21.333-21.333h42.667c11.776 0 21.333 9.557 21.333 21.333s-9.557 21.333-21.333 21.333zM320-21.333h-42.667c-11.776 0-21.333-9.557-21.333-21.333s9.557-21.333 21.333-21.333h42.667c11.776 0 21.333 9.557 21.333 21.333s-9.557 21.333-21.333 21.333zM320 405.333h-42.667c-11.776 0-21.333-9.557-21.333-21.333s9.557-21.333 21.333-21.333h42.667c11.776 0 21.333 9.557 21.333 21.333s-9.557 21.333-21.333 21.333zM448 405.333h-42.667c-11.776 0-21.333-9.557-21.333-21.333s9.557-21.333 21.333-21.333h21.333v-21.333c0-11.776 9.557-21.333 21.333-21.333s21.333 9.557 21.333 21.333v42.667c0 11.776-9.557 21.333-21.333 21.333zM448 277.333c-11.776 0-21.333-9.557-21.333-21.333v-42.667c0-11.776 9.557-21.333 21.333-21.333s21.333 9.557 21.333 21.333v42.667c0 11.776-9.557 21.333-21.333 21.333zM64 405.333h-42.667c-11.776 0-21.333-9.557-21.333-21.333v-42.667c0-11.776 9.557-21.333 21.333-21.333s21.333 9.557 21.333 21.333v21.333h21.333c11.776 0 21.333 9.557 21.333 21.333s-9.557 21.333-21.333 21.333zM21.333 192c11.776 0 21.333 9.557 21.333 21.333v42.667c0 11.776-9.557 21.333-21.333 21.333s-21.333-9.557-21.333-21.333v-42.667c0-11.776 9.557-21.333 21.333-21.333zM448 149.333c-11.776 0-21.333-9.557-21.333-21.333v-42.667c0-11.776 9.557-21.333 21.333-21.333s21.333 9.557 21.333 21.333v42.667c0 11.776-9.557 21.333-21.333 21.333zM448 960h-426.667c-11.776 0-21.333-9.557-21.333-21.333v-426.667c0-11.776 9.557-21.333 21.333-21.333h426.667c11.776 0 21.333 9.557 21.333 21.333v426.667c0 11.776-9.557 21.333-21.333 21.333zM968.832 350.891c-16.683 16.683-43.648 16.683-60.331 0l-97.835-97.835v557.611c0 23.552-19.115 42.667-42.667 42.667s-42.667-19.115-42.667-42.667v-557.611l-97.835 97.835c-16.683 16.683-43.648 16.683-60.331 0s-16.683-43.691 0-60.331l170.667-170.667c16.683-16.683 43.648-16.683 60.331 0l170.667 170.667c16.683 16.64 16.683 43.648 0 60.331z" />
<glyph unicode="&#xe97f;" glyph-name="move-left-1-filled" d="M0 917.333v-938.667c0-23.595 19.115-42.667 42.667-42.667 23.595 0 42.667 19.072 42.667 42.667v938.667c0 23.552-19.072 42.667-42.667 42.667-23.552 0-42.667-19.115-42.667-42.667zM268.501 520.875c-16.085-15.744-17.237-43.136 0-60.373l170.667-170.667c16.683-16.683 43.648-16.683 60.288 0 16.725 16.683 16.725 43.691 0 60.331l-97.792 97.835h579.669c23.552 0 42.667 19.115 42.667 42.667 0 23.595-19.115 42.667-42.667 42.667h-579.669l97.792 97.835c16.725 16.683 16.725 43.691 0 60.331-16.64 16.683-43.648 16.683-60.288 0l-170.667-170.624z" />
<glyph unicode="&#xe980;" glyph-name="move-right-1-filled" d="M1024 917.333v-938.667c0-23.595-19.115-42.667-42.667-42.667-23.595 0-42.667 19.072-42.667 42.667v938.667c0 23.552 19.072 42.667 42.667 42.667 23.552 0 42.667-19.115 42.667-42.667zM755.499 520.875c16.085-15.744 17.237-43.136 0-60.373l-170.667-170.667c-16.683-16.683-43.648-16.683-60.288 0-16.725 16.683-16.725 43.691 0 60.331l97.792 97.835h-579.669c-23.552 0-42.667 19.115-42.667 42.667 0 23.595 19.115 42.667 42.667 42.667h579.669l-97.792 97.835c-16.725 16.683-16.725 43.691 0 60.331 16.64 16.683 43.648 16.683 60.288 0l170.667-170.624z" />
<glyph unicode="&#xe981;" glyph-name="move-up-filled" d="M21.333 874.667c11.776 0 21.333 9.557 21.333 21.333v21.333h21.333c11.776 0 21.333 9.557 21.333 21.333s-9.557 21.333-21.333 21.333h-42.667c-11.776 0-21.333-9.557-21.333-21.333v-42.667c0-11.776 9.557-21.333 21.333-21.333zM448 960h-42.667c-11.776 0-21.333-9.557-21.333-21.333s9.557-21.333 21.333-21.333h21.333v-21.333c0-11.776 9.557-21.333 21.333-21.333s21.333 9.557 21.333 21.333v42.667c0 11.776-9.557 21.333-21.333 21.333zM21.333 746.667c11.776 0 21.333 9.557 21.333 21.333v42.667c0 11.776-9.557 21.333-21.333 21.333s-21.333-9.557-21.333-21.333v-42.667c0-11.776 9.557-21.333 21.333-21.333zM149.333 917.333h42.667c11.776 0 21.333 9.557 21.333 21.333s-9.557 21.333-21.333 21.333h-42.667c-11.776 0-21.333-9.557-21.333-21.333s9.557-21.333 21.333-21.333zM149.333 490.667h42.667c11.776 0 21.333 9.557 21.333 21.333s-9.557 21.333-21.333 21.333h-42.667c-11.776 0-21.333-9.557-21.333-21.333s9.557-21.333 21.333-21.333zM277.333 917.333h42.667c11.776 0 21.333 9.557 21.333 21.333s-9.557 21.333-21.333 21.333h-42.667c-11.776 0-21.333-9.557-21.333-21.333s9.557-21.333 21.333-21.333zM277.333 490.667h42.667c11.776 0 21.333 9.557 21.333 21.333s-9.557 21.333-21.333 21.333h-42.667c-11.776 0-21.333-9.557-21.333-21.333s9.557-21.333 21.333-21.333zM448 576c-11.776 0-21.333-9.557-21.333-21.333v-21.333h-21.333c-11.776 0-21.333-9.557-21.333-21.333s9.557-21.333 21.333-21.333h42.667c11.776 0 21.333 9.557 21.333 21.333v42.667c0 11.776-9.557 21.333-21.333 21.333zM448 704c-11.776 0-21.333-9.557-21.333-21.333v-42.667c0-11.776 9.557-21.333 21.333-21.333s21.333 9.557 21.333 21.333v42.667c0 11.776-9.557 21.333-21.333 21.333zM21.333 490.667h42.667c11.776 0 21.333 9.557 21.333 21.333s-9.557 21.333-21.333 21.333h-21.333v21.333c0 11.776-9.557 21.333-21.333 21.333s-21.333-9.557-21.333-21.333v-42.667c0-11.776 9.557-21.333 21.333-21.333zM21.333 618.667c11.776 0 21.333 9.557 21.333 21.333v42.667c0 11.776-9.557 21.333-21.333 21.333s-21.333-9.557-21.333-21.333v-42.667c0-11.776 9.557-21.333 21.333-21.333zM448 832c-11.776 0-21.333-9.557-21.333-21.333v-42.667c0-11.776 9.557-21.333 21.333-21.333s21.333 9.557 21.333 21.333v42.667c0 11.776-9.557 21.333-21.333 21.333zM448 405.333h-426.667c-11.776 0-21.333-9.557-21.333-21.333v-426.667c0-11.776 9.557-21.333 21.333-21.333h426.667c11.776 0 21.333 9.557 21.333 21.333v426.667c0 11.776-9.557 21.333-21.333 21.333zM968.832 605.44l-170.667 170.667c-16.683 16.683-43.819 16.512-60.331 0l-170.667-170.667c-16.683-16.683-16.683-43.648 0-60.331s43.648-16.683 60.331 0l97.835 97.835v-557.611c0-23.552 19.115-42.667 42.667-42.667s42.667 19.115 42.667 42.667v557.611l97.835-97.835c16.683-16.683 43.648-16.683 60.331 0s16.683 43.648 0 60.331z" />
</font>
</defs>
</svg>
