<svg width="214" height="58.00000000000001" xmlns="http://www.w3.org/2000/svg">
 <!-- Generator: Sketch 40.1 (33804) - http://www.bohemiancoding.com/sketch -->
 <title>quest-tm-orange-logo</title>
 <desc>Created with Sketch.</desc>

 <g>
  <title>background</title>
  <rect fill="none" id="canvas_background" height="402" width="582" y="-1" x="-1"/>
 </g>
 <g>
  <title>Layer 1</title>
  <g fill-rule="evenodd" fill="none" id="Page-1">
   <g fill="#FB4E14" id="quest-tm-orange-logo">
    <path id="Combined-Shape" d="m51,46.55381l4.97313,3.28998c0.78467,0.57237 0.89931,1.70181 0.24033,2.41684c-0.47216,0.51122 -1.06321,1.12435 -1.73493,1.7689c-0.6938,0.66407 -1.2738,1.1685 -1.72049,1.53366c-0.5885,0.4815 -1.42921,0.48999 -2.0313,0.02632l-4.82178,-3.71272c0,0 1.31457,-1.04707 3.02741,-2.63593c1.54561,-1.43302 2.35898,-2.47436 2.50368,-2.66486l-3.73672,-2.73354c-0.7006,-0.51122 -0.84921,-1.48101 -0.36091,-2.19859c2.7183,-3.98787 4.19167,-8.89118 3.82227,-14.16304c-0.76259,-10.88087 -9.44061,-19.74147 -20.30619,-20.69343c-13.6238,-1.19398 -24.99296,9.82785 -24.37898,23.33785c0.5299,11.64855 10.1429,21.0416 21.79994,21.33118c4.20696,0.10276 8.14558,-0.97319 11.54155,-2.89579c0.52735,-0.29976 1.18124,-0.25221 1.67123,0.10446l4.41672,3.22698c-4.68507,3.45117 -10.17263,5.40094 -15.96845,5.61494c-15.90816,0.5885 -29.3273,-11.87528 -29.91665,-27.78259c-0.55368,-15.02329 10.53269,-27.82845 25.16789,-29.7001c0.8594,-0.10955 1.73323,-0.18173 2.6181,-0.21485c15.90646,-0.5885 29.3273,11.87529 29.91325,27.78344c0.25512,6.92484 -2.43643,13.56966 -6.7191,18.96089zm161.02984,3.96425c-0.46791,-0.75749 -1.44874,-0.99696 -2.22152,-0.55623c-1.99733,1.14049 -4.35472,1.86316 -6.76391,1.86316c-4.47701,0 -7.65559,-2.64697 -7.65559,-8.67463l0,-20.20004l10.29916,0c0.8594,0 1.55914,-0.69805 1.55914,-1.55914l0,-3.93776l-11.8583,0l0,-9.89494c0,-0.90101 -0.73116,-1.63132 -1.63132,-1.63132l-4.4371,0l0,11.52626l-2.42363,0c-0.99611,0 -1.80371,0.80759 -1.80371,1.80371l0,3.69319l4.22734,0l0,20.32148c0,9.69282 4.92794,14.25475 13.23571,14.25475c4.72498,0 8.55235,-1.62962 11.44389,-3.82821l-1.97016,-3.18028zm-33.99452,-25.57975c-0.4263,0.76089 -1.38166,1.03093 -2.14849,0.61737c-2.69708,-1.45044 -6.8862,-2.80917 -11.27744,-2.80917c-5.49946,0 -9.12301,2.32088 -9.12301,6.06842c0,3.21679 2.81002,4.80565 7.85939,5.41708l4.56193,0.56981c8.18464,1.05896 12.94953,4.4388 12.94953,10.75009c0,7.33204 -6.59663,11.93388 -16.98241,11.93388c-4.967,0 -11.19846,-1.22286 -16.08564,-4.92964l1.82664,-2.96372c0.51377,-0.83307 1.61349,-1.09378 2.43382,-0.56133c2.76417,1.79692 6.40726,3.15905 11.90756,3.15905c6.51595,0 10.62865,-2.15698 10.62865,-6.22977c0,-3.0945 -2.60706,-4.96785 -8.06236,-5.62089l-4.60184,-0.52905c-8.67378,-1.05896 -12.74657,-4.92709 -12.74657,-10.67027c0,-7.28957 6.1474,-11.6876 15.3927,-11.6876c5.36103,0 10.30765,1.33495 13.94394,3.35945c0.77278,0.42885 1.05047,1.40119 0.61822,2.17227l-1.09462,1.95402zm-34.69427,12.3882c0,0.20466 -0.0034,0.41272 -0.00935,0.61992c-0.02462,0.92563 -0.78891,1.66105 -1.71539,1.66105l-29.30692,0c0.85516,8.30862 6.67815,12.58352 13.64164,12.58352c4.23498,0 7.98762,-1.4479 11.08637,-3.88597c0.64709,-0.51037 1.58886,-0.37619 2.09753,0.2709l2.29201,2.92296c-4.8065,4.60185 -10.18112,6.02681 -15.84277,6.02681c-11.40058,0 -19.50624,-8.10396 -19.50624,-20.03529c0,-11.81159 8.14642,-20.03615 19.13938,-20.03615c10.4673,0 18.04051,8.14388 18.12374,19.87225zm-30.95183,-2.64697l24.76197,0c-0.77448,-7.20805 -5.49775,-11.85066 -12.05616,-11.85066c-7.12568,0 -11.72668,4.88718 -12.70581,11.85066zm-12.6557,6.05738c0,11.44389 -8.2271,16.86012 -17.51146,16.86012c-9.32597,0 -17.51231,-5.41623 -17.51231,-16.86012l0,-21.67596c0,-0.88742 0.71928,-1.60754 1.6067,-1.60754l4.46172,0l0,22.71453c0,7.98083 4.84557,11.72837 11.44389,11.72837c6.59748,0 11.40398,-3.74754 11.40398,-11.72837l0,-22.71453l4.53815,0c0.86619,0 1.56933,0.70399 1.56933,1.57018l0,21.71332z"/>
   </g>
  </g>
 </g>
</svg>