<?xml version="1.0" encoding="utf-8"?>
<!DOCTYPE svg PUBLIC "-//W3C//DTD SVG 1.1//EN" "http://www.w3.org/Graphics/SVG/1.1/DTD/svg11.dtd">
<svg version="1.1" baseProfile="full"
 xmlns="http://www.w3.org/2000/svg"
 width="40px" height="40px" viewBox="0 0 40 40">
<path fill-rule="evenodd"  fill="rgb( 0, 0, 0 )"
 d="M29.872,37.750 C24.692,37.750 20.494,33.555 20.494,28.380 C20.494,23.205 24.692,19.010 29.872,19.010 C35.051,19.010 39.250,23.205 39.250,28.380 C39.250,33.555 35.051,37.750 29.872,37.750 ZM20.000,20.490 C14.821,20.490 10.622,16.295 10.622,11.120 C10.622,5.945 14.821,1.750 20.000,1.750 C25.179,1.750 29.378,5.945 29.378,11.120 C29.378,16.295 25.179,20.490 20.000,20.490 ZM19.506,28.380 C19.506,33.555 15.308,37.750 10.128,37.750 C4.949,37.750 0.750,33.555 0.750,28.380 C0.750,23.205 4.949,19.010 10.128,19.010 C15.308,19.010 19.506,23.205 19.506,28.380 Z"/>
</svg>