<?xml version="1.0" encoding="utf-8"?>
<!DOCTYPE svg PUBLIC "-//W3C//DTD SVG 1.1//EN" "http://www.w3.org/Graphics/SVG/1.1/DTD/svg11.dtd">
<svg version="1.1" baseProfile="full"
 xmlns="http://www.w3.org/2000/svg"
 width="40px" height="40px" viewBox="0 0 40 40">
<path fill-rule="evenodd"  fill="rgb( 0, 0, 0 )"
 d="M3.250,39.250 C3.250,39.250 0.750,39.250 0.750,39.250 C0.750,39.250 0.750,36.750 0.750,36.750 C0.750,36.750 0.750,0.750 0.750,0.750 C0.750,0.750 3.250,0.750 3.250,0.750 C3.250,0.750 3.250,36.750 3.250,36.750 C3.250,36.750 39.250,36.750 39.250,36.750 C39.250,36.750 39.250,39.250 39.250,39.250 C39.250,39.250 3.250,39.250 3.250,39.250 ZM36.625,34.750 C35.589,34.750 34.750,33.911 34.750,32.875 C34.750,31.839 35.589,31.000 36.625,31.000 C37.661,31.000 38.500,31.839 38.500,32.875 C38.500,33.911 37.661,34.750 36.625,34.750 ZM32.875,7.250 C31.839,7.250 31.000,6.411 31.000,5.375 C31.000,4.339 31.839,3.500 32.875,3.500 C33.911,3.500 34.750,4.339 34.750,5.375 C34.750,6.411 33.911,7.250 32.875,7.250 ZM25.625,22.000 C24.589,22.000 23.750,21.161 23.750,20.125 C23.750,19.089 24.589,18.250 25.625,18.250 C26.661,18.250 27.500,19.089 27.500,20.125 C27.500,21.161 26.661,22.000 25.625,22.000 ZM21.875,34.750 C20.839,34.750 20.000,33.911 20.000,32.875 C20.000,31.839 20.839,31.000 21.875,31.000 C22.911,31.000 23.750,31.839 23.750,32.875 C23.750,33.911 22.911,34.750 21.875,34.750 ZM13.625,31.250 C12.589,31.250 11.750,30.411 11.750,29.375 C11.750,28.339 12.589,27.500 13.625,27.500 C14.661,27.500 15.500,28.339 15.500,29.375 C15.500,30.411 14.661,31.250 13.625,31.250 ZM8.375,15.250 C7.339,15.250 6.500,14.411 6.500,13.375 C6.500,12.339 7.339,11.500 8.375,11.500 C9.411,11.500 10.250,12.339 10.250,13.375 C10.250,14.411 9.411,15.250 8.375,15.250 ZM8.500,32.875 C8.500,33.911 7.661,34.750 6.625,34.750 C5.589,34.750 4.750,33.911 4.750,32.875 C4.750,31.839 5.589,31.000 6.625,31.000 C7.661,31.000 8.500,31.839 8.500,32.875 Z"/>
</svg>