<?xml version="1.0" encoding="utf-8"?>
<!DOCTYPE svg PUBLIC "-//W3C//DTD SVG 1.1//EN" "http://www.w3.org/Graphics/SVG/1.1/DTD/svg11.dtd">
<svg version="1.1" baseProfile="full"
 xmlns="http://www.w3.org/2000/svg"
 width="40px" height="40px" viewBox="0 0 40 40">
<path fill-rule="evenodd"  fill="rgb( 0, 0, 0 )"
 d="M34.245,32.751 C34.245,32.751 21.512,20.287 21.512,20.287 C21.512,20.287 39.400,17.709 39.400,17.709 C39.466,18.351 39.500,19.003 39.500,19.663 C39.500,24.744 37.497,29.353 34.245,32.751 ZM20.750,2.253 C29.347,2.308 36.457,8.692 37.747,17.026 C37.747,17.026 20.750,19.496 20.750,19.496 C20.750,19.496 20.750,2.253 20.750,2.253 ZM19.888,37.000 C10.423,37.000 2.750,29.389 2.750,20.000 C2.750,10.611 10.423,3.000 19.888,3.000 C19.925,3.000 19.961,3.003 19.998,3.003 C19.998,3.003 19.998,19.890 19.998,19.890 C19.998,19.890 32.253,31.764 32.253,31.764 C29.134,34.989 24.749,37.000 19.888,37.000 Z"/>
</svg>