<?xml version="1.0" encoding="utf-8"?>
<!DOCTYPE svg PUBLIC "-//W3C//DTD SVG 1.1//EN" "http://www.w3.org/Graphics/SVG/1.1/DTD/svg11.dtd">
<svg version="1.1" baseProfile="full"
 xmlns="http://www.w3.org/2000/svg"
 width="40px" height="40px" viewBox="0 0 40 40">
<path fill-rule="evenodd"  fill="rgb( 0, 0, 0 )"
 d="M4.500,6.652 C4.500,6.652 4.500,0.750 4.500,0.750 C4.500,0.750 39.250,0.750 39.250,0.750 C39.250,0.750 39.250,6.652 39.250,6.652 C39.250,6.652 4.500,6.652 4.500,6.652 ZM0.750,0.750 C0.750,0.750 3.250,0.750 3.250,0.750 C3.250,0.750 3.250,39.250 3.250,39.250 C3.250,39.250 0.750,39.250 0.750,39.250 C0.750,39.250 0.750,0.750 0.750,0.750 ZM27.750,14.912 C27.750,14.912 4.500,14.912 4.500,14.912 C4.500,14.912 4.500,9.003 4.500,9.003 C4.500,9.003 27.750,9.003 27.750,9.003 C27.750,9.003 27.750,14.912 27.750,14.912 ZM19.750,22.955 C19.750,22.955 4.500,22.955 4.500,22.955 C4.500,22.955 4.500,17.045 4.500,17.045 C4.500,17.045 19.750,17.045 19.750,17.045 C19.750,17.045 19.750,22.955 19.750,22.955 ZM14.000,30.997 C14.000,30.997 4.500,30.997 4.500,30.997 C4.500,30.997 4.500,25.088 4.500,25.088 C4.500,25.088 14.000,25.088 14.000,25.088 C14.000,25.088 14.000,30.997 14.000,30.997 ZM8.000,39.250 C8.000,39.250 4.500,39.250 4.500,39.250 C4.500,39.250 4.500,33.341 4.500,33.341 C4.500,33.341 8.000,33.341 8.000,33.341 C8.000,33.341 8.000,39.250 8.000,39.250 Z"/>
</svg>