<?xml version="1.0" encoding="utf-8"?>
<!DOCTYPE svg PUBLIC "-//W3C//DTD SVG 1.1//EN" "http://www.w3.org/Graphics/SVG/1.1/DTD/svg11.dtd">
<svg version="1.1" baseProfile="full"
 xmlns="http://www.w3.org/2000/svg"
 width="40px" height="40px" viewBox="0 0 40 40">
<path fill-rule="evenodd"  fill="rgb( 0, 0, 0 )"
 d="M3.250,39.250 C3.250,39.250 0.750,39.250 0.750,39.250 C0.750,39.250 0.750,36.750 0.750,36.750 C0.750,36.750 0.750,0.750 0.750,0.750 C0.750,0.750 3.250,0.750 3.250,0.750 C3.250,0.750 3.250,36.750 3.250,36.750 C3.250,36.750 39.250,36.750 39.250,36.750 C39.250,36.750 39.250,39.250 39.250,39.250 C39.250,39.250 3.250,39.250 3.250,39.250 ZM31.884,16.192 C31.884,16.192 31.873,16.234 31.873,16.234 C31.873,16.234 21.870,13.614 21.870,13.614 C21.870,13.614 13.363,22.594 13.363,22.594 C13.363,22.594 13.357,22.588 13.357,22.588 C13.357,22.588 13.305,22.710 13.305,22.710 C13.305,22.710 7.708,20.342 7.708,20.342 C7.708,20.342 4.981,29.887 4.981,29.887 C4.981,29.887 4.019,29.613 4.019,29.613 C4.019,29.613 7.019,19.113 7.019,19.113 C7.019,19.113 7.148,19.150 7.148,19.150 C7.148,19.150 7.195,19.040 7.195,19.040 C7.195,19.040 13.019,21.503 13.019,21.503 C13.019,21.503 21.637,12.406 21.637,12.406 C21.637,12.406 21.802,12.562 21.802,12.562 C21.802,12.562 31.403,15.077 31.403,15.077 C31.403,15.077 35.803,6.276 35.803,6.276 C35.803,6.276 36.697,6.724 36.697,6.724 C36.697,6.724 31.947,16.224 31.947,16.224 C31.947,16.224 31.884,16.192 31.884,16.192 Z"/>
</svg>