<?xml version="1.0" encoding="utf-8"?>
<!-- Generator: Adobe Illustrator 19.2.1, SVG Export Plug-In . SVG Version: 6.00 Build 0)  -->
<!DOCTYPE svg PUBLIC "-//W3C//DTD SVG 1.1//EN" "http://www.w3.org/Graphics/SVG/1.1/DTD/svg11.dtd">
<svg version="1.1" id="Layer_1" xmlns="http://www.w3.org/2000/svg" xmlns:xlink="http://www.w3.org/1999/xlink" x="0px" y="0px"
	 width="38px" height="22px" viewBox="0 0 38 22" enable-background="new 0 0 38 22" xml:space="preserve">
<g>
	<path d="M1,22c-0.5,0-1-0.4-1-1c0-0.6,0.4-1,1-1l3-0.1l7.5-4c0.2-0.1,0.5-0.2,0.8-0.1l6.5,2.2L24,0.8
		C24.1,0.4,24.5,0,25,0c0.5,0,0.9,0.3,1,0.7L30.6,20H37c0.6,0,1,0.4,1,1s-0.4,1-1,1h-7.2c-0.5,0-0.8-0.3-1-0.7L25.1,5.5l-4.6,14.1
		c-0.1,0.3-0.2,0.5-0.5,0.7c-0.3,0.1-0.6,0.2-0.8,0.1L12,17.9l-7.4,3.9c-0.1,0.1-0.3,0.1-0.5,0.1L1,22C1,22,1,22,1,22z"/>
</g>
</svg>
