<?xml version="1.0" encoding="utf-8"?>
<!-- Generator: Adobe Illustrator 19.2.1, SVG Export Plug-In . SVG Version: 6.00 Build 0)  -->
<!DOCTYPE svg PUBLIC "-//W3C//DTD SVG 1.1//EN" "http://www.w3.org/Graphics/SVG/1.1/DTD/svg11.dtd">
<svg version="1.1" id="Layer_1" xmlns="http://www.w3.org/2000/svg" xmlns:xlink="http://www.w3.org/1999/xlink" x="0px" y="0px"
	 width="16px" height="16px" viewBox="0 0 16 16" style="enable-background:new 0 0 16 16;" xml:space="preserve">
<g>
	<path id="XMLID_6772_" class="system-mac-icon" d="M12.4,9c0-3,1.7-3.2,1.7-3.3C13.2,4.3,11.7,4,11.2,4C9.9,3.9,8.7,4.7,8.1,4.7
		c-0.6,0-1.6-0.7-2.6-0.7c-1.4,0-2.6,0.8-3.3,2C0.7,8.4,1.8,12,3.2,14c0.7,1,1.5,2.1,2.5,2c1,0,1.4-0.7,2.6-0.7S9.9,16,11,16
		c1.1,0,1.8-1,2.4-2c0.8-1.1,1.1-2,1.1-2C14.5,12,12.4,11,12.4,9L12.4,9z"/>
	<path id="XMLID_6771_" class="system-mac-icon" d="M8,4L8,4L8,4c0-2.2,1.8-4,4-4l0,0l0,0C12,2.2,10.2,4,8,4z"/>
</g>
</svg>
