<svg id="Layer_2" data-name="Layer 2" xmlns="http://www.w3.org/2000/svg" viewBox="0 0 345 67.72">
    <defs>
        <style>
            .fs-logo-hz-1{fill:#004f8f;}.fs-logo-hz-2{fill:#337ec2;}.fs-logo-hz-3{fill:#3f7db5;}.fs-logo-hz-4{fill:#2b65a9;}
        </style>
    </defs>
    <title>Fortscale_logo_horz</title>
    <polygon class="fs-logo-hz-1"
             points="58.17 14.26 83.44 14.26 83.44 21.19 66.56 21.19 66.56 29.38 77.79 29.38 77.79 36.42 66.56 36.42 66.56 52.26 58.17 52.26 58.17 14.26"/>
    <path class="fs-logo-hz-1"
          d="M114.27,42c0-3.89.67-7.61,3.31-10.51,2.38-2.65,6-3.62,9.53-3.62,3.88,0,7.46.92,10,3.67,2.12,2.28,3.32,5.64,3.32,11.75v9.22c0,5.33-.88,8.75-3.27,11.33C134,67.24,129.44,67.6,127,67.6c-3.72,0-9.84-1.35-11.75-7.76a28.67,28.67,0,0,1-1-7.66V42Zm8.49,11.91c0,4,.78,6.83,4.5,6.83,4.5,0,4.5-4.19,4.5-6.83V40.68c0-2.64,0-5.85-4.4-5.85-4.61,0-4.61,4.35-4.61,5.85v13.2Z"
          transform="translate(-24.31 -14.31)"/>
    <path class="fs-logo-hz-1"
          d="M157.29,66.56h-8.23v-38h12.27c6.16,0,14,.83,14,11,0,4.82-1.92,8.5-7.25,10.1l8.28,16.88h-9.06L160.08,51h-2.79V66.56Zm0-21.59c4.71,0,5.43,0,6.62-.41,2.64-.93,2.85-3,2.85-5.08,0-2.64-.83-3.93-2.48-4.56-1.3-.47-2.33-0.47-7-0.47V45Z"
          transform="translate(-24.31 -14.31)"/>
    <polygon class="fs-logo-hz-1"
             points="184.61 14.26 184.61 21.19 175.14 21.19 175.14 52.26 166.44 52.26 166.44 21.19 156.76 21.19 156.76 14.26 184.61 14.26"/>
    <path class="fs-logo-hz-1"
          d="M234,38.51c-1.76-3.52-3.42-6.12-7.82-6.12-2.33,0-5.8,1.35-5.8,5,0,3.41,2.9,4.87,4.14,5.44l7.56,3.42a13.27,13.27,0,0,1,5.69,5,9.73,9.73,0,0,1,1.29,5.13A10.85,10.85,0,0,1,235.35,65a11.38,11.38,0,0,1-8.23,2.7,14.36,14.36,0,0,1-8.7-3,15.28,15.28,0,0,1-4.25-5.74l4.56-2.85c1.09,3.06,3.62,6.83,8.75,6.83,3.22,0,6.68-2,6.68-6.11,0-1.76-.67-4-4.66-5.8l-6.73-3.05c-2.33-1-5.08-3-6.26-5.08a10.89,10.89,0,0,1-1.14-5.28c0-5.74,4.87-9.78,10.82-9.78,5.8,0,9.94,2.89,12.27,8.08Z"
          transform="translate(-24.31 -14.31)"/>
    <path class="fs-logo-hz-1"
          d="M265,39.59c-0.41-3.67-2.17-7-6.31-7-3.79,0-5.39,2.95-6.21,5-1.4,3.42-1.55,8.69-1.55,9.11,0,8.34,1.5,16.46,7.77,16.46a6,6,0,0,0,5-2.9A12.42,12.42,0,0,0,265,55.07L270.19,56a13.45,13.45,0,0,1-3.57,8.54,11.3,11.3,0,0,1-8.44,3.26c-3.11,0-12.48-1.6-12.48-19.87,0-8.75,2.23-19.83,12.95-19.83a11.06,11.06,0,0,1,7.92,3.11,12.56,12.56,0,0,1,3.37,7.45Z"
          transform="translate(-24.31 -14.31)"/>
    <path class="fs-logo-hz-1"
          d="M298.81,58.64h-15l-2.38,7.92h-5.55l12.27-38h6l12.84,38H301.4Zm-1.5-4.4-6-19.37a0.28,0.28,0,0,0-.26-0.2,0.34,0.34,0,0,0-.26.25l-5.64,19.32h12.16Z"
          transform="translate(-24.31 -14.31)"/>
    <polygon class="fs-logo-hz-1"
             points="290.61 14.26 295.84 14.26 295.84 47.44 313.4 47.44 313.4 52.26 290.61 52.26 290.61 14.26"/>
    <polygon class="fs-logo-hz-1"
             points="322.24 14.26 345.85 14.26 345.85 18.92 327.68 18.92 327.68 29.94 341.09 29.94 341.09 34.76 327.78 34.76 327.78 47.44 346.83 47.44 346.83 52.26 322.24 52.26 322.24 14.26"/>
    <polyline class="fs-logo-hz-2" points="19.61 0 19.59 0.1 19.59 0.1"/>
    <path class="fs-logo-hz-2" d="M52.75,14.41" transform="translate(-24.31 -14.31)"/>
    <path class="fs-logo-hz-3"
          d="M68.87,74.78H69l-0.12,0V69.41H67l-5.57-5.54v0l0.1,0h-0.1V29.11L65,25.44h2.9V25.1h0V14.31h-6.6C60.72,17.44,59,18.51,57,18.51a3.82,3.82,0,0,1-3.11-1.4,6.11,6.11,0,0,1-1.15-2.71l0-.1h-8.8l0,0.1h0a6.82,6.82,0,0,1-.81,2.21,3.9,3.9,0,0,1-1.2,1.27,4,4,0,0,1-2.26.62c-2,0-3.7-1.08-4.29-4.21H28.76V25.44h3.42l3.57,3.48v0.14L35.67,29h0l0.12,34.61h0L29.9,69.41H29.68l0.2,0-0.19,0h-2v5.42H24.31l0,7.12,48,0.08V74.78H68.87Z"
          transform="translate(-24.31 -14.31)"/>
    <path class="fs-logo-hz-4"
          d="M35.34,14.31H28.76V25.44h3.42l3.57,3.48v0L61.38,63.87l0-.06h0V29.11L65,25.44h2.9V25.1h0V14.31h-6.6C60.72,17.44,59,18.51,57,18.51a3.82,3.82,0,0,1-3.11-1.4,6.1,6.1,0,0,1-1.15-2.71l0-.1h-8.8l0,0.1h0a6.83,6.83,0,0,1-.81,2.21,3.9,3.9,0,0,1-1.2,1.27,4,4,0,0,1-2.26.62c-2,0-3.7-1.08-4.29-4.21"
          transform="translate(-24.31 -14.31)"/>
    <path class="fs-logo-hz-1"
          d="M55.26,18.14L55,18A3.69,3.69,0,0,1,53.91,17a6.11,6.11,0,0,1-1.15-2.71H43.9a5.1,5.1,0,0,1-2,3.48L35.83,56.29v0.14Z"
          transform="translate(-24.31 -14.31)"/>
    <path class="fs-logo-hz-4"
          d="M35.78,63.57h0L29.9,69.41H29.68l0.2,0-0.19,0h-2v5.42H24.31l0,7.12,48,0.08V74.78H69l-0.12,0V69.41H67l-5.57-5.54v0l0.1,0h-0.1"
          transform="translate(-24.31 -14.31)"/>
    <path class="fs-logo-hz-2" d="M35.67,29h0Zm0,0,0.07,0.1V28.92Z" transform="translate(-24.31 -14.31)"/>
    <path class="fs-logo-hz-2" d="M67.91,25.1" transform="translate(-24.31 -14.31)"/>
    <path class="fs-logo-hz-2" d="M67.91,25.1" transform="translate(-24.31 -14.31)"/>
    <rect class="fs-logo-hz-1" x="3.43" y="55.13" width="41.14" height="5.39"/>
    <path class="fs-logo-hz-1" d="M378.41,29.08v4.83h-0.59V29.08h-1.6v-0.5H380v0.5h-1.6Z"
          transform="translate(-24.31 -14.31)"/>
    <path class="fs-logo-hz-1"
          d="M385.07,33.91V29h0l-1.49,4.87H383.1L381.6,29h0v4.87H381V28.58H382l1.36,4.31h0l1.34-4.31h0.93v5.33h-0.53Z"
          transform="translate(-24.31 -14.31)"/>
</svg>
