<?xml version="1.0" encoding="utf-8"?>
<!DOCTYPE svg PUBLIC "-//W3C//DTD SVG 1.1//EN" "http://www.w3.org/Graphics/SVG/1.1/DTD/svg11.dtd">
<svg version="1.1" baseProfile="full"
 xmlns="http://www.w3.org/2000/svg"
 width="40px" height="40px" viewBox="0 0 40 40"
 xmlns:xlink="http://www.w3.org/1999/xlink"
 xmlns:ev="http://www.w3.org/2001/xml-events" >
<path fill-rule="evenodd"  fill="rgb( 156, 20, 0 )"
 d="M23.354,19.977 C23.354,19.977 38.279,34.863 38.279,34.863 C39.221,35.803 39.221,37.326 38.279,38.266 C37.337,39.205 35.810,39.205 34.868,38.266 C34.868,38.266 19.942,23.379 19.942,23.379 C19.942,23.379 5.017,38.266 5.017,38.266 C4.075,39.205 2.548,39.205 1.606,38.266 C0.664,37.326 0.664,35.803 1.606,34.863 C1.606,34.863 16.531,19.977 16.531,19.977 C16.531,19.977 1.606,5.090 1.606,5.090 C0.664,4.151 0.664,2.627 1.606,1.687 C2.548,0.748 4.075,0.748 5.017,1.687 C5.017,1.687 19.942,16.574 19.942,16.574 C19.942,16.574 34.868,1.687 34.868,1.687 C35.810,0.748 37.337,0.748 38.279,1.687 C39.221,2.627 39.221,4.151 38.279,5.090 C38.279,5.090 23.354,19.977 23.354,19.977 Z"/>
</svg>