<?xml version="1.0" encoding="utf-8"?>
<!-- Generator: Adobe Illustrator 19.1.0, SVG Export Plug-In . SVG Version: 6.00 Build 0)  -->
<!DOCTYPE svg PUBLIC "-//W3C//DTD SVG 1.1//EN" "http://www.w3.org/Graphics/SVG/1.1/DTD/svg11.dtd">
<svg version="1.1" id="Layer_1" xmlns="http://www.w3.org/2000/svg" xmlns:xlink="http://www.w3.org/1999/xlink" x="0px" y="0px"
	 width="24px" height="24px" viewBox="-467 269 24 24" style="enable-background:new -467 269 24 24;" xml:space="preserve">
<path d="M-452,270h-6v2h6V270z M-456,283h2v-6h-2V283z M-448,276.4l1.4-1.4c-0.4-0.5-0.9-1-1.4-1.4l-1.4,1.4c-1.5-1.2-3.5-2-5.6-2
	c-5,0-9,4-9,9s4,9,9,9s9-4,9-9C-446,279.9-446.7,277.9-448,276.4z M-455,289c-3.9,0-7-3.1-7-7s3.1-7,7-7s7,3.1,7,7
	S-451.1,289-455,289z"/>
</svg>
