<?xml version="1.0" encoding="utf-8"?>
<!-- Generator: Adobe Illustrator 19.1.0, SVG Export Plug-In . SVG Version: 6.00 Build 0)  -->
<!DOCTYPE svg PUBLIC "-//W3C//DTD SVG 1.1//EN" "http://www.w3.org/Graphics/SVG/1.1/DTD/svg11.dtd">
<svg version="1.1" id="Layer_1" xmlns="http://www.w3.org/2000/svg" xmlns:xlink="http://www.w3.org/1999/xlink" x="0px" y="0px"
	 width="24px" height="24px" viewBox="-467 269 24 24" style="enable-background:new -467 269 24 24;" xml:space="preserve">
<path d="M-455,280c-1.1,0-2,0.9-2,2s0.9,2,2,2s2-0.9,2-2S-453.9,280-455,280z M-449,282c0-3.3-2.7-6-6-6s-6,2.7-6,6
	c0,2.2,1.2,4.1,3,5.2l1-1.7c-1.2-0.7-2-2-2-3.5c0-2.2,1.8-4,4-4s4,1.8,4,4c0,1.5-0.8,2.8-2,3.5l1,1.7
	C-450.2,286.1-449,284.2-449,282z M-455,272c-5.5,0-10,4.5-10,10c0,3.7,2,6.9,5,8.6l1-1.7c-2.4-1.4-4-4-4-6.9c0-4.4,3.6-8,8-8
	s8,3.6,8,8c0,3-1.6,5.5-4,6.9l1,1.7c3-1.7,5-4.9,5-8.6C-445,276.5-449.5,272-455,272z"/>
</svg>
