<?xml version="1.0" encoding="utf-8"?>
<!-- Generator: Adobe Illustrator 19.1.0, SVG Export Plug-In . SVG Version: 6.00 Build 0)  -->
<!DOCTYPE svg PUBLIC "-//W3C//DTD SVG 1.1//EN" "http://www.w3.org/Graphics/SVG/1.1/DTD/svg11.dtd">
<svg version="1.1" id="Layer_1" xmlns="http://www.w3.org/2000/svg" xmlns:xlink="http://www.w3.org/1999/xlink" x="0px" y="0px"
	 width="20px" height="20px" viewBox="0 0 20 20" style="enable-background:new 0 0 20 20;" xml:space="preserve">
<style type="text/css">
	.st0{fill-rule:evenodd;clip-rule:evenodd;fill:#013F71;}
</style>
<g>
	<g>
		<path class="st0" d="M10,8c-1.1,0-2,0.9-2,2c0,1.1,0.9,2,2,2c1.1,0,2-0.9,2-2C12,8.9,11.1,8,10,8z M17.9,9
			c-0.5-3.6-3.3-6.5-6.9-6.9V0H9v2.1C5.4,2.5,2.5,5.4,2.1,9H0v2h2.1c0.5,3.6,3.3,6.5,6.9,6.9V20h2v-2.1c3.6-0.5,6.5-3.3,6.9-6.9H20
			V9H17.9z M15.9,11c-0.4,2.5-2.4,4.5-4.9,4.9V14H9v1.9c-2.5-0.4-4.5-2.4-4.9-4.9H6V9H4.1C4.5,6.5,6.5,4.5,9,4.1V6h2V4.1
			c2.5,0.4,4.5,2.4,4.9,4.9H14v2H15.9z"/>
	</g>
</g>
</svg>
