<svg xmlns="http://www.w3.org/2000/svg" width="100" height="100" viewBox="0 0 100 100">
  <defs>
    <style>
      .cls-1 {
        fill-rule: evenodd;
      }
    </style>
  </defs>
  <path id="fa-paperclip" class="cls-1" d="M84.032,63.9L49.587,29.734a11.875,11.875,0,0,0-8.834-3.7,11.26,11.26,0,0,0-8.241,3.352,11.076,11.076,0,0,0-3.379,8.173,11.681,11.681,0,0,0,3.735,8.761L57.176,70.422a1.817,1.817,0,0,0,1.3.588q0.948,0,2.786-1.823T63.1,66.424a1.8,1.8,0,0,0-.593-1.294L38.2,41.023a4.988,4.988,0,0,1-1.482-3.469,3.809,3.809,0,0,1,1.126-2.822,3.875,3.875,0,0,1,2.846-1.117,5.113,5.113,0,0,1,3.557,1.411L78.7,69.187a11.673,11.673,0,0,1,3.735,8.526,8.412,8.412,0,0,1-2.49,6.233,8.557,8.557,0,0,1-6.284,2.469,11.861,11.861,0,0,1-8.6-3.7L19.055,37.025a14.471,14.471,0,0,1-4.506-10.642A14.641,14.641,0,0,1,18.877,15.74a14.292,14.292,0,0,1,10.612-4.41A15.009,15.009,0,0,1,40.22,15.858l35.927,35.69a1.879,1.879,0,0,0,1.364.588q0.948,0,2.757-1.793t1.808-2.734a1.8,1.8,0,0,0-.593-1.294L45.615,10.683A22.4,22.4,0,0,0,29.43,4.039a21.683,21.683,0,0,0-15.948,6.527A21.615,21.615,0,0,0,6.96,26.441a21.894,21.894,0,0,0,6.7,15.934L59.725,88a19.147,19.147,0,0,0,13.932,5.88,15.85,15.85,0,0,0,11.62-4.645,15.583,15.583,0,0,0,4.684-11.524A18.591,18.591,0,0,0,84.032,63.9h0Z"/>
</svg>
