<?xml version="1.0" encoding="utf-8"?>
<svg xmlns="http://www.w3.org/2000/svg"
	xmlns:xlink="http://www.w3.org/1999/xlink"
	width="16px" height="16px" viewBox="0 0 16 16">
<path fillRule="evenodd" d="M 12.9 4.5C 12.9 4.5 14.4 3 14.4 3 14.4 3 13 1.6 13 1.6 13 1.6 11.5 3.1 11.5 3.1 10.8 2.6 9.9 2.2 9 2.1 9 2.1 9-0 9-0 9-0 7-0 7-0 7-0 7 2.1 7 2.1 6.1 2.3 5.2 2.6 4.5 3.1 4.5 3.1 3.1 1.6 3.1 1.6 3.1 1.6 1.6 3.1 1.6 3.1 1.6 3.1 3.1 4.6 3.1 4.6 2.6 5.2 2.2 6.1 2.1 7 2.1 7-0 7-0 7-0 7-0 9-0 9-0 9 2.1 9 2.1 9 2.3 9.9 2.6 10.8 3.1 11.5 3.1 11.5 1.6 13 1.6 13 1.6 13 3 14.4 3 14.4 3 14.4 4.5 12.9 4.5 12.9 5.2 13.4 6.1 13.8 7 13.9 7 13.9 7 16 7 16 7 16 9 16 9 16 9 16 9 13.9 9 13.9 9.9 13.7 10.8 13.4 11.5 12.9 11.5 12.9 13 14.4 13 14.4 13 14.4 14.4 13 14.4 13 14.4 13 12.9 11.5 12.9 11.5 13.4 10.8 13.8 9.9 13.9 9 13.9 9 16 9 16 9 16 9 16 7 16 7 16 7 13.9 7 13.9 7 13.8 6.1 13.4 5.2 12.9 4.5ZM 8 11C 6.3 11 5 9.7 5 8 5 6.3 6.3 5 8 5 9.7 5 11 6.3 11 8 11 9.7 9.7 11 8 11Z" fill="rgb(0,79,143)"/></svg>