<?xml version="1.0" encoding="utf-8"?>
<!-- Generator: Avocode 2.6.0 - http://avocode.com -->
<svg height="16" width="16" xmlns:xlink="http://www.w3.org/1999/xlink" xmlns="http://www.w3.org/2000/svg" viewBox="0 0 16 16">
    <path fill-rule="evenodd" d="M 1.69 15.7 C 1.49 15.9 1.3 16 1 16 C 0.7 16 0.5 15.9 0.31 15.7 C -0.09 15.3 -0.09 14.7 0.31 14.31 L 2.78 11.82 Z C 1.1 10.33 0.21 8.64 0.11 8.54 C 0.01 8.24 0.01 7.84 0.11 7.55 C 0.31 7.35 3.17 2.08 7.92 2.08 C 9.21 2.08 10.39 2.47 11.38 3.07 L 14.15 0.39 Z C 14.55 -0.01 15.14 -0.01 15.54 0.39 C 15.93 0.78 15.93 1.38 15.54 1.78 L 1.69 15.7 Z Z M 7.92 4.06 C 5.05 4.06 2.98 6.85 2.18 8.04 C 2.58 8.64 3.27 9.53 4.26 10.33 L 6.04 8.54 Z C 5.94 8.34 5.94 8.24 5.94 8.04 C 5.94 6.95 6.83 6.05 7.92 6.05 C 8.12 6.05 8.22 6.05 8.42 6.15 L 10 4.56 Z C 9.31 4.26 8.61 4.06 7.92 4.06 Z M 13.76 8.04 C 13.56 7.84 13.36 7.44 13.06 7.15 L 14.45 5.75 Z C 15.24 6.65 15.64 7.44 15.73 7.55 C 15.93 7.84 15.93 8.24 15.73 8.54 C 15.54 8.74 12.57 14.01 7.92 14.01 C 7.43 14.01 6.83 13.91 6.44 13.81 L 8.22 12.02 Z C 10.99 11.82 12.96 9.14 13.76 8.04 Z" />
</svg>
