<?xml version="1.0" encoding="utf-8"?>
<!-- Generator: Adobe Illustrator 19.1.0, SVG Export Plug-In . SVG Version: 6.00 Build 0)  -->
<!DOCTYPE svg PUBLIC "-//W3C//DTD SVG 1.1//EN" "http://www.w3.org/Graphics/SVG/1.1/DTD/svg11.dtd">
<svg version="1.1" xmlns="http://www.w3.org/2000/svg" xmlns:xlink="http://www.w3.org/1999/xlink" x="0px" y="0px" width="73.1px"
	 height="97.6px" viewBox="0 0 73.1 97.6" style="enable-background:new 0 0 73.1 97.6;" xml:space="preserve">
<!--<style type="text/css">-->
	<!--.st0{display:none;}-->
<!--</style>-->
<!--<g id="Layer_1" class="st0">-->
	<!---->
		<!--<image style="display:inline;overflow:visible;" width="600" height="600" xlink:href="84467EE0.jpg"  transform="matrix(1 0 0 1 -236.4142 -298.0535)">-->
	<!--</image>-->
<!--</g>-->
<g id="Layer_2">
	<g>
		<path d="M30.6,3.3C30.6,3.3,30.6,3.3,30.6,3.3C30.6,3.3,30.6,3.3,30.6,3.3z"/>
		<path d="M52.2,72.3c0.2-1.2-1.1-2.2-0.9-2.2c-1.1-1.5,0.2-8.2,0.4-8c2.2-3.4,2.4-9.6,2.5-9.2c0.7-2.1,1.7-3.2,2.5-3.5
			c0.4-0.2,0.8-0.5,1.1-0.8c0,0,0,0,0,0c0.7-0.8,0.8-1.3,1-2.3c0.4-2.5,1.3-5.4,1.3-5.6c0.9-3.8-0.8-5.7-0.8-5.7l0.1-0.8
			c0,0,0.9-9.3,0-12c0.3,0.1-1.6-7.8-11-13.3c0-0.1-4.9-5.1-12.5-4.6c0-0.1-4.1-0.1-5.3-0.8c0,0.2-0.5,1.5-1.9,2.3
			c0.1-0.2-10.7,4.5-12.3,9.5c0.1-1.1-6.4,7-4.8,11.5c0.3,0.2,2,6.7,2.3,7.5c0,0-1.6,1.8-0.7,5.7c0,0.2,1,3.4,1.4,6
			c0.1,0.7,0.4,1.4,0.9,2c0.1,0.1,0.2,0.3,0.4,0.5c0.3,0.3,0.7,0.6,1.1,0.8c0.8,0.3,2.2,1.1,2.2,3c0.1-0.4,0.4,6.4,2.7,9.8
			c0.2-0.2,1.3,6.6,0.2,8.1c0.2,0-1.1,1.1-0.9,2.2c0.1-0.1-10.4,4.6-19.2,8.6c9,8.7,21.2,14.1,34.7,14.1c13.3,0,25.4-5.2,34.4-13.7
			C62.3,77,52.1,72.2,52.2,72.3z"/>
	</g>
</g>
</svg>
